G04 #@! TF.FileFunction,Legend,Bot*
%FSLAX46Y46*%
G04 Gerber Fmt 4.6, Leading zero omitted, Abs format (unit mm)*
G04 Created by KiCad (PCBNEW 4.0.2-stable) date 3/23/2016 4:19:06 PM*
%MOMM*%
G01*
G04 APERTURE LIST*
%ADD10C,0.100000*%
%ADD11C,0.300000*%
%ADD12C,0.250000*%
G04 APERTURE END LIST*
D10*
D11*
X178907143Y-92678571D02*
X178050000Y-92678571D01*
X178478571Y-94178571D02*
X178478571Y-92678571D01*
X177692857Y-93178571D02*
X177335714Y-94178571D01*
X176978572Y-93178571D02*
X177335714Y-94178571D01*
X177478572Y-94535714D01*
X177550000Y-94607143D01*
X177692857Y-94678571D01*
X176407143Y-94178571D02*
X176407143Y-93178571D01*
X176407143Y-93464286D02*
X176335715Y-93321429D01*
X176264286Y-93250000D01*
X176121429Y-93178571D01*
X175978572Y-93178571D01*
X175264286Y-94178571D02*
X175407144Y-94107143D01*
X175478572Y-94035714D01*
X175550001Y-93892857D01*
X175550001Y-93464286D01*
X175478572Y-93321429D01*
X175407144Y-93250000D01*
X175264286Y-93178571D01*
X175050001Y-93178571D01*
X174907144Y-93250000D01*
X174835715Y-93321429D01*
X174764286Y-93464286D01*
X174764286Y-93892857D01*
X174835715Y-94035714D01*
X174907144Y-94107143D01*
X175050001Y-94178571D01*
X175264286Y-94178571D01*
X178692857Y-95792857D02*
X178192857Y-95792857D01*
X177978571Y-96578571D02*
X178692857Y-96578571D01*
X178692857Y-95078571D01*
X177978571Y-95078571D01*
X177121428Y-96578571D02*
X177264286Y-96507143D01*
X177335714Y-96364286D01*
X177335714Y-95078571D01*
X175978572Y-96507143D02*
X176121429Y-96578571D01*
X176407143Y-96578571D01*
X176550000Y-96507143D01*
X176621429Y-96364286D01*
X176621429Y-95792857D01*
X176550000Y-95650000D01*
X176407143Y-95578571D01*
X176121429Y-95578571D01*
X175978572Y-95650000D01*
X175907143Y-95792857D01*
X175907143Y-95935714D01*
X176621429Y-96078571D01*
X174621429Y-96507143D02*
X174764286Y-96578571D01*
X175050000Y-96578571D01*
X175192858Y-96507143D01*
X175264286Y-96435714D01*
X175335715Y-96292857D01*
X175335715Y-95864286D01*
X175264286Y-95721429D01*
X175192858Y-95650000D01*
X175050000Y-95578571D01*
X174764286Y-95578571D01*
X174621429Y-95650000D01*
X174192858Y-95578571D02*
X173621429Y-95578571D01*
X173978572Y-95078571D02*
X173978572Y-96364286D01*
X173907144Y-96507143D01*
X173764286Y-96578571D01*
X173621429Y-96578571D01*
X173121429Y-96578571D02*
X173121429Y-95578571D01*
X173121429Y-95864286D02*
X173050001Y-95721429D01*
X172978572Y-95650000D01*
X172835715Y-95578571D01*
X172692858Y-95578571D01*
X171978572Y-96578571D02*
X172121430Y-96507143D01*
X172192858Y-96435714D01*
X172264287Y-96292857D01*
X172264287Y-95864286D01*
X172192858Y-95721429D01*
X172121430Y-95650000D01*
X171978572Y-95578571D01*
X171764287Y-95578571D01*
X171621430Y-95650000D01*
X171550001Y-95721429D01*
X171478572Y-95864286D01*
X171478572Y-96292857D01*
X171550001Y-96435714D01*
X171621430Y-96507143D01*
X171764287Y-96578571D01*
X171978572Y-96578571D01*
X170835715Y-95578571D02*
X170835715Y-96578571D01*
X170835715Y-95721429D02*
X170764287Y-95650000D01*
X170621429Y-95578571D01*
X170407144Y-95578571D01*
X170264287Y-95650000D01*
X170192858Y-95792857D01*
X170192858Y-96578571D01*
X169478572Y-96578571D02*
X169478572Y-95578571D01*
X169478572Y-95078571D02*
X169550001Y-95150000D01*
X169478572Y-95221429D01*
X169407144Y-95150000D01*
X169478572Y-95078571D01*
X169478572Y-95221429D01*
X168121429Y-96507143D02*
X168264286Y-96578571D01*
X168550000Y-96578571D01*
X168692858Y-96507143D01*
X168764286Y-96435714D01*
X168835715Y-96292857D01*
X168835715Y-95864286D01*
X168764286Y-95721429D01*
X168692858Y-95650000D01*
X168550000Y-95578571D01*
X168264286Y-95578571D01*
X168121429Y-95650000D01*
X167550001Y-96507143D02*
X167407144Y-96578571D01*
X167121429Y-96578571D01*
X166978572Y-96507143D01*
X166907144Y-96364286D01*
X166907144Y-96292857D01*
X166978572Y-96150000D01*
X167121429Y-96078571D01*
X167335715Y-96078571D01*
X167478572Y-96007143D01*
X167550001Y-95864286D01*
X167550001Y-95792857D01*
X167478572Y-95650000D01*
X167335715Y-95578571D01*
X167121429Y-95578571D01*
X166978572Y-95650000D01*
D12*
X175547618Y-83031429D02*
X175390475Y-83083810D01*
X175338094Y-83136190D01*
X175285713Y-83240952D01*
X175285713Y-83398095D01*
X175338094Y-83502857D01*
X175390475Y-83555238D01*
X175495237Y-83607619D01*
X175914284Y-83607619D01*
X175914284Y-82507619D01*
X175547618Y-82507619D01*
X175442856Y-82560000D01*
X175390475Y-82612381D01*
X175338094Y-82717143D01*
X175338094Y-82821905D01*
X175390475Y-82926667D01*
X175442856Y-82979048D01*
X175547618Y-83031429D01*
X175914284Y-83031429D01*
X174342856Y-83607619D02*
X174342856Y-83031429D01*
X174395237Y-82926667D01*
X174499999Y-82874286D01*
X174709522Y-82874286D01*
X174814284Y-82926667D01*
X174342856Y-83555238D02*
X174447618Y-83607619D01*
X174709522Y-83607619D01*
X174814284Y-83555238D01*
X174866665Y-83450476D01*
X174866665Y-83345714D01*
X174814284Y-83240952D01*
X174709522Y-83188571D01*
X174447618Y-83188571D01*
X174342856Y-83136190D01*
X173976189Y-82874286D02*
X173557141Y-82874286D01*
X173819046Y-82507619D02*
X173819046Y-83450476D01*
X173766665Y-83555238D01*
X173661903Y-83607619D01*
X173557141Y-83607619D01*
X171723809Y-83502857D02*
X171776190Y-83555238D01*
X171933333Y-83607619D01*
X172038095Y-83607619D01*
X172195237Y-83555238D01*
X172299999Y-83450476D01*
X172352380Y-83345714D01*
X172404761Y-83136190D01*
X172404761Y-82979048D01*
X172352380Y-82769524D01*
X172299999Y-82664762D01*
X172195237Y-82560000D01*
X172038095Y-82507619D01*
X171933333Y-82507619D01*
X171776190Y-82560000D01*
X171723809Y-82612381D01*
X171252380Y-83607619D02*
X171252380Y-82507619D01*
X170780952Y-83607619D02*
X170780952Y-83031429D01*
X170833333Y-82926667D01*
X170938095Y-82874286D01*
X171095237Y-82874286D01*
X171199999Y-82926667D01*
X171252380Y-82979048D01*
X169785714Y-83607619D02*
X169785714Y-83031429D01*
X169838095Y-82926667D01*
X169942857Y-82874286D01*
X170152380Y-82874286D01*
X170257142Y-82926667D01*
X169785714Y-83555238D02*
X169890476Y-83607619D01*
X170152380Y-83607619D01*
X170257142Y-83555238D01*
X170309523Y-83450476D01*
X170309523Y-83345714D01*
X170257142Y-83240952D01*
X170152380Y-83188571D01*
X169890476Y-83188571D01*
X169785714Y-83136190D01*
X169261904Y-83607619D02*
X169261904Y-82874286D01*
X169261904Y-83083810D02*
X169209523Y-82979048D01*
X169157142Y-82926667D01*
X169052380Y-82874286D01*
X168947619Y-82874286D01*
X168109524Y-82874286D02*
X168109524Y-83764762D01*
X168161905Y-83869524D01*
X168214286Y-83921905D01*
X168319047Y-83974286D01*
X168476190Y-83974286D01*
X168580952Y-83921905D01*
X168109524Y-83555238D02*
X168214286Y-83607619D01*
X168423809Y-83607619D01*
X168528571Y-83555238D01*
X168580952Y-83502857D01*
X168633333Y-83398095D01*
X168633333Y-83083810D01*
X168580952Y-82979048D01*
X168528571Y-82926667D01*
X168423809Y-82874286D01*
X168214286Y-82874286D01*
X168109524Y-82926667D01*
X167166667Y-83555238D02*
X167271429Y-83607619D01*
X167480952Y-83607619D01*
X167585714Y-83555238D01*
X167638095Y-83450476D01*
X167638095Y-83031429D01*
X167585714Y-82926667D01*
X167480952Y-82874286D01*
X167271429Y-82874286D01*
X167166667Y-82926667D01*
X167114286Y-83031429D01*
X167114286Y-83136190D01*
X167638095Y-83240952D01*
X166642857Y-83607619D02*
X166642857Y-82874286D01*
X166642857Y-83083810D02*
X166590476Y-82979048D01*
X166538095Y-82926667D01*
X166433333Y-82874286D01*
X166328572Y-82874286D01*
X173085714Y-84297619D02*
X173609523Y-84297619D01*
X173661904Y-84821429D01*
X173609523Y-84769048D01*
X173504761Y-84716667D01*
X173242857Y-84716667D01*
X173138095Y-84769048D01*
X173085714Y-84821429D01*
X173033333Y-84926190D01*
X173033333Y-85188095D01*
X173085714Y-85292857D01*
X173138095Y-85345238D01*
X173242857Y-85397619D01*
X173504761Y-85397619D01*
X173609523Y-85345238D01*
X173661904Y-85292857D01*
X172352380Y-84297619D02*
X172247619Y-84297619D01*
X172142857Y-84350000D01*
X172090476Y-84402381D01*
X172038095Y-84507143D01*
X171985714Y-84716667D01*
X171985714Y-84978571D01*
X172038095Y-85188095D01*
X172090476Y-85292857D01*
X172142857Y-85345238D01*
X172247619Y-85397619D01*
X172352380Y-85397619D01*
X172457142Y-85345238D01*
X172509523Y-85292857D01*
X172561904Y-85188095D01*
X172614285Y-84978571D01*
X172614285Y-84716667D01*
X172561904Y-84507143D01*
X172509523Y-84402381D01*
X172457142Y-84350000D01*
X172352380Y-84297619D01*
X171304761Y-84297619D02*
X171200000Y-84297619D01*
X171095238Y-84350000D01*
X171042857Y-84402381D01*
X170990476Y-84507143D01*
X170938095Y-84716667D01*
X170938095Y-84978571D01*
X170990476Y-85188095D01*
X171042857Y-85292857D01*
X171095238Y-85345238D01*
X171200000Y-85397619D01*
X171304761Y-85397619D01*
X171409523Y-85345238D01*
X171461904Y-85292857D01*
X171514285Y-85188095D01*
X171566666Y-84978571D01*
X171566666Y-84716667D01*
X171514285Y-84507143D01*
X171461904Y-84402381D01*
X171409523Y-84350000D01*
X171304761Y-84297619D01*
X170466666Y-85397619D02*
X170466666Y-84297619D01*
X170100000Y-85083333D01*
X169733333Y-84297619D01*
X169733333Y-85397619D01*
X169261904Y-85083333D02*
X168738095Y-85083333D01*
X169366666Y-85397619D02*
X168999999Y-84297619D01*
X168633333Y-85397619D01*
X172876190Y-86087619D02*
X172509523Y-87187619D01*
X172142857Y-86087619D01*
X171200000Y-87187619D02*
X171828571Y-87187619D01*
X171514285Y-87187619D02*
X171514285Y-86087619D01*
X171619047Y-86244762D01*
X171723809Y-86349524D01*
X171828571Y-86401905D01*
X170728571Y-87082857D02*
X170676190Y-87135238D01*
X170728571Y-87187619D01*
X170780952Y-87135238D01*
X170728571Y-87082857D01*
X170728571Y-87187619D01*
X169995237Y-86087619D02*
X169890476Y-86087619D01*
X169785714Y-86140000D01*
X169733333Y-86192381D01*
X169680952Y-86297143D01*
X169628571Y-86506667D01*
X169628571Y-86768571D01*
X169680952Y-86978095D01*
X169733333Y-87082857D01*
X169785714Y-87135238D01*
X169890476Y-87187619D01*
X169995237Y-87187619D01*
X170099999Y-87135238D01*
X170152380Y-87082857D01*
X170204761Y-86978095D01*
X170257142Y-86768571D01*
X170257142Y-86506667D01*
X170204761Y-86297143D01*
X170152380Y-86192381D01*
X170099999Y-86140000D01*
X169995237Y-86087619D01*
M02*
