G04 #@! TF.FileFunction,Copper,L1,Top,Signal*
%FSLAX46Y46*%
G04 Gerber Fmt 4.6, Leading zero omitted, Abs format (unit mm)*
G04 Created by KiCad (PCBNEW 4.0.2-stable) date 3/23/2016 4:19:05 PM*
%MOMM*%
G01*
G04 APERTURE LIST*
%ADD10C,0.100000*%
%ADD11R,2.032000X1.727200*%
%ADD12O,2.032000X1.727200*%
%ADD13R,2.032000X2.032000*%
%ADD14O,2.032000X2.032000*%
%ADD15R,1.060000X0.650000*%
%ADD16R,1.700000X0.900000*%
%ADD17C,3.800000*%
%ADD18R,1.800860X1.597660*%
%ADD19R,1.800000X1.900000*%
%ADD20R,0.400000X1.350000*%
%ADD21R,2.100000X1.600000*%
%ADD22C,0.600000*%
%ADD23C,0.250000*%
%ADD24C,0.254000*%
G04 APERTURE END LIST*
D10*
D11*
X164400000Y-90500000D03*
D12*
X164400000Y-93040000D03*
X164400000Y-95580000D03*
D13*
X170050000Y-99650000D03*
D14*
X172590000Y-99650000D03*
D15*
X172500000Y-94750000D03*
X172500000Y-95700000D03*
X172500000Y-96650000D03*
X174700000Y-96650000D03*
X174700000Y-94750000D03*
D16*
X168300000Y-92050000D03*
X168300000Y-89150000D03*
X168300000Y-96750000D03*
X168300000Y-93850000D03*
X174500000Y-89150000D03*
X174500000Y-92050000D03*
X171500000Y-92050000D03*
X171500000Y-89150000D03*
D17*
X178400000Y-85050000D03*
X163000000Y-85000000D03*
D18*
X177400000Y-91930140D03*
X177400000Y-94769860D03*
D19*
X166812500Y-83185000D03*
X174412500Y-83185000D03*
X169462500Y-83185000D03*
D20*
X169312500Y-85860000D03*
X169962500Y-85860000D03*
X170612500Y-85860000D03*
X171262500Y-85860000D03*
X171912500Y-85860000D03*
D21*
X173712500Y-85735000D03*
X167512500Y-85735000D03*
D19*
X171762500Y-83185000D03*
D22*
X164400000Y-90500000D03*
X169050000Y-87500000D03*
X166000000Y-94500000D03*
X171250000Y-87750000D03*
X170050000Y-99650000D03*
X168250000Y-96700000D03*
X172250000Y-87500000D03*
X174500000Y-96000000D03*
X174700000Y-94750000D03*
X173000000Y-92750000D03*
D23*
X169962500Y-86587500D02*
X169962500Y-85860000D01*
X169050000Y-87500000D02*
X169962500Y-86587500D01*
X164400000Y-93040000D02*
X164960000Y-93040000D01*
X164960000Y-93040000D02*
X166500000Y-91500000D01*
X166500000Y-91500000D02*
X166500000Y-91250000D01*
X166500000Y-91250000D02*
X167500000Y-90250000D01*
X167500000Y-90250000D02*
X169500000Y-90250000D01*
X169500000Y-90250000D02*
X170000000Y-89750000D01*
X170000000Y-89750000D02*
X170000000Y-87750000D01*
X170000000Y-87750000D02*
X170612500Y-87137500D01*
X170612500Y-87137500D02*
X170612500Y-85860000D01*
X164400000Y-95580000D02*
X164920000Y-95580000D01*
X164920000Y-95580000D02*
X166000000Y-94500000D01*
X171250000Y-87750000D02*
X171262500Y-87737500D01*
X171262500Y-87737500D02*
X171262500Y-85860000D01*
X168250000Y-96700000D02*
X168300000Y-96750000D01*
X168300000Y-92050000D02*
X169300000Y-92050000D01*
X170500000Y-93250000D02*
X170500000Y-96750000D01*
X169300000Y-92050000D02*
X170500000Y-93250000D01*
X168300000Y-96750000D02*
X170500000Y-96750000D01*
X170500000Y-96750000D02*
X172400000Y-96750000D01*
X172400000Y-96750000D02*
X172500000Y-96650000D01*
X170050000Y-99650000D02*
X169650000Y-99650000D01*
X169312500Y-85860000D02*
X168510000Y-85860000D01*
X168510000Y-85860000D02*
X168150000Y-85500000D01*
X172500000Y-95700000D02*
X173300000Y-95700000D01*
X173600000Y-96000000D02*
X173600000Y-97650000D01*
X173300000Y-95700000D02*
X173600000Y-96000000D01*
X172500000Y-94750000D02*
X172500000Y-94550000D01*
X172500000Y-94550000D02*
X173350000Y-93700000D01*
X173350000Y-93700000D02*
X176330140Y-93700000D01*
X176330140Y-93700000D02*
X177400000Y-94769860D01*
X174500000Y-89150000D02*
X174500000Y-89000000D01*
X174500000Y-89000000D02*
X173000000Y-87500000D01*
X173000000Y-87500000D02*
X172250000Y-87500000D01*
X174700000Y-96650000D02*
X174700000Y-96200000D01*
X171912500Y-87162500D02*
X171912500Y-85860000D01*
X172250000Y-87500000D02*
X171912500Y-87162500D01*
X174700000Y-96200000D02*
X174500000Y-96000000D01*
X172300000Y-92050000D02*
X173000000Y-92750000D01*
X172300000Y-92050000D02*
X171500000Y-92050000D01*
X177400000Y-91980140D02*
X174569860Y-91980140D01*
X174569860Y-91980140D02*
X174500000Y-92050000D01*
D24*
G36*
X165277500Y-82899250D02*
X165436250Y-83058000D01*
X166685500Y-83058000D01*
X166685500Y-83038000D01*
X166939500Y-83038000D01*
X166939500Y-83058000D01*
X169335500Y-83058000D01*
X169335500Y-83038000D01*
X169589500Y-83038000D01*
X169589500Y-83058000D01*
X171635500Y-83058000D01*
X171635500Y-83038000D01*
X171889500Y-83038000D01*
X171889500Y-83058000D01*
X174285500Y-83058000D01*
X174285500Y-83038000D01*
X174539500Y-83038000D01*
X174539500Y-83058000D01*
X175788750Y-83058000D01*
X175947500Y-82899250D01*
X175947500Y-82460000D01*
X180340000Y-82460000D01*
X180340000Y-83405224D01*
X179837837Y-82902184D01*
X178906455Y-82515441D01*
X177897969Y-82514561D01*
X176965914Y-82899678D01*
X176252184Y-83612163D01*
X175865441Y-84543545D01*
X175864561Y-85552031D01*
X176249678Y-86484086D01*
X176962163Y-87197816D01*
X177893545Y-87584559D01*
X178902031Y-87585439D01*
X179834086Y-87200322D01*
X180340000Y-86695290D01*
X180340000Y-101040000D01*
X173472488Y-101040000D01*
X173927188Y-100618379D01*
X174195983Y-100032946D01*
X174077367Y-99777000D01*
X172717000Y-99777000D01*
X172717000Y-99797000D01*
X172463000Y-99797000D01*
X172463000Y-99777000D01*
X172443000Y-99777000D01*
X172443000Y-99523000D01*
X172463000Y-99523000D01*
X172463000Y-98163164D01*
X172717000Y-98163164D01*
X172717000Y-99523000D01*
X174077367Y-99523000D01*
X174195983Y-99267054D01*
X173927188Y-98681621D01*
X173454818Y-98243615D01*
X172972944Y-98044025D01*
X172717000Y-98163164D01*
X172463000Y-98163164D01*
X172207056Y-98044025D01*
X171725182Y-98243615D01*
X171627602Y-98334097D01*
X171530090Y-98182559D01*
X171317890Y-98037569D01*
X171066000Y-97986560D01*
X169034000Y-97986560D01*
X168798683Y-98030838D01*
X168582559Y-98169910D01*
X168437569Y-98382110D01*
X168386560Y-98634000D01*
X168386560Y-100666000D01*
X168430838Y-100901317D01*
X168520078Y-101040000D01*
X161110000Y-101040000D01*
X161110000Y-86694863D01*
X161562163Y-87147816D01*
X162493545Y-87534559D01*
X163502031Y-87535439D01*
X164434086Y-87150322D01*
X165147816Y-86437837D01*
X165321005Y-86020750D01*
X165827500Y-86020750D01*
X165827500Y-86661310D01*
X165924173Y-86894699D01*
X166102802Y-87073327D01*
X166336191Y-87170000D01*
X167226750Y-87170000D01*
X167385500Y-87011250D01*
X167385500Y-85862000D01*
X165986250Y-85862000D01*
X165827500Y-86020750D01*
X165321005Y-86020750D01*
X165534559Y-85506455D01*
X165535301Y-84655826D01*
X165552802Y-84673327D01*
X165786191Y-84770000D01*
X165843526Y-84770000D01*
X165827500Y-84808690D01*
X165827500Y-85449250D01*
X165986250Y-85608000D01*
X167385500Y-85608000D01*
X167385500Y-85588000D01*
X167639500Y-85588000D01*
X167639500Y-85608000D01*
X167659500Y-85608000D01*
X167659500Y-85862000D01*
X167639500Y-85862000D01*
X167639500Y-87011250D01*
X167798250Y-87170000D01*
X168174625Y-87170000D01*
X168115162Y-87313201D01*
X168114838Y-87685167D01*
X168256883Y-88028943D01*
X168292877Y-88065000D01*
X168172998Y-88065000D01*
X168172998Y-88223748D01*
X168014250Y-88065000D01*
X167323690Y-88065000D01*
X167090301Y-88161673D01*
X166911673Y-88340302D01*
X166815000Y-88573691D01*
X166815000Y-88864250D01*
X166973750Y-89023000D01*
X168173000Y-89023000D01*
X168173000Y-89003000D01*
X168427000Y-89003000D01*
X168427000Y-89023000D01*
X168447000Y-89023000D01*
X168447000Y-89277000D01*
X168427000Y-89277000D01*
X168427000Y-89297000D01*
X168173000Y-89297000D01*
X168173000Y-89277000D01*
X166973750Y-89277000D01*
X166815000Y-89435750D01*
X166815000Y-89726309D01*
X166854215Y-89820983D01*
X166063440Y-90611758D01*
X166063440Y-89636400D01*
X166019162Y-89401083D01*
X165880090Y-89184959D01*
X165667890Y-89039969D01*
X165416000Y-88988960D01*
X163384000Y-88988960D01*
X163148683Y-89033238D01*
X162932559Y-89172310D01*
X162787569Y-89384510D01*
X162736560Y-89636400D01*
X162736560Y-91363600D01*
X162780838Y-91598917D01*
X162919910Y-91815041D01*
X163132110Y-91960031D01*
X163173439Y-91968400D01*
X163155585Y-91980330D01*
X162830729Y-92466511D01*
X162716655Y-93040000D01*
X162830729Y-93613489D01*
X163155585Y-94099670D01*
X163470366Y-94310000D01*
X163155585Y-94520330D01*
X162830729Y-95006511D01*
X162716655Y-95580000D01*
X162830729Y-96153489D01*
X163155585Y-96639670D01*
X163641766Y-96964526D01*
X164215255Y-97078600D01*
X164584745Y-97078600D01*
X165158234Y-96964526D01*
X165644415Y-96639670D01*
X165969271Y-96153489D01*
X166083345Y-95580000D01*
X166068655Y-95506147D01*
X166139680Y-95435122D01*
X166185167Y-95435162D01*
X166528943Y-95293117D01*
X166792192Y-95030327D01*
X166934838Y-94686799D01*
X166934841Y-94682867D01*
X167090301Y-94838327D01*
X167323690Y-94935000D01*
X168014250Y-94935000D01*
X168173000Y-94776250D01*
X168173000Y-93977000D01*
X166973750Y-93977000D01*
X166847668Y-94103082D01*
X166793117Y-93971057D01*
X166530327Y-93707808D01*
X166186799Y-93565162D01*
X165978920Y-93564981D01*
X166083345Y-93040000D01*
X166075291Y-92999511D01*
X166802560Y-92272242D01*
X166802560Y-92500000D01*
X166846838Y-92735317D01*
X166985910Y-92951441D01*
X166994598Y-92957377D01*
X166911673Y-93040302D01*
X166815000Y-93273691D01*
X166815000Y-93564250D01*
X166973750Y-93723000D01*
X168173000Y-93723000D01*
X168173000Y-93703000D01*
X168427000Y-93703000D01*
X168427000Y-93723000D01*
X168447000Y-93723000D01*
X168447000Y-93977000D01*
X168427000Y-93977000D01*
X168427000Y-94776250D01*
X168585750Y-94935000D01*
X169276310Y-94935000D01*
X169509699Y-94838327D01*
X169688327Y-94659698D01*
X169740000Y-94534948D01*
X169740000Y-95990000D01*
X169705105Y-95990000D01*
X169614090Y-95848559D01*
X169401890Y-95703569D01*
X169150000Y-95652560D01*
X167450000Y-95652560D01*
X167214683Y-95696838D01*
X166998559Y-95835910D01*
X166853569Y-96048110D01*
X166802560Y-96300000D01*
X166802560Y-97200000D01*
X166846838Y-97435317D01*
X166985910Y-97651441D01*
X167198110Y-97796431D01*
X167450000Y-97847440D01*
X169150000Y-97847440D01*
X169385317Y-97803162D01*
X169601441Y-97664090D01*
X169706726Y-97510000D01*
X171628203Y-97510000D01*
X171718110Y-97571431D01*
X171970000Y-97622440D01*
X173030000Y-97622440D01*
X173265317Y-97578162D01*
X173481441Y-97439090D01*
X173601233Y-97263768D01*
X173705910Y-97426441D01*
X173918110Y-97571431D01*
X174170000Y-97622440D01*
X175230000Y-97622440D01*
X175465317Y-97578162D01*
X175681441Y-97439090D01*
X175826431Y-97226890D01*
X175877440Y-96975000D01*
X175877440Y-96325000D01*
X175833162Y-96089683D01*
X175694090Y-95873559D01*
X175481890Y-95728569D01*
X175391997Y-95710365D01*
X175384940Y-95693286D01*
X175465317Y-95678162D01*
X175681441Y-95539090D01*
X175826431Y-95326890D01*
X175852130Y-95199985D01*
X175852130Y-95568690D01*
X175896408Y-95804007D01*
X176035480Y-96020131D01*
X176247680Y-96165121D01*
X176499570Y-96216130D01*
X178300430Y-96216130D01*
X178535747Y-96171852D01*
X178751871Y-96032780D01*
X178896861Y-95820580D01*
X178947870Y-95568690D01*
X178947870Y-93971030D01*
X178903592Y-93735713D01*
X178764520Y-93519589D01*
X178552320Y-93374599D01*
X178435634Y-93350970D01*
X178535747Y-93332132D01*
X178751871Y-93193060D01*
X178896861Y-92980860D01*
X178947870Y-92728970D01*
X178947870Y-91131310D01*
X178903592Y-90895993D01*
X178764520Y-90679869D01*
X178552320Y-90534879D01*
X178300430Y-90483870D01*
X176499570Y-90483870D01*
X176264253Y-90528148D01*
X176048129Y-90667220D01*
X175903139Y-90879420D01*
X175852130Y-91131310D01*
X175852130Y-91207675D01*
X175814090Y-91148559D01*
X175601890Y-91003569D01*
X175350000Y-90952560D01*
X173650000Y-90952560D01*
X173414683Y-90996838D01*
X173198559Y-91135910D01*
X173053569Y-91348110D01*
X173002560Y-91600000D01*
X173002560Y-91677758D01*
X172997440Y-91672638D01*
X172997440Y-91600000D01*
X172953162Y-91364683D01*
X172814090Y-91148559D01*
X172601890Y-91003569D01*
X172350000Y-90952560D01*
X170650000Y-90952560D01*
X170414683Y-90996838D01*
X170198559Y-91135910D01*
X170053569Y-91348110D01*
X170002560Y-91600000D01*
X170002560Y-91677758D01*
X169837401Y-91512599D01*
X169772883Y-91469489D01*
X169753162Y-91364683D01*
X169614090Y-91148559D01*
X169411302Y-91010000D01*
X169500000Y-91010000D01*
X169790839Y-90952148D01*
X170037401Y-90787401D01*
X170537401Y-90287401D01*
X170572414Y-90235000D01*
X171214250Y-90235000D01*
X171373000Y-90076250D01*
X171373000Y-89277000D01*
X171627000Y-89277000D01*
X171627000Y-90076250D01*
X171785750Y-90235000D01*
X172476310Y-90235000D01*
X172709699Y-90138327D01*
X172888327Y-89959698D01*
X172985000Y-89726309D01*
X172985000Y-89435750D01*
X172826250Y-89277000D01*
X171627000Y-89277000D01*
X171373000Y-89277000D01*
X171353000Y-89277000D01*
X171353000Y-89023000D01*
X171373000Y-89023000D01*
X171373000Y-89003000D01*
X171627000Y-89003000D01*
X171627000Y-89023000D01*
X172826250Y-89023000D01*
X172985000Y-88864250D01*
X172985000Y-88573691D01*
X172975179Y-88549981D01*
X173023213Y-88598015D01*
X173002560Y-88700000D01*
X173002560Y-89600000D01*
X173046838Y-89835317D01*
X173185910Y-90051441D01*
X173398110Y-90196431D01*
X173650000Y-90247440D01*
X175350000Y-90247440D01*
X175585317Y-90203162D01*
X175801441Y-90064090D01*
X175946431Y-89851890D01*
X175997440Y-89600000D01*
X175997440Y-88700000D01*
X175953162Y-88464683D01*
X175814090Y-88248559D01*
X175601890Y-88103569D01*
X175350000Y-88052560D01*
X174627362Y-88052560D01*
X173744802Y-87170000D01*
X173839502Y-87170000D01*
X173839502Y-87011252D01*
X173998250Y-87170000D01*
X174888809Y-87170000D01*
X175122198Y-87073327D01*
X175300827Y-86894699D01*
X175397500Y-86661310D01*
X175397500Y-86020750D01*
X175238750Y-85862000D01*
X173839500Y-85862000D01*
X173839500Y-85882000D01*
X173585500Y-85882000D01*
X173585500Y-85862000D01*
X173565500Y-85862000D01*
X173565500Y-85608000D01*
X173585500Y-85608000D01*
X173585500Y-85588000D01*
X173839500Y-85588000D01*
X173839500Y-85608000D01*
X175238750Y-85608000D01*
X175397500Y-85449250D01*
X175397500Y-84808690D01*
X175381474Y-84770000D01*
X175438809Y-84770000D01*
X175672198Y-84673327D01*
X175850827Y-84494699D01*
X175947500Y-84261310D01*
X175947500Y-83470750D01*
X175788750Y-83312000D01*
X174539500Y-83312000D01*
X174539500Y-83332000D01*
X174285500Y-83332000D01*
X174285500Y-83312000D01*
X171889500Y-83312000D01*
X171889500Y-83332000D01*
X171635500Y-83332000D01*
X171635500Y-83312000D01*
X169589500Y-83312000D01*
X169589500Y-83332000D01*
X169335500Y-83332000D01*
X169335500Y-83312000D01*
X166939500Y-83312000D01*
X166939500Y-83332000D01*
X166685500Y-83332000D01*
X166685500Y-83312000D01*
X165436250Y-83312000D01*
X165277500Y-83470750D01*
X165277500Y-83873708D01*
X165150322Y-83565914D01*
X164437837Y-82852184D01*
X163506455Y-82465441D01*
X162497969Y-82464561D01*
X161565914Y-82849678D01*
X161110000Y-83304797D01*
X161110000Y-82460000D01*
X165277500Y-82460000D01*
X165277500Y-82899250D01*
X165277500Y-82899250D01*
G37*
X165277500Y-82899250D02*
X165436250Y-83058000D01*
X166685500Y-83058000D01*
X166685500Y-83038000D01*
X166939500Y-83038000D01*
X166939500Y-83058000D01*
X169335500Y-83058000D01*
X169335500Y-83038000D01*
X169589500Y-83038000D01*
X169589500Y-83058000D01*
X171635500Y-83058000D01*
X171635500Y-83038000D01*
X171889500Y-83038000D01*
X171889500Y-83058000D01*
X174285500Y-83058000D01*
X174285500Y-83038000D01*
X174539500Y-83038000D01*
X174539500Y-83058000D01*
X175788750Y-83058000D01*
X175947500Y-82899250D01*
X175947500Y-82460000D01*
X180340000Y-82460000D01*
X180340000Y-83405224D01*
X179837837Y-82902184D01*
X178906455Y-82515441D01*
X177897969Y-82514561D01*
X176965914Y-82899678D01*
X176252184Y-83612163D01*
X175865441Y-84543545D01*
X175864561Y-85552031D01*
X176249678Y-86484086D01*
X176962163Y-87197816D01*
X177893545Y-87584559D01*
X178902031Y-87585439D01*
X179834086Y-87200322D01*
X180340000Y-86695290D01*
X180340000Y-101040000D01*
X173472488Y-101040000D01*
X173927188Y-100618379D01*
X174195983Y-100032946D01*
X174077367Y-99777000D01*
X172717000Y-99777000D01*
X172717000Y-99797000D01*
X172463000Y-99797000D01*
X172463000Y-99777000D01*
X172443000Y-99777000D01*
X172443000Y-99523000D01*
X172463000Y-99523000D01*
X172463000Y-98163164D01*
X172717000Y-98163164D01*
X172717000Y-99523000D01*
X174077367Y-99523000D01*
X174195983Y-99267054D01*
X173927188Y-98681621D01*
X173454818Y-98243615D01*
X172972944Y-98044025D01*
X172717000Y-98163164D01*
X172463000Y-98163164D01*
X172207056Y-98044025D01*
X171725182Y-98243615D01*
X171627602Y-98334097D01*
X171530090Y-98182559D01*
X171317890Y-98037569D01*
X171066000Y-97986560D01*
X169034000Y-97986560D01*
X168798683Y-98030838D01*
X168582559Y-98169910D01*
X168437569Y-98382110D01*
X168386560Y-98634000D01*
X168386560Y-100666000D01*
X168430838Y-100901317D01*
X168520078Y-101040000D01*
X161110000Y-101040000D01*
X161110000Y-86694863D01*
X161562163Y-87147816D01*
X162493545Y-87534559D01*
X163502031Y-87535439D01*
X164434086Y-87150322D01*
X165147816Y-86437837D01*
X165321005Y-86020750D01*
X165827500Y-86020750D01*
X165827500Y-86661310D01*
X165924173Y-86894699D01*
X166102802Y-87073327D01*
X166336191Y-87170000D01*
X167226750Y-87170000D01*
X167385500Y-87011250D01*
X167385500Y-85862000D01*
X165986250Y-85862000D01*
X165827500Y-86020750D01*
X165321005Y-86020750D01*
X165534559Y-85506455D01*
X165535301Y-84655826D01*
X165552802Y-84673327D01*
X165786191Y-84770000D01*
X165843526Y-84770000D01*
X165827500Y-84808690D01*
X165827500Y-85449250D01*
X165986250Y-85608000D01*
X167385500Y-85608000D01*
X167385500Y-85588000D01*
X167639500Y-85588000D01*
X167639500Y-85608000D01*
X167659500Y-85608000D01*
X167659500Y-85862000D01*
X167639500Y-85862000D01*
X167639500Y-87011250D01*
X167798250Y-87170000D01*
X168174625Y-87170000D01*
X168115162Y-87313201D01*
X168114838Y-87685167D01*
X168256883Y-88028943D01*
X168292877Y-88065000D01*
X168172998Y-88065000D01*
X168172998Y-88223748D01*
X168014250Y-88065000D01*
X167323690Y-88065000D01*
X167090301Y-88161673D01*
X166911673Y-88340302D01*
X166815000Y-88573691D01*
X166815000Y-88864250D01*
X166973750Y-89023000D01*
X168173000Y-89023000D01*
X168173000Y-89003000D01*
X168427000Y-89003000D01*
X168427000Y-89023000D01*
X168447000Y-89023000D01*
X168447000Y-89277000D01*
X168427000Y-89277000D01*
X168427000Y-89297000D01*
X168173000Y-89297000D01*
X168173000Y-89277000D01*
X166973750Y-89277000D01*
X166815000Y-89435750D01*
X166815000Y-89726309D01*
X166854215Y-89820983D01*
X166063440Y-90611758D01*
X166063440Y-89636400D01*
X166019162Y-89401083D01*
X165880090Y-89184959D01*
X165667890Y-89039969D01*
X165416000Y-88988960D01*
X163384000Y-88988960D01*
X163148683Y-89033238D01*
X162932559Y-89172310D01*
X162787569Y-89384510D01*
X162736560Y-89636400D01*
X162736560Y-91363600D01*
X162780838Y-91598917D01*
X162919910Y-91815041D01*
X163132110Y-91960031D01*
X163173439Y-91968400D01*
X163155585Y-91980330D01*
X162830729Y-92466511D01*
X162716655Y-93040000D01*
X162830729Y-93613489D01*
X163155585Y-94099670D01*
X163470366Y-94310000D01*
X163155585Y-94520330D01*
X162830729Y-95006511D01*
X162716655Y-95580000D01*
X162830729Y-96153489D01*
X163155585Y-96639670D01*
X163641766Y-96964526D01*
X164215255Y-97078600D01*
X164584745Y-97078600D01*
X165158234Y-96964526D01*
X165644415Y-96639670D01*
X165969271Y-96153489D01*
X166083345Y-95580000D01*
X166068655Y-95506147D01*
X166139680Y-95435122D01*
X166185167Y-95435162D01*
X166528943Y-95293117D01*
X166792192Y-95030327D01*
X166934838Y-94686799D01*
X166934841Y-94682867D01*
X167090301Y-94838327D01*
X167323690Y-94935000D01*
X168014250Y-94935000D01*
X168173000Y-94776250D01*
X168173000Y-93977000D01*
X166973750Y-93977000D01*
X166847668Y-94103082D01*
X166793117Y-93971057D01*
X166530327Y-93707808D01*
X166186799Y-93565162D01*
X165978920Y-93564981D01*
X166083345Y-93040000D01*
X166075291Y-92999511D01*
X166802560Y-92272242D01*
X166802560Y-92500000D01*
X166846838Y-92735317D01*
X166985910Y-92951441D01*
X166994598Y-92957377D01*
X166911673Y-93040302D01*
X166815000Y-93273691D01*
X166815000Y-93564250D01*
X166973750Y-93723000D01*
X168173000Y-93723000D01*
X168173000Y-93703000D01*
X168427000Y-93703000D01*
X168427000Y-93723000D01*
X168447000Y-93723000D01*
X168447000Y-93977000D01*
X168427000Y-93977000D01*
X168427000Y-94776250D01*
X168585750Y-94935000D01*
X169276310Y-94935000D01*
X169509699Y-94838327D01*
X169688327Y-94659698D01*
X169740000Y-94534948D01*
X169740000Y-95990000D01*
X169705105Y-95990000D01*
X169614090Y-95848559D01*
X169401890Y-95703569D01*
X169150000Y-95652560D01*
X167450000Y-95652560D01*
X167214683Y-95696838D01*
X166998559Y-95835910D01*
X166853569Y-96048110D01*
X166802560Y-96300000D01*
X166802560Y-97200000D01*
X166846838Y-97435317D01*
X166985910Y-97651441D01*
X167198110Y-97796431D01*
X167450000Y-97847440D01*
X169150000Y-97847440D01*
X169385317Y-97803162D01*
X169601441Y-97664090D01*
X169706726Y-97510000D01*
X171628203Y-97510000D01*
X171718110Y-97571431D01*
X171970000Y-97622440D01*
X173030000Y-97622440D01*
X173265317Y-97578162D01*
X173481441Y-97439090D01*
X173601233Y-97263768D01*
X173705910Y-97426441D01*
X173918110Y-97571431D01*
X174170000Y-97622440D01*
X175230000Y-97622440D01*
X175465317Y-97578162D01*
X175681441Y-97439090D01*
X175826431Y-97226890D01*
X175877440Y-96975000D01*
X175877440Y-96325000D01*
X175833162Y-96089683D01*
X175694090Y-95873559D01*
X175481890Y-95728569D01*
X175391997Y-95710365D01*
X175384940Y-95693286D01*
X175465317Y-95678162D01*
X175681441Y-95539090D01*
X175826431Y-95326890D01*
X175852130Y-95199985D01*
X175852130Y-95568690D01*
X175896408Y-95804007D01*
X176035480Y-96020131D01*
X176247680Y-96165121D01*
X176499570Y-96216130D01*
X178300430Y-96216130D01*
X178535747Y-96171852D01*
X178751871Y-96032780D01*
X178896861Y-95820580D01*
X178947870Y-95568690D01*
X178947870Y-93971030D01*
X178903592Y-93735713D01*
X178764520Y-93519589D01*
X178552320Y-93374599D01*
X178435634Y-93350970D01*
X178535747Y-93332132D01*
X178751871Y-93193060D01*
X178896861Y-92980860D01*
X178947870Y-92728970D01*
X178947870Y-91131310D01*
X178903592Y-90895993D01*
X178764520Y-90679869D01*
X178552320Y-90534879D01*
X178300430Y-90483870D01*
X176499570Y-90483870D01*
X176264253Y-90528148D01*
X176048129Y-90667220D01*
X175903139Y-90879420D01*
X175852130Y-91131310D01*
X175852130Y-91207675D01*
X175814090Y-91148559D01*
X175601890Y-91003569D01*
X175350000Y-90952560D01*
X173650000Y-90952560D01*
X173414683Y-90996838D01*
X173198559Y-91135910D01*
X173053569Y-91348110D01*
X173002560Y-91600000D01*
X173002560Y-91677758D01*
X172997440Y-91672638D01*
X172997440Y-91600000D01*
X172953162Y-91364683D01*
X172814090Y-91148559D01*
X172601890Y-91003569D01*
X172350000Y-90952560D01*
X170650000Y-90952560D01*
X170414683Y-90996838D01*
X170198559Y-91135910D01*
X170053569Y-91348110D01*
X170002560Y-91600000D01*
X170002560Y-91677758D01*
X169837401Y-91512599D01*
X169772883Y-91469489D01*
X169753162Y-91364683D01*
X169614090Y-91148559D01*
X169411302Y-91010000D01*
X169500000Y-91010000D01*
X169790839Y-90952148D01*
X170037401Y-90787401D01*
X170537401Y-90287401D01*
X170572414Y-90235000D01*
X171214250Y-90235000D01*
X171373000Y-90076250D01*
X171373000Y-89277000D01*
X171627000Y-89277000D01*
X171627000Y-90076250D01*
X171785750Y-90235000D01*
X172476310Y-90235000D01*
X172709699Y-90138327D01*
X172888327Y-89959698D01*
X172985000Y-89726309D01*
X172985000Y-89435750D01*
X172826250Y-89277000D01*
X171627000Y-89277000D01*
X171373000Y-89277000D01*
X171353000Y-89277000D01*
X171353000Y-89023000D01*
X171373000Y-89023000D01*
X171373000Y-89003000D01*
X171627000Y-89003000D01*
X171627000Y-89023000D01*
X172826250Y-89023000D01*
X172985000Y-88864250D01*
X172985000Y-88573691D01*
X172975179Y-88549981D01*
X173023213Y-88598015D01*
X173002560Y-88700000D01*
X173002560Y-89600000D01*
X173046838Y-89835317D01*
X173185910Y-90051441D01*
X173398110Y-90196431D01*
X173650000Y-90247440D01*
X175350000Y-90247440D01*
X175585317Y-90203162D01*
X175801441Y-90064090D01*
X175946431Y-89851890D01*
X175997440Y-89600000D01*
X175997440Y-88700000D01*
X175953162Y-88464683D01*
X175814090Y-88248559D01*
X175601890Y-88103569D01*
X175350000Y-88052560D01*
X174627362Y-88052560D01*
X173744802Y-87170000D01*
X173839502Y-87170000D01*
X173839502Y-87011252D01*
X173998250Y-87170000D01*
X174888809Y-87170000D01*
X175122198Y-87073327D01*
X175300827Y-86894699D01*
X175397500Y-86661310D01*
X175397500Y-86020750D01*
X175238750Y-85862000D01*
X173839500Y-85862000D01*
X173839500Y-85882000D01*
X173585500Y-85882000D01*
X173585500Y-85862000D01*
X173565500Y-85862000D01*
X173565500Y-85608000D01*
X173585500Y-85608000D01*
X173585500Y-85588000D01*
X173839500Y-85588000D01*
X173839500Y-85608000D01*
X175238750Y-85608000D01*
X175397500Y-85449250D01*
X175397500Y-84808690D01*
X175381474Y-84770000D01*
X175438809Y-84770000D01*
X175672198Y-84673327D01*
X175850827Y-84494699D01*
X175947500Y-84261310D01*
X175947500Y-83470750D01*
X175788750Y-83312000D01*
X174539500Y-83312000D01*
X174539500Y-83332000D01*
X174285500Y-83332000D01*
X174285500Y-83312000D01*
X171889500Y-83312000D01*
X171889500Y-83332000D01*
X171635500Y-83332000D01*
X171635500Y-83312000D01*
X169589500Y-83312000D01*
X169589500Y-83332000D01*
X169335500Y-83332000D01*
X169335500Y-83312000D01*
X166939500Y-83312000D01*
X166939500Y-83332000D01*
X166685500Y-83332000D01*
X166685500Y-83312000D01*
X165436250Y-83312000D01*
X165277500Y-83470750D01*
X165277500Y-83873708D01*
X165150322Y-83565914D01*
X164437837Y-82852184D01*
X163506455Y-82465441D01*
X162497969Y-82464561D01*
X161565914Y-82849678D01*
X161110000Y-83304797D01*
X161110000Y-82460000D01*
X165277500Y-82460000D01*
X165277500Y-82899250D01*
M02*
