G04 #@! TF.FileFunction,Copper,L1,Top,Signal*
%FSLAX46Y46*%
G04 Gerber Fmt 4.6, Leading zero omitted, Abs format (unit mm)*
G04 Created by KiCad (PCBNEW 4.0.2-stable) date 12/13/2016 12:23:09 PM*
%MOMM*%
G01*
G04 APERTURE LIST*
%ADD10C,0.100000*%
%ADD11R,1.727200X2.032000*%
%ADD12O,1.727200X2.032000*%
%ADD13R,0.400000X4.000000*%
%ADD14C,5.400000*%
%ADD15C,0.250000*%
%ADD16C,0.254000*%
G04 APERTURE END LIST*
D10*
D11*
X148501100Y-105003600D03*
D12*
X151041100Y-105003600D03*
X153581100Y-105003600D03*
X156121100Y-105003600D03*
X158661100Y-105003600D03*
X161201100Y-105003600D03*
X163741100Y-105003600D03*
X166281100Y-105003600D03*
X168821100Y-105003600D03*
X171361100Y-105003600D03*
X173901100Y-105003600D03*
X176441100Y-105003600D03*
X178981100Y-105003600D03*
X181521100Y-105003600D03*
X184061100Y-105003600D03*
X186601100Y-105003600D03*
X189141100Y-105003600D03*
X191681100Y-105003600D03*
D13*
X164084000Y-95504000D03*
X164884000Y-95504000D03*
X165684000Y-95504000D03*
X166484000Y-95504000D03*
X167284000Y-95504000D03*
X168084000Y-95504000D03*
X168884000Y-95504000D03*
X169684000Y-95504000D03*
X170484000Y-95504000D03*
X171284000Y-95504000D03*
X172084000Y-95504000D03*
X172884000Y-95504000D03*
X173684000Y-95504000D03*
X174484000Y-95504000D03*
X175284000Y-95504000D03*
X176084000Y-95504000D03*
X176884000Y-95504000D03*
X177684000Y-95504000D03*
D14*
X149606000Y-95504000D03*
X190246000Y-95504000D03*
D15*
X164084000Y-95504000D02*
X158000700Y-95504000D01*
X158000700Y-95504000D02*
X148501100Y-105003600D01*
X164084000Y-95504000D02*
X164084000Y-96266000D01*
X164884000Y-95504000D02*
X164884000Y-98006000D01*
X151041100Y-103466900D02*
X151041100Y-105003600D01*
X151892000Y-102616000D02*
X151041100Y-103466900D01*
X155194000Y-102616000D02*
X151892000Y-102616000D01*
X159004000Y-98806000D02*
X155194000Y-102616000D01*
X164084000Y-98806000D02*
X159004000Y-98806000D01*
X164884000Y-98006000D02*
X164084000Y-98806000D01*
X165684000Y-95504000D02*
X165684000Y-98222000D01*
X154178000Y-103632000D02*
X153581100Y-104228900D01*
X155194000Y-103632000D02*
X154178000Y-103632000D01*
X159004000Y-99822000D02*
X155194000Y-103632000D01*
X164084000Y-99822000D02*
X159004000Y-99822000D01*
X165684000Y-98222000D02*
X164084000Y-99822000D01*
X153581100Y-104228900D02*
X153581100Y-105003600D01*
X166484000Y-95504000D02*
X166484000Y-98438000D01*
X156121100Y-103720900D02*
X156121100Y-105003600D01*
X159258000Y-100584000D02*
X156121100Y-103720900D01*
X164338000Y-100584000D02*
X159258000Y-100584000D01*
X166484000Y-98438000D02*
X164338000Y-100584000D01*
X167284000Y-95504000D02*
X167284000Y-98908000D01*
X158661100Y-102958900D02*
X158661100Y-105003600D01*
X160274000Y-101346000D02*
X158661100Y-102958900D01*
X164846000Y-101346000D02*
X160274000Y-101346000D01*
X167284000Y-98908000D02*
X164846000Y-101346000D01*
X168084000Y-95504000D02*
X168084000Y-99378000D01*
X161201100Y-103212900D02*
X161201100Y-105003600D01*
X162306000Y-102108000D02*
X161201100Y-103212900D01*
X165354000Y-102108000D02*
X162306000Y-102108000D01*
X168084000Y-99378000D02*
X165354000Y-102108000D01*
X168884000Y-95504000D02*
X168884000Y-99594000D01*
X168884000Y-99594000D02*
X163741100Y-104736900D01*
X163741100Y-104736900D02*
X163741100Y-105003600D01*
X169684000Y-95504000D02*
X169684000Y-99810000D01*
X166281100Y-103212900D02*
X166281100Y-105003600D01*
X169684000Y-99810000D02*
X166281100Y-103212900D01*
X170484000Y-95504000D02*
X170484000Y-100534000D01*
X168821100Y-102196900D02*
X168821100Y-105003600D01*
X170484000Y-100534000D02*
X168821100Y-102196900D01*
X171284000Y-95504000D02*
X171284000Y-104926500D01*
X171284000Y-104926500D02*
X171361100Y-105003600D01*
X172084000Y-95504000D02*
X172084000Y-102488000D01*
X172084000Y-102488000D02*
X173901100Y-104305100D01*
X173901100Y-104305100D02*
X173901100Y-105003600D01*
X172884000Y-95504000D02*
X172884000Y-101002000D01*
X172884000Y-101002000D02*
X176441100Y-104559100D01*
X176441100Y-104559100D02*
X176441100Y-105003600D01*
X173684000Y-95504000D02*
X173684000Y-99516000D01*
X173684000Y-99516000D02*
X178981100Y-104813100D01*
X178981100Y-104813100D02*
X178981100Y-105003600D01*
X174484000Y-95504000D02*
X174484000Y-98792000D01*
X181521100Y-103543100D02*
X181521100Y-105003600D01*
X180594000Y-102616000D02*
X181521100Y-103543100D01*
X178308000Y-102616000D02*
X180594000Y-102616000D01*
X174484000Y-98792000D02*
X178308000Y-102616000D01*
X175284000Y-95504000D02*
X175284000Y-98322000D01*
X180911500Y-101854000D02*
X184061100Y-105003600D01*
X178816000Y-101854000D02*
X180911500Y-101854000D01*
X175284000Y-98322000D02*
X178816000Y-101854000D01*
X176084000Y-95504000D02*
X176084000Y-98106000D01*
X184467500Y-102870000D02*
X186601100Y-105003600D01*
X183642000Y-102870000D02*
X184467500Y-102870000D01*
X181864000Y-101092000D02*
X183642000Y-102870000D01*
X179070000Y-101092000D02*
X181864000Y-101092000D01*
X176084000Y-98106000D02*
X179070000Y-101092000D01*
X176884000Y-95504000D02*
X176884000Y-97890000D01*
X184658000Y-100076000D02*
X189141100Y-104559100D01*
X179070000Y-100076000D02*
X184658000Y-100076000D01*
X176884000Y-97890000D02*
X179070000Y-100076000D01*
X189141100Y-104559100D02*
X189141100Y-105003600D01*
X177684000Y-95504000D02*
X177684000Y-96404000D01*
X177684000Y-96404000D02*
X180594000Y-99314000D01*
X180594000Y-99314000D02*
X185420000Y-99314000D01*
X185420000Y-99314000D02*
X188722000Y-102616000D01*
X188722000Y-102616000D02*
X189293500Y-102616000D01*
X189293500Y-102616000D02*
X191681100Y-105003600D01*
D16*
G36*
X188359342Y-92675076D02*
X187420373Y-93612407D01*
X186911580Y-94837717D01*
X186910422Y-96164462D01*
X187417076Y-97390658D01*
X188354407Y-98329627D01*
X189579717Y-98838420D01*
X190906462Y-98839578D01*
X192132658Y-98332924D01*
X193071627Y-97395593D01*
X193346000Y-96734829D01*
X193346000Y-106478000D01*
X192396573Y-106478000D01*
X192740770Y-106248015D01*
X193065626Y-105761834D01*
X193179700Y-105188345D01*
X193179700Y-104818855D01*
X193065626Y-104245366D01*
X192740770Y-103759185D01*
X192254589Y-103434329D01*
X191681100Y-103320255D01*
X191173521Y-103421219D01*
X189830901Y-102078599D01*
X189584339Y-101913852D01*
X189293500Y-101856000D01*
X189036802Y-101856000D01*
X185957401Y-98776599D01*
X185710839Y-98611852D01*
X185420000Y-98554000D01*
X180908802Y-98554000D01*
X178531440Y-96176638D01*
X178531440Y-93504000D01*
X178487162Y-93268683D01*
X178348090Y-93052559D01*
X178135890Y-92907569D01*
X177884000Y-92856560D01*
X177484000Y-92856560D01*
X177276658Y-92895574D01*
X177084000Y-92856560D01*
X176684000Y-92856560D01*
X176476658Y-92895574D01*
X176284000Y-92856560D01*
X175884000Y-92856560D01*
X175676658Y-92895574D01*
X175484000Y-92856560D01*
X175084000Y-92856560D01*
X174876658Y-92895574D01*
X174684000Y-92856560D01*
X174284000Y-92856560D01*
X174076658Y-92895574D01*
X173884000Y-92856560D01*
X173484000Y-92856560D01*
X173276658Y-92895574D01*
X173084000Y-92856560D01*
X172684000Y-92856560D01*
X172476658Y-92895574D01*
X172284000Y-92856560D01*
X171884000Y-92856560D01*
X171676658Y-92895574D01*
X171484000Y-92856560D01*
X171084000Y-92856560D01*
X170876658Y-92895574D01*
X170684000Y-92856560D01*
X170284000Y-92856560D01*
X170076658Y-92895574D01*
X169884000Y-92856560D01*
X169484000Y-92856560D01*
X169276658Y-92895574D01*
X169084000Y-92856560D01*
X168684000Y-92856560D01*
X168476658Y-92895574D01*
X168284000Y-92856560D01*
X167884000Y-92856560D01*
X167676658Y-92895574D01*
X167484000Y-92856560D01*
X167084000Y-92856560D01*
X166876658Y-92895574D01*
X166684000Y-92856560D01*
X166284000Y-92856560D01*
X166076658Y-92895574D01*
X165884000Y-92856560D01*
X165484000Y-92856560D01*
X165276658Y-92895574D01*
X165084000Y-92856560D01*
X164684000Y-92856560D01*
X164475150Y-92895858D01*
X164410309Y-92869000D01*
X164342750Y-92869000D01*
X164184000Y-93027750D01*
X164184000Y-93110978D01*
X164087569Y-93252110D01*
X164036560Y-93504000D01*
X164036560Y-95651000D01*
X163984000Y-95651000D01*
X163984000Y-95631000D01*
X163407750Y-95631000D01*
X163249000Y-95789750D01*
X163249000Y-97630310D01*
X163345673Y-97863699D01*
X163524302Y-98042327D01*
X163533169Y-98046000D01*
X159004000Y-98046000D01*
X158713161Y-98103852D01*
X158466599Y-98268599D01*
X154879198Y-101856000D01*
X151892000Y-101856000D01*
X151601160Y-101913852D01*
X151354599Y-102078599D01*
X150503699Y-102929499D01*
X150338952Y-103176061D01*
X150281100Y-103466900D01*
X150281100Y-103558952D01*
X149981430Y-103759185D01*
X149966600Y-103781380D01*
X149903027Y-103627901D01*
X149724398Y-103449273D01*
X149491009Y-103352600D01*
X148786850Y-103352600D01*
X148628100Y-103511350D01*
X148628100Y-104876600D01*
X148648100Y-104876600D01*
X148648100Y-105130600D01*
X148628100Y-105130600D01*
X148628100Y-105150600D01*
X148374100Y-105150600D01*
X148374100Y-105130600D01*
X147161250Y-105130600D01*
X147002500Y-105289350D01*
X147002500Y-106145910D01*
X147099173Y-106379299D01*
X147197875Y-106478000D01*
X146506000Y-106478000D01*
X146506000Y-103861290D01*
X147002500Y-103861290D01*
X147002500Y-104717850D01*
X147161250Y-104876600D01*
X148374100Y-104876600D01*
X148374100Y-103511350D01*
X148215350Y-103352600D01*
X147511191Y-103352600D01*
X147277802Y-103449273D01*
X147099173Y-103627901D01*
X147002500Y-103861290D01*
X146506000Y-103861290D01*
X146506000Y-96734604D01*
X146777076Y-97390658D01*
X147714407Y-98329627D01*
X148939717Y-98838420D01*
X150266462Y-98839578D01*
X151492658Y-98332924D01*
X152431627Y-97395593D01*
X152940420Y-96170283D01*
X152941578Y-94843538D01*
X152434924Y-93617342D01*
X152195691Y-93377690D01*
X163249000Y-93377690D01*
X163249000Y-95218250D01*
X163407750Y-95377000D01*
X163984000Y-95377000D01*
X163984000Y-93027750D01*
X163825250Y-92869000D01*
X163757691Y-92869000D01*
X163524302Y-92965673D01*
X163345673Y-93144301D01*
X163249000Y-93377690D01*
X152195691Y-93377690D01*
X151497593Y-92678373D01*
X151448529Y-92658000D01*
X188400669Y-92658000D01*
X188359342Y-92675076D01*
X188359342Y-92675076D01*
G37*
X188359342Y-92675076D02*
X187420373Y-93612407D01*
X186911580Y-94837717D01*
X186910422Y-96164462D01*
X187417076Y-97390658D01*
X188354407Y-98329627D01*
X189579717Y-98838420D01*
X190906462Y-98839578D01*
X192132658Y-98332924D01*
X193071627Y-97395593D01*
X193346000Y-96734829D01*
X193346000Y-106478000D01*
X192396573Y-106478000D01*
X192740770Y-106248015D01*
X193065626Y-105761834D01*
X193179700Y-105188345D01*
X193179700Y-104818855D01*
X193065626Y-104245366D01*
X192740770Y-103759185D01*
X192254589Y-103434329D01*
X191681100Y-103320255D01*
X191173521Y-103421219D01*
X189830901Y-102078599D01*
X189584339Y-101913852D01*
X189293500Y-101856000D01*
X189036802Y-101856000D01*
X185957401Y-98776599D01*
X185710839Y-98611852D01*
X185420000Y-98554000D01*
X180908802Y-98554000D01*
X178531440Y-96176638D01*
X178531440Y-93504000D01*
X178487162Y-93268683D01*
X178348090Y-93052559D01*
X178135890Y-92907569D01*
X177884000Y-92856560D01*
X177484000Y-92856560D01*
X177276658Y-92895574D01*
X177084000Y-92856560D01*
X176684000Y-92856560D01*
X176476658Y-92895574D01*
X176284000Y-92856560D01*
X175884000Y-92856560D01*
X175676658Y-92895574D01*
X175484000Y-92856560D01*
X175084000Y-92856560D01*
X174876658Y-92895574D01*
X174684000Y-92856560D01*
X174284000Y-92856560D01*
X174076658Y-92895574D01*
X173884000Y-92856560D01*
X173484000Y-92856560D01*
X173276658Y-92895574D01*
X173084000Y-92856560D01*
X172684000Y-92856560D01*
X172476658Y-92895574D01*
X172284000Y-92856560D01*
X171884000Y-92856560D01*
X171676658Y-92895574D01*
X171484000Y-92856560D01*
X171084000Y-92856560D01*
X170876658Y-92895574D01*
X170684000Y-92856560D01*
X170284000Y-92856560D01*
X170076658Y-92895574D01*
X169884000Y-92856560D01*
X169484000Y-92856560D01*
X169276658Y-92895574D01*
X169084000Y-92856560D01*
X168684000Y-92856560D01*
X168476658Y-92895574D01*
X168284000Y-92856560D01*
X167884000Y-92856560D01*
X167676658Y-92895574D01*
X167484000Y-92856560D01*
X167084000Y-92856560D01*
X166876658Y-92895574D01*
X166684000Y-92856560D01*
X166284000Y-92856560D01*
X166076658Y-92895574D01*
X165884000Y-92856560D01*
X165484000Y-92856560D01*
X165276658Y-92895574D01*
X165084000Y-92856560D01*
X164684000Y-92856560D01*
X164475150Y-92895858D01*
X164410309Y-92869000D01*
X164342750Y-92869000D01*
X164184000Y-93027750D01*
X164184000Y-93110978D01*
X164087569Y-93252110D01*
X164036560Y-93504000D01*
X164036560Y-95651000D01*
X163984000Y-95651000D01*
X163984000Y-95631000D01*
X163407750Y-95631000D01*
X163249000Y-95789750D01*
X163249000Y-97630310D01*
X163345673Y-97863699D01*
X163524302Y-98042327D01*
X163533169Y-98046000D01*
X159004000Y-98046000D01*
X158713161Y-98103852D01*
X158466599Y-98268599D01*
X154879198Y-101856000D01*
X151892000Y-101856000D01*
X151601160Y-101913852D01*
X151354599Y-102078599D01*
X150503699Y-102929499D01*
X150338952Y-103176061D01*
X150281100Y-103466900D01*
X150281100Y-103558952D01*
X149981430Y-103759185D01*
X149966600Y-103781380D01*
X149903027Y-103627901D01*
X149724398Y-103449273D01*
X149491009Y-103352600D01*
X148786850Y-103352600D01*
X148628100Y-103511350D01*
X148628100Y-104876600D01*
X148648100Y-104876600D01*
X148648100Y-105130600D01*
X148628100Y-105130600D01*
X148628100Y-105150600D01*
X148374100Y-105150600D01*
X148374100Y-105130600D01*
X147161250Y-105130600D01*
X147002500Y-105289350D01*
X147002500Y-106145910D01*
X147099173Y-106379299D01*
X147197875Y-106478000D01*
X146506000Y-106478000D01*
X146506000Y-103861290D01*
X147002500Y-103861290D01*
X147002500Y-104717850D01*
X147161250Y-104876600D01*
X148374100Y-104876600D01*
X148374100Y-103511350D01*
X148215350Y-103352600D01*
X147511191Y-103352600D01*
X147277802Y-103449273D01*
X147099173Y-103627901D01*
X147002500Y-103861290D01*
X146506000Y-103861290D01*
X146506000Y-96734604D01*
X146777076Y-97390658D01*
X147714407Y-98329627D01*
X148939717Y-98838420D01*
X150266462Y-98839578D01*
X151492658Y-98332924D01*
X152431627Y-97395593D01*
X152940420Y-96170283D01*
X152941578Y-94843538D01*
X152434924Y-93617342D01*
X152195691Y-93377690D01*
X163249000Y-93377690D01*
X163249000Y-95218250D01*
X163407750Y-95377000D01*
X163984000Y-95377000D01*
X163984000Y-93027750D01*
X163825250Y-92869000D01*
X163757691Y-92869000D01*
X163524302Y-92965673D01*
X163345673Y-93144301D01*
X163249000Y-93377690D01*
X152195691Y-93377690D01*
X151497593Y-92678373D01*
X151448529Y-92658000D01*
X188400669Y-92658000D01*
X188359342Y-92675076D01*
M02*
