G04 #@! TF.FileFunction,Legend,Bot*
%FSLAX46Y46*%
G04 Gerber Fmt 4.6, Leading zero omitted, Abs format (unit mm)*
G04 Created by KiCad (PCBNEW 4.0.2-stable) date 12/13/2016 12:23:09 PM*
%MOMM*%
G01*
G04 APERTURE LIST*
%ADD10C,0.100000*%
%ADD11C,0.300000*%
G04 APERTURE END LIST*
D10*
D11*
X179870571Y-99508571D02*
X179013428Y-99508571D01*
X179441999Y-101008571D02*
X179441999Y-99508571D01*
X178656285Y-100008571D02*
X178299142Y-101008571D01*
X177942000Y-100008571D02*
X178299142Y-101008571D01*
X178442000Y-101365714D01*
X178513428Y-101437143D01*
X178656285Y-101508571D01*
X177370571Y-101008571D02*
X177370571Y-100008571D01*
X177370571Y-100294286D02*
X177299143Y-100151429D01*
X177227714Y-100080000D01*
X177084857Y-100008571D01*
X176942000Y-100008571D01*
X176227714Y-101008571D02*
X176370572Y-100937143D01*
X176442000Y-100865714D01*
X176513429Y-100722857D01*
X176513429Y-100294286D01*
X176442000Y-100151429D01*
X176370572Y-100080000D01*
X176227714Y-100008571D01*
X176013429Y-100008571D01*
X175870572Y-100080000D01*
X175799143Y-100151429D01*
X175727714Y-100294286D01*
X175727714Y-100722857D01*
X175799143Y-100865714D01*
X175870572Y-100937143D01*
X176013429Y-101008571D01*
X176227714Y-101008571D01*
X173942000Y-100222857D02*
X173442000Y-100222857D01*
X173227714Y-101008571D02*
X173942000Y-101008571D01*
X173942000Y-99508571D01*
X173227714Y-99508571D01*
X172370571Y-101008571D02*
X172513429Y-100937143D01*
X172584857Y-100794286D01*
X172584857Y-99508571D01*
X171227715Y-100937143D02*
X171370572Y-101008571D01*
X171656286Y-101008571D01*
X171799143Y-100937143D01*
X171870572Y-100794286D01*
X171870572Y-100222857D01*
X171799143Y-100080000D01*
X171656286Y-100008571D01*
X171370572Y-100008571D01*
X171227715Y-100080000D01*
X171156286Y-100222857D01*
X171156286Y-100365714D01*
X171870572Y-100508571D01*
X169870572Y-100937143D02*
X170013429Y-101008571D01*
X170299143Y-101008571D01*
X170442001Y-100937143D01*
X170513429Y-100865714D01*
X170584858Y-100722857D01*
X170584858Y-100294286D01*
X170513429Y-100151429D01*
X170442001Y-100080000D01*
X170299143Y-100008571D01*
X170013429Y-100008571D01*
X169870572Y-100080000D01*
X169442001Y-100008571D02*
X168870572Y-100008571D01*
X169227715Y-99508571D02*
X169227715Y-100794286D01*
X169156287Y-100937143D01*
X169013429Y-101008571D01*
X168870572Y-101008571D01*
X168370572Y-101008571D02*
X168370572Y-100008571D01*
X168370572Y-100294286D02*
X168299144Y-100151429D01*
X168227715Y-100080000D01*
X168084858Y-100008571D01*
X167942001Y-100008571D01*
X167227715Y-101008571D02*
X167370573Y-100937143D01*
X167442001Y-100865714D01*
X167513430Y-100722857D01*
X167513430Y-100294286D01*
X167442001Y-100151429D01*
X167370573Y-100080000D01*
X167227715Y-100008571D01*
X167013430Y-100008571D01*
X166870573Y-100080000D01*
X166799144Y-100151429D01*
X166727715Y-100294286D01*
X166727715Y-100722857D01*
X166799144Y-100865714D01*
X166870573Y-100937143D01*
X167013430Y-101008571D01*
X167227715Y-101008571D01*
X166084858Y-100008571D02*
X166084858Y-101008571D01*
X166084858Y-100151429D02*
X166013430Y-100080000D01*
X165870572Y-100008571D01*
X165656287Y-100008571D01*
X165513430Y-100080000D01*
X165442001Y-100222857D01*
X165442001Y-101008571D01*
X164727715Y-101008571D02*
X164727715Y-100008571D01*
X164727715Y-99508571D02*
X164799144Y-99580000D01*
X164727715Y-99651429D01*
X164656287Y-99580000D01*
X164727715Y-99508571D01*
X164727715Y-99651429D01*
X163370572Y-100937143D02*
X163513429Y-101008571D01*
X163799143Y-101008571D01*
X163942001Y-100937143D01*
X164013429Y-100865714D01*
X164084858Y-100722857D01*
X164084858Y-100294286D01*
X164013429Y-100151429D01*
X163942001Y-100080000D01*
X163799143Y-100008571D01*
X163513429Y-100008571D01*
X163370572Y-100080000D01*
X162799144Y-100937143D02*
X162656287Y-101008571D01*
X162370572Y-101008571D01*
X162227715Y-100937143D01*
X162156287Y-100794286D01*
X162156287Y-100722857D01*
X162227715Y-100580000D01*
X162370572Y-100508571D01*
X162584858Y-100508571D01*
X162727715Y-100437143D01*
X162799144Y-100294286D01*
X162799144Y-100222857D01*
X162727715Y-100080000D01*
X162584858Y-100008571D01*
X162370572Y-100008571D01*
X162227715Y-100080000D01*
M02*
