G04 #@! TF.FileFunction,Legend,Top*
%FSLAX46Y46*%
G04 Gerber Fmt 4.6, Leading zero omitted, Abs format (unit mm)*
G04 Created by KiCad (PCBNEW 4.0.2-stable) date 12/13/2016 12:23:09 PM*
%MOMM*%
G01*
G04 APERTURE LIST*
%ADD10C,0.100000*%
%ADD11C,0.300000*%
%ADD12C,0.150000*%
G04 APERTURE END LIST*
D10*
D11*
X191988286Y-102350000D02*
X192702571Y-102350000D01*
X191202571Y-102850000D02*
X191988286Y-102350000D01*
X191202571Y-101850000D01*
X192702571Y-101350000D02*
X191202571Y-101350000D01*
X191202571Y-100992857D01*
X191274000Y-100778572D01*
X191416857Y-100635714D01*
X191559714Y-100564286D01*
X191845429Y-100492857D01*
X192059714Y-100492857D01*
X192345429Y-100564286D01*
X192488286Y-100635714D01*
X192631143Y-100778572D01*
X192702571Y-100992857D01*
X192702571Y-101350000D01*
X188408571Y-102849999D02*
X189908571Y-101849999D01*
X188408571Y-101849999D02*
X189908571Y-102849999D01*
X189908571Y-100421428D02*
X189194286Y-100921428D01*
X189908571Y-101278571D02*
X188408571Y-101278571D01*
X188408571Y-100707143D01*
X188480000Y-100564285D01*
X188551429Y-100492857D01*
X188694286Y-100421428D01*
X188908571Y-100421428D01*
X189051429Y-100492857D01*
X189122857Y-100564285D01*
X189194286Y-100707143D01*
X189194286Y-101278571D01*
X186654286Y-102385714D02*
X187368571Y-102385714D01*
X185868571Y-102885714D02*
X186654286Y-102385714D01*
X185868571Y-101885714D01*
X185868571Y-101385714D02*
X187082857Y-101385714D01*
X187225714Y-101314286D01*
X187297143Y-101242857D01*
X187368571Y-101100000D01*
X187368571Y-100814286D01*
X187297143Y-100671428D01*
X187225714Y-100600000D01*
X187082857Y-100528571D01*
X185868571Y-100528571D01*
X183328571Y-102961142D02*
X184828571Y-101961142D01*
X183328571Y-101961142D02*
X184828571Y-102961142D01*
X184828571Y-100675428D02*
X184828571Y-101389714D01*
X183328571Y-101389714D01*
X182288571Y-102961142D02*
X180788571Y-102961142D01*
X182288571Y-102103999D02*
X181431429Y-102746856D01*
X180788571Y-102103999D02*
X181645714Y-102961142D01*
X181288571Y-100818285D02*
X182288571Y-100818285D01*
X180717143Y-101175428D02*
X181788571Y-101532571D01*
X181788571Y-100603999D01*
X179748571Y-102961142D02*
X178248571Y-102961142D01*
X179748571Y-102103999D02*
X178891429Y-102746856D01*
X178248571Y-102103999D02*
X179105714Y-102961142D01*
X178248571Y-101603999D02*
X178248571Y-100675428D01*
X178820000Y-101175428D01*
X178820000Y-100961142D01*
X178891429Y-100818285D01*
X178962857Y-100746856D01*
X179105714Y-100675428D01*
X179462857Y-100675428D01*
X179605714Y-100746856D01*
X179677143Y-100818285D01*
X179748571Y-100961142D01*
X179748571Y-101389714D01*
X179677143Y-101532571D01*
X179605714Y-101603999D01*
X177208571Y-102961142D02*
X175708571Y-102961142D01*
X177208571Y-102103999D02*
X176351429Y-102746856D01*
X175708571Y-102103999D02*
X176565714Y-102961142D01*
X175851429Y-101532571D02*
X175780000Y-101461142D01*
X175708571Y-101318285D01*
X175708571Y-100961142D01*
X175780000Y-100818285D01*
X175851429Y-100746856D01*
X175994286Y-100675428D01*
X176137143Y-100675428D01*
X176351429Y-100746856D01*
X177208571Y-101603999D01*
X177208571Y-100675428D01*
X174668571Y-102961142D02*
X173168571Y-102961142D01*
X174668571Y-102103999D02*
X173811429Y-102746856D01*
X173168571Y-102103999D02*
X174025714Y-102961142D01*
X174668571Y-100675428D02*
X174668571Y-101532571D01*
X174668571Y-101103999D02*
X173168571Y-101103999D01*
X173382857Y-101246856D01*
X173525714Y-101389714D01*
X173597143Y-101532571D01*
X171700000Y-102719143D02*
X171700000Y-102004857D01*
X172128571Y-102862000D02*
X170628571Y-102362000D01*
X172128571Y-101862000D01*
X168342571Y-103092000D02*
X169842571Y-102592000D01*
X168342571Y-102092000D01*
X169699714Y-100734857D02*
X169771143Y-100806286D01*
X169842571Y-101020572D01*
X169842571Y-101163429D01*
X169771143Y-101377714D01*
X169628286Y-101520572D01*
X169485429Y-101592000D01*
X169199714Y-101663429D01*
X168985429Y-101663429D01*
X168699714Y-101592000D01*
X168556857Y-101520572D01*
X168414000Y-101377714D01*
X168342571Y-101163429D01*
X168342571Y-101020572D01*
X168414000Y-100806286D01*
X168485429Y-100734857D01*
X169699714Y-99234857D02*
X169771143Y-99306286D01*
X169842571Y-99520572D01*
X169842571Y-99663429D01*
X169771143Y-99877714D01*
X169628286Y-100020572D01*
X169485429Y-100092000D01*
X169199714Y-100163429D01*
X168985429Y-100163429D01*
X168699714Y-100092000D01*
X168556857Y-100020572D01*
X168414000Y-99877714D01*
X168342571Y-99663429D01*
X168342571Y-99520572D01*
X168414000Y-99306286D01*
X168485429Y-99234857D01*
X165620000Y-102234857D02*
X165548571Y-102377714D01*
X165548571Y-102592000D01*
X165620000Y-102806285D01*
X165762857Y-102949143D01*
X165905714Y-103020571D01*
X166191429Y-103092000D01*
X166405714Y-103092000D01*
X166691429Y-103020571D01*
X166834286Y-102949143D01*
X166977143Y-102806285D01*
X167048571Y-102592000D01*
X167048571Y-102449143D01*
X166977143Y-102234857D01*
X166905714Y-102163428D01*
X166405714Y-102163428D01*
X166405714Y-102449143D01*
X167048571Y-101520571D02*
X165548571Y-101520571D01*
X167048571Y-100663428D01*
X165548571Y-100663428D01*
X167048571Y-99949142D02*
X165548571Y-99949142D01*
X165548571Y-99591999D01*
X165620000Y-99377714D01*
X165762857Y-99234856D01*
X165905714Y-99163428D01*
X166191429Y-99091999D01*
X166405714Y-99091999D01*
X166691429Y-99163428D01*
X166834286Y-99234856D01*
X166977143Y-99377714D01*
X167048571Y-99591999D01*
X167048571Y-99949142D01*
X164437143Y-103056286D02*
X164508571Y-102842000D01*
X164508571Y-102484857D01*
X164437143Y-102342000D01*
X164365714Y-102270571D01*
X164222857Y-102199143D01*
X164080000Y-102199143D01*
X163937143Y-102270571D01*
X163865714Y-102342000D01*
X163794286Y-102484857D01*
X163722857Y-102770571D01*
X163651429Y-102913429D01*
X163580000Y-102984857D01*
X163437143Y-103056286D01*
X163294286Y-103056286D01*
X163151429Y-102984857D01*
X163080000Y-102913429D01*
X163008571Y-102770571D01*
X163008571Y-102413429D01*
X163080000Y-102199143D01*
X164508571Y-101556286D02*
X163008571Y-101556286D01*
X163008571Y-101199143D01*
X163080000Y-100984858D01*
X163222857Y-100842000D01*
X163365714Y-100770572D01*
X163651429Y-100699143D01*
X163865714Y-100699143D01*
X164151429Y-100770572D01*
X164294286Y-100842000D01*
X164437143Y-100984858D01*
X164508571Y-101199143D01*
X164508571Y-101556286D01*
X163008571Y-99770572D02*
X163008571Y-99484858D01*
X163080000Y-99342000D01*
X163222857Y-99199143D01*
X163508571Y-99127715D01*
X164008571Y-99127715D01*
X164294286Y-99199143D01*
X164437143Y-99342000D01*
X164508571Y-99484858D01*
X164508571Y-99770572D01*
X164437143Y-99913429D01*
X164294286Y-100056286D01*
X164008571Y-100127715D01*
X163508571Y-100127715D01*
X163222857Y-100056286D01*
X163080000Y-99913429D01*
X163008571Y-99770572D01*
X161897143Y-102913428D02*
X161968571Y-102699142D01*
X161968571Y-102341999D01*
X161897143Y-102199142D01*
X161825714Y-102127713D01*
X161682857Y-102056285D01*
X161540000Y-102056285D01*
X161397143Y-102127713D01*
X161325714Y-102199142D01*
X161254286Y-102341999D01*
X161182857Y-102627713D01*
X161111429Y-102770571D01*
X161040000Y-102841999D01*
X160897143Y-102913428D01*
X160754286Y-102913428D01*
X160611429Y-102841999D01*
X160540000Y-102770571D01*
X160468571Y-102627713D01*
X160468571Y-102270571D01*
X160540000Y-102056285D01*
X161968571Y-101413428D02*
X160468571Y-101413428D01*
X160468571Y-101056285D01*
X160540000Y-100842000D01*
X160682857Y-100699142D01*
X160825714Y-100627714D01*
X161111429Y-100556285D01*
X161325714Y-100556285D01*
X161611429Y-100627714D01*
X161754286Y-100699142D01*
X161897143Y-100842000D01*
X161968571Y-101056285D01*
X161968571Y-101413428D01*
X161540000Y-99984857D02*
X161540000Y-99270571D01*
X161968571Y-100127714D02*
X160468571Y-99627714D01*
X161968571Y-99127714D01*
X159285714Y-102103999D02*
X159357143Y-102175428D01*
X159428571Y-102389714D01*
X159428571Y-102532571D01*
X159357143Y-102746856D01*
X159214286Y-102889714D01*
X159071429Y-102961142D01*
X158785714Y-103032571D01*
X158571429Y-103032571D01*
X158285714Y-102961142D01*
X158142857Y-102889714D01*
X158000000Y-102746856D01*
X157928571Y-102532571D01*
X157928571Y-102389714D01*
X158000000Y-102175428D01*
X158071429Y-102103999D01*
X159357143Y-101532571D02*
X159428571Y-101318285D01*
X159428571Y-100961142D01*
X159357143Y-100818285D01*
X159285714Y-100746856D01*
X159142857Y-100675428D01*
X159000000Y-100675428D01*
X158857143Y-100746856D01*
X158785714Y-100818285D01*
X158714286Y-100961142D01*
X158642857Y-101246856D01*
X158571429Y-101389714D01*
X158500000Y-101461142D01*
X158357143Y-101532571D01*
X158214286Y-101532571D01*
X158071429Y-101461142D01*
X158000000Y-101389714D01*
X157928571Y-101246856D01*
X157928571Y-100889714D01*
X158000000Y-100675428D01*
X156888571Y-102103999D02*
X156174286Y-102603999D01*
X156888571Y-102961142D02*
X155388571Y-102961142D01*
X155388571Y-102389714D01*
X155460000Y-102246856D01*
X155531429Y-102175428D01*
X155674286Y-102103999D01*
X155888571Y-102103999D01*
X156031429Y-102175428D01*
X156102857Y-102246856D01*
X156174286Y-102389714D01*
X156174286Y-102961142D01*
X156817143Y-101532571D02*
X156888571Y-101318285D01*
X156888571Y-100961142D01*
X156817143Y-100818285D01*
X156745714Y-100746856D01*
X156602857Y-100675428D01*
X156460000Y-100675428D01*
X156317143Y-100746856D01*
X156245714Y-100818285D01*
X156174286Y-100961142D01*
X156102857Y-101246856D01*
X156031429Y-101389714D01*
X155960000Y-101461142D01*
X155817143Y-101532571D01*
X155674286Y-101532571D01*
X155531429Y-101461142D01*
X155460000Y-101389714D01*
X155388571Y-101246856D01*
X155388571Y-100889714D01*
X155460000Y-100675428D01*
X154277143Y-102877714D02*
X154348571Y-102663428D01*
X154348571Y-102306285D01*
X154277143Y-102163428D01*
X154205714Y-102091999D01*
X154062857Y-102020571D01*
X153920000Y-102020571D01*
X153777143Y-102091999D01*
X153705714Y-102163428D01*
X153634286Y-102306285D01*
X153562857Y-102591999D01*
X153491429Y-102734857D01*
X153420000Y-102806285D01*
X153277143Y-102877714D01*
X153134286Y-102877714D01*
X152991429Y-102806285D01*
X152920000Y-102734857D01*
X152848571Y-102591999D01*
X152848571Y-102234857D01*
X152920000Y-102020571D01*
X154205714Y-100520571D02*
X154277143Y-100592000D01*
X154348571Y-100806286D01*
X154348571Y-100949143D01*
X154277143Y-101163428D01*
X154134286Y-101306286D01*
X153991429Y-101377714D01*
X153705714Y-101449143D01*
X153491429Y-101449143D01*
X153205714Y-101377714D01*
X153062857Y-101306286D01*
X152920000Y-101163428D01*
X152848571Y-100949143D01*
X152848571Y-100806286D01*
X152920000Y-100592000D01*
X152991429Y-100520571D01*
X154348571Y-99163428D02*
X154348571Y-99877714D01*
X152848571Y-99877714D01*
X151808571Y-101913428D02*
X151094286Y-102413428D01*
X151808571Y-102770571D02*
X150308571Y-102770571D01*
X150308571Y-102199143D01*
X150380000Y-102056285D01*
X150451429Y-101984857D01*
X150594286Y-101913428D01*
X150808571Y-101913428D01*
X150951429Y-101984857D01*
X151022857Y-102056285D01*
X151094286Y-102199143D01*
X151094286Y-102770571D01*
X151737143Y-101342000D02*
X151808571Y-101127714D01*
X151808571Y-100770571D01*
X151737143Y-100627714D01*
X151665714Y-100556285D01*
X151522857Y-100484857D01*
X151380000Y-100484857D01*
X151237143Y-100556285D01*
X151165714Y-100627714D01*
X151094286Y-100770571D01*
X151022857Y-101056285D01*
X150951429Y-101199143D01*
X150880000Y-101270571D01*
X150737143Y-101342000D01*
X150594286Y-101342000D01*
X150451429Y-101270571D01*
X150380000Y-101199143D01*
X150308571Y-101056285D01*
X150308571Y-100699143D01*
X150380000Y-100484857D01*
X150308571Y-100056286D02*
X150308571Y-99199143D01*
X151808571Y-99627714D02*
X150308571Y-99627714D01*
X147840000Y-102234857D02*
X147768571Y-102377714D01*
X147768571Y-102592000D01*
X147840000Y-102806285D01*
X147982857Y-102949143D01*
X148125714Y-103020571D01*
X148411429Y-103092000D01*
X148625714Y-103092000D01*
X148911429Y-103020571D01*
X149054286Y-102949143D01*
X149197143Y-102806285D01*
X149268571Y-102592000D01*
X149268571Y-102449143D01*
X149197143Y-102234857D01*
X149125714Y-102163428D01*
X148625714Y-102163428D01*
X148625714Y-102449143D01*
X149268571Y-101520571D02*
X147768571Y-101520571D01*
X149268571Y-100663428D01*
X147768571Y-100663428D01*
X149268571Y-99949142D02*
X147768571Y-99949142D01*
X147768571Y-99591999D01*
X147840000Y-99377714D01*
X147982857Y-99234856D01*
X148125714Y-99163428D01*
X148411429Y-99091999D01*
X148625714Y-99091999D01*
X148911429Y-99163428D01*
X149054286Y-99234856D01*
X149197143Y-99377714D01*
X149268571Y-99591999D01*
X149268571Y-99949142D01*
D12*
X149771100Y-106273600D02*
X192951100Y-106273600D01*
X192951100Y-106273600D02*
X192951100Y-103733600D01*
X192951100Y-103733600D02*
X149771100Y-103733600D01*
X146951100Y-106553600D02*
X148501100Y-106553600D01*
X149771100Y-106273600D02*
X149771100Y-103733600D01*
X148501100Y-103453600D02*
X146951100Y-103453600D01*
X146951100Y-103453600D02*
X146951100Y-106553600D01*
M02*
