M48
INCH,TZ
T1C0.040
T2C0.106
%
G90
G05
T1
X58465Y-41340
X59465Y-41340
X60465Y-41340
X61465Y-41340
X62465Y-41340
X63465Y-41340
X64465Y-41340
X65465Y-41340
X66465Y-41340
X67465Y-41340
X68465Y-41340
X69465Y-41340
X70465Y-41340
X71465Y-41340
X72465Y-41340
X73465Y-41340
X74465Y-41340
X75465Y-41340
T2
X58900Y-37600
X74900Y-37600
T0
M30
