G04 #@! TF.FileFunction,Copper,L2,Bot,Signal*
%FSLAX46Y46*%
G04 Gerber Fmt 4.6, Leading zero omitted, Abs format (unit mm)*
G04 Created by KiCad (PCBNEW 4.0.1-stable) date 2/22/2016 4:26:43 PM*
%MOMM*%
G01*
G04 APERTURE LIST*
%ADD10C,0.100000*%
%ADD11R,1.900000X2.000000*%
%ADD12C,1.900000*%
%ADD13R,2.235200X2.235200*%
%ADD14R,2.032000X2.032000*%
%ADD15O,2.032000X2.032000*%
%ADD16R,1.727200X2.032000*%
%ADD17O,1.727200X2.032000*%
%ADD18C,0.600000*%
%ADD19C,0.250000*%
%ADD20C,0.254000*%
G04 APERTURE END LIST*
D10*
D11*
X73900000Y-106500000D03*
D12*
X76440000Y-106500000D03*
D11*
X91900000Y-106500000D03*
D12*
X94440000Y-106500000D03*
D11*
X73900000Y-88500000D03*
D12*
X76440000Y-88500000D03*
D11*
X108900000Y-88500000D03*
D12*
X111440000Y-88500000D03*
D11*
X108900000Y-106500000D03*
D12*
X111440000Y-106500000D03*
D11*
X108900000Y-125500000D03*
D12*
X111440000Y-125500000D03*
D11*
X73900000Y-125500000D03*
D12*
X76440000Y-125500000D03*
D13*
X81900000Y-97000000D03*
D11*
X91900000Y-125500000D03*
D12*
X94440000Y-125500000D03*
D14*
X70300000Y-107900000D03*
D15*
X70300000Y-105360000D03*
D16*
X90400000Y-84000000D03*
D17*
X92940000Y-84000000D03*
X95480000Y-84000000D03*
D18*
X94800000Y-88700000D03*
X94000000Y-91100000D03*
X88100000Y-84000000D03*
X89800000Y-87600000D03*
X81900000Y-86400000D03*
X91300000Y-94500000D03*
X94400000Y-93000000D03*
X112400000Y-96200000D03*
X79700000Y-129300000D03*
X97000000Y-129400000D03*
X75400000Y-112800000D03*
X81700000Y-111400000D03*
X111400000Y-112700000D03*
X99200000Y-111800000D03*
X96700000Y-114000000D03*
X106200000Y-110400000D03*
X84600000Y-106400000D03*
X83400000Y-107400000D03*
X79200000Y-111500000D03*
X95300000Y-121500000D03*
X93600000Y-121500000D03*
X79200000Y-105500000D03*
X78400000Y-108100000D03*
X85400000Y-105200000D03*
X97600000Y-124200000D03*
X95400000Y-120600000D03*
X97200000Y-119000000D03*
X102800000Y-113300000D03*
X100900000Y-127900000D03*
X101900000Y-90000000D03*
X103900000Y-92000000D03*
X98600000Y-115800000D03*
X101300000Y-113200000D03*
X102600000Y-101400000D03*
X102600000Y-96600000D03*
X90300000Y-102300000D03*
X94000000Y-102200000D03*
X80600000Y-100900000D03*
X82800000Y-100900000D03*
X88600000Y-100800000D03*
X93600000Y-100800000D03*
X96400000Y-127200000D03*
X83300000Y-123000000D03*
X95400000Y-123000000D03*
X89000000Y-123000000D03*
X91100000Y-111300000D03*
X92600000Y-111300000D03*
X96500000Y-105800000D03*
X97600000Y-104000000D03*
D19*
X94800000Y-90300000D02*
X94800000Y-88700000D01*
X94000000Y-91100000D02*
X94800000Y-90300000D01*
X70300000Y-105360000D02*
X70300000Y-103900000D01*
X70300000Y-103900000D02*
X69600000Y-103200000D01*
X106200000Y-110400000D02*
X89600000Y-110400000D01*
X89600000Y-110400000D02*
X85600000Y-106400000D01*
X85600000Y-106400000D02*
X84600000Y-106400000D01*
X83400000Y-107400000D02*
X80500000Y-104500000D01*
X80500000Y-104500000D02*
X75900000Y-104500000D01*
X75900000Y-104500000D02*
X73900000Y-106500000D01*
X76440000Y-108740000D02*
X76440000Y-106500000D01*
X79200000Y-111500000D02*
X76440000Y-108740000D01*
X93600000Y-121500000D02*
X95300000Y-121500000D01*
X79200000Y-105600000D02*
X79200000Y-105500000D01*
X78400000Y-106400000D02*
X79200000Y-105600000D01*
X78400000Y-108100000D02*
X78400000Y-106400000D01*
X93500000Y-104700000D02*
X94440000Y-105640000D01*
X85900000Y-104700000D02*
X93500000Y-104700000D01*
X85400000Y-105200000D02*
X85900000Y-104700000D01*
X94440000Y-105640000D02*
X94440000Y-106500000D01*
X111440000Y-125500000D02*
X111440000Y-126960000D01*
X70900000Y-91500000D02*
X73900000Y-88500000D01*
X70900000Y-129200000D02*
X70900000Y-91500000D01*
X72900000Y-131200000D02*
X70900000Y-129200000D01*
X107200000Y-131200000D02*
X72900000Y-131200000D01*
X111440000Y-126960000D02*
X107200000Y-131200000D01*
X76440000Y-99540000D02*
X76440000Y-88500000D01*
X96400000Y-119500000D02*
X76440000Y-99540000D01*
X96400000Y-123000000D02*
X96400000Y-119500000D01*
X97600000Y-124200000D02*
X96400000Y-123000000D01*
X81140000Y-120800000D02*
X76440000Y-125500000D01*
X95200000Y-120800000D02*
X81140000Y-120800000D01*
X95400000Y-120600000D02*
X95200000Y-120800000D01*
X97200000Y-118900000D02*
X97200000Y-119000000D01*
X102800000Y-113300000D02*
X97200000Y-118900000D01*
X111440000Y-92360000D02*
X111440000Y-88500000D01*
X107000000Y-96800000D02*
X111440000Y-92360000D01*
X107000000Y-121800000D02*
X107000000Y-96800000D01*
X100900000Y-127900000D02*
X107000000Y-121800000D01*
X103900000Y-92000000D02*
X101900000Y-90000000D01*
X98700000Y-115800000D02*
X98600000Y-115800000D01*
X101300000Y-113200000D02*
X98700000Y-115800000D01*
X102600000Y-96600000D02*
X102600000Y-101400000D01*
X93900000Y-102300000D02*
X90300000Y-102300000D01*
X94000000Y-102200000D02*
X93900000Y-102300000D01*
X82800000Y-100900000D02*
X80600000Y-100900000D01*
X93600000Y-100800000D02*
X88600000Y-100800000D01*
X87500000Y-127200000D02*
X96400000Y-127200000D01*
X83300000Y-123000000D02*
X87500000Y-127200000D01*
X89000000Y-123000000D02*
X95400000Y-123000000D01*
X92600000Y-111300000D02*
X91100000Y-111300000D01*
X96500000Y-105100000D02*
X96500000Y-105800000D01*
X97600000Y-104000000D02*
X96500000Y-105100000D01*
D20*
G36*
X88998073Y-82624301D02*
X88901400Y-82857690D01*
X88901400Y-83714250D01*
X89060150Y-83873000D01*
X90273000Y-83873000D01*
X90273000Y-83853000D01*
X90527000Y-83853000D01*
X90527000Y-83873000D01*
X90547000Y-83873000D01*
X90547000Y-84127000D01*
X90527000Y-84127000D01*
X90527000Y-85492250D01*
X90685750Y-85651000D01*
X91389909Y-85651000D01*
X91623298Y-85554327D01*
X91801927Y-85375699D01*
X91865500Y-85222220D01*
X91880330Y-85244415D01*
X92366511Y-85569271D01*
X92940000Y-85683345D01*
X93513489Y-85569271D01*
X93999670Y-85244415D01*
X94210000Y-84929634D01*
X94420330Y-85244415D01*
X94906511Y-85569271D01*
X95480000Y-85683345D01*
X96053489Y-85569271D01*
X96539670Y-85244415D01*
X96864526Y-84758234D01*
X96978600Y-84184745D01*
X96978600Y-83815255D01*
X96864526Y-83241766D01*
X96539670Y-82755585D01*
X96172126Y-82510000D01*
X117390000Y-82510000D01*
X117390000Y-131090000D01*
X108384802Y-131090000D01*
X111977402Y-127497401D01*
X112142148Y-127250839D01*
X112200000Y-126960000D01*
X112200000Y-126900947D01*
X112336657Y-126844481D01*
X112782914Y-126399003D01*
X113024724Y-125816659D01*
X113025275Y-125186107D01*
X112784481Y-124603343D01*
X112339003Y-124157086D01*
X111756659Y-123915276D01*
X111126107Y-123914725D01*
X110543343Y-124155519D01*
X110445663Y-124253029D01*
X110314090Y-124048559D01*
X110101890Y-123903569D01*
X109850000Y-123852560D01*
X107950000Y-123852560D01*
X107714683Y-123896838D01*
X107498559Y-124035910D01*
X107353569Y-124248110D01*
X107302560Y-124500000D01*
X107302560Y-126500000D01*
X107346838Y-126735317D01*
X107485910Y-126951441D01*
X107698110Y-127096431D01*
X107950000Y-127147440D01*
X109850000Y-127147440D01*
X110085317Y-127103162D01*
X110301441Y-126964090D01*
X110446431Y-126751890D01*
X110447055Y-126748808D01*
X110511666Y-126813531D01*
X106885198Y-130440000D01*
X73214802Y-130440000D01*
X71660000Y-128885198D01*
X71660000Y-109449226D01*
X71767441Y-109380090D01*
X71912431Y-109167890D01*
X71963440Y-108916000D01*
X71963440Y-106884000D01*
X71919162Y-106648683D01*
X71780090Y-106432559D01*
X71660000Y-106350505D01*
X71660000Y-106278695D01*
X71905983Y-105742946D01*
X71787367Y-105487000D01*
X71660000Y-105487000D01*
X71660000Y-105233000D01*
X71787367Y-105233000D01*
X71905983Y-104977054D01*
X71660000Y-104441305D01*
X71660000Y-91814802D01*
X73327362Y-90147440D01*
X74850000Y-90147440D01*
X75085317Y-90103162D01*
X75301441Y-89964090D01*
X75446431Y-89751890D01*
X75447055Y-89748808D01*
X75540997Y-89842914D01*
X75680000Y-89900633D01*
X75680000Y-99540000D01*
X75737852Y-99830839D01*
X75902599Y-100077401D01*
X79565198Y-103740000D01*
X75900000Y-103740000D01*
X75609161Y-103797852D01*
X75362599Y-103962599D01*
X74472638Y-104852560D01*
X72950000Y-104852560D01*
X72714683Y-104896838D01*
X72498559Y-105035910D01*
X72353569Y-105248110D01*
X72302560Y-105500000D01*
X72302560Y-107500000D01*
X72346838Y-107735317D01*
X72485910Y-107951441D01*
X72698110Y-108096431D01*
X72950000Y-108147440D01*
X74850000Y-108147440D01*
X75085317Y-108103162D01*
X75301441Y-107964090D01*
X75446431Y-107751890D01*
X75447055Y-107748808D01*
X75540997Y-107842914D01*
X75680000Y-107900633D01*
X75680000Y-108740000D01*
X75737852Y-109030839D01*
X75902599Y-109277401D01*
X78264878Y-111639680D01*
X78264838Y-111685167D01*
X78406883Y-112028943D01*
X78669673Y-112292192D01*
X79013201Y-112434838D01*
X79385167Y-112435162D01*
X79728943Y-112293117D01*
X79992192Y-112030327D01*
X80134838Y-111686799D01*
X80135162Y-111314833D01*
X79993117Y-110971057D01*
X79730327Y-110707808D01*
X79386799Y-110565162D01*
X79339923Y-110565121D01*
X77200000Y-108425198D01*
X77200000Y-107900947D01*
X77336657Y-107844481D01*
X77604879Y-107576728D01*
X77465162Y-107913201D01*
X77464838Y-108285167D01*
X77606883Y-108628943D01*
X77869673Y-108892192D01*
X78213201Y-109034838D01*
X78585167Y-109035162D01*
X78928943Y-108893117D01*
X79192192Y-108630327D01*
X79334838Y-108286799D01*
X79335162Y-107914833D01*
X79193117Y-107571057D01*
X79160000Y-107537882D01*
X79160000Y-106714802D01*
X79477996Y-106396806D01*
X79728943Y-106293117D01*
X79992192Y-106030327D01*
X80134838Y-105686799D01*
X80135162Y-105314833D01*
X80112506Y-105260000D01*
X80185198Y-105260000D01*
X82464878Y-107539680D01*
X82464838Y-107585167D01*
X82606883Y-107928943D01*
X82869673Y-108192192D01*
X83213201Y-108334838D01*
X83585167Y-108335162D01*
X83928943Y-108193117D01*
X83973668Y-108148470D01*
X95490276Y-119665078D01*
X95214833Y-119664838D01*
X94871057Y-119806883D01*
X94637533Y-120040000D01*
X81140000Y-120040000D01*
X80849161Y-120097852D01*
X80602599Y-120262599D01*
X76893218Y-123971980D01*
X76756659Y-123915276D01*
X76126107Y-123914725D01*
X75543343Y-124155519D01*
X75445663Y-124253029D01*
X75314090Y-124048559D01*
X75101890Y-123903569D01*
X74850000Y-123852560D01*
X72950000Y-123852560D01*
X72714683Y-123896838D01*
X72498559Y-124035910D01*
X72353569Y-124248110D01*
X72302560Y-124500000D01*
X72302560Y-126500000D01*
X72346838Y-126735317D01*
X72485910Y-126951441D01*
X72698110Y-127096431D01*
X72950000Y-127147440D01*
X74850000Y-127147440D01*
X75085317Y-127103162D01*
X75301441Y-126964090D01*
X75446431Y-126751890D01*
X75447055Y-126748808D01*
X75540997Y-126842914D01*
X76123341Y-127084724D01*
X76753893Y-127085275D01*
X77336657Y-126844481D01*
X77782914Y-126399003D01*
X78024724Y-125816659D01*
X78025275Y-125186107D01*
X77967798Y-125047004D01*
X79829635Y-123185167D01*
X82364838Y-123185167D01*
X82506883Y-123528943D01*
X82769673Y-123792192D01*
X83113201Y-123934838D01*
X83160077Y-123934879D01*
X86962599Y-127737401D01*
X87209161Y-127902148D01*
X87500000Y-127960000D01*
X95837537Y-127960000D01*
X95869673Y-127992192D01*
X96213201Y-128134838D01*
X96585167Y-128135162D01*
X96928943Y-127993117D01*
X97192192Y-127730327D01*
X97334838Y-127386799D01*
X97335162Y-127014833D01*
X97193117Y-126671057D01*
X96930327Y-126407808D01*
X96586799Y-126265162D01*
X96214833Y-126264838D01*
X95871057Y-126406883D01*
X95837882Y-126440000D01*
X95741845Y-126440000D01*
X95782914Y-126399003D01*
X96024724Y-125816659D01*
X96025275Y-125186107D01*
X95784481Y-124603343D01*
X95339003Y-124157086D01*
X94756659Y-123915276D01*
X94126107Y-123914725D01*
X93543343Y-124155519D01*
X93445663Y-124253029D01*
X93314090Y-124048559D01*
X93101890Y-123903569D01*
X92850000Y-123852560D01*
X90950000Y-123852560D01*
X90714683Y-123896838D01*
X90498559Y-124035910D01*
X90353569Y-124248110D01*
X90302560Y-124500000D01*
X90302560Y-126440000D01*
X87814802Y-126440000D01*
X84235122Y-122860320D01*
X84235162Y-122814833D01*
X84093117Y-122471057D01*
X83830327Y-122207808D01*
X83486799Y-122065162D01*
X83114833Y-122064838D01*
X82771057Y-122206883D01*
X82507808Y-122469673D01*
X82365162Y-122813201D01*
X82364838Y-123185167D01*
X79829635Y-123185167D01*
X81454802Y-121560000D01*
X92664947Y-121560000D01*
X92664838Y-121685167D01*
X92806883Y-122028943D01*
X93017572Y-122240000D01*
X89562463Y-122240000D01*
X89530327Y-122207808D01*
X89186799Y-122065162D01*
X88814833Y-122064838D01*
X88471057Y-122206883D01*
X88207808Y-122469673D01*
X88065162Y-122813201D01*
X88064838Y-123185167D01*
X88206883Y-123528943D01*
X88469673Y-123792192D01*
X88813201Y-123934838D01*
X89185167Y-123935162D01*
X89528943Y-123793117D01*
X89562118Y-123760000D01*
X94837537Y-123760000D01*
X94869673Y-123792192D01*
X95213201Y-123934838D01*
X95585167Y-123935162D01*
X95928943Y-123793117D01*
X96023712Y-123698514D01*
X96664878Y-124339680D01*
X96664838Y-124385167D01*
X96806883Y-124728943D01*
X97069673Y-124992192D01*
X97413201Y-125134838D01*
X97785167Y-125135162D01*
X98128943Y-124993117D01*
X98392192Y-124730327D01*
X98534838Y-124386799D01*
X98535162Y-124014833D01*
X98393117Y-123671057D01*
X98130327Y-123407808D01*
X97786799Y-123265162D01*
X97739923Y-123265121D01*
X97160000Y-122685198D01*
X97160000Y-119934966D01*
X97385167Y-119935162D01*
X97728943Y-119793117D01*
X97992192Y-119530327D01*
X98134838Y-119186799D01*
X98134966Y-119039836D01*
X102939680Y-114235122D01*
X102985167Y-114235162D01*
X103328943Y-114093117D01*
X103592192Y-113830327D01*
X103734838Y-113486799D01*
X103735162Y-113114833D01*
X103593117Y-112771057D01*
X103330327Y-112507808D01*
X102986799Y-112365162D01*
X102614833Y-112364838D01*
X102271057Y-112506883D01*
X102097053Y-112680583D01*
X102093117Y-112671057D01*
X101830327Y-112407808D01*
X101486799Y-112265162D01*
X101114833Y-112264838D01*
X100771057Y-112406883D01*
X100507808Y-112669673D01*
X100365162Y-113013201D01*
X100365121Y-113060077D01*
X98560233Y-114864965D01*
X98414833Y-114864838D01*
X98071057Y-115006883D01*
X97807808Y-115269673D01*
X97665162Y-115613201D01*
X97664838Y-115985167D01*
X97806883Y-116328943D01*
X98069673Y-116592192D01*
X98326402Y-116698796D01*
X96922004Y-118103194D01*
X96671057Y-118206883D01*
X96426157Y-118451355D01*
X85148448Y-107173646D01*
X85162118Y-107160000D01*
X85285198Y-107160000D01*
X89062599Y-110937401D01*
X89309160Y-111102148D01*
X89600000Y-111160000D01*
X90165121Y-111160000D01*
X90164838Y-111485167D01*
X90306883Y-111828943D01*
X90569673Y-112092192D01*
X90913201Y-112234838D01*
X91285167Y-112235162D01*
X91628943Y-112093117D01*
X91662118Y-112060000D01*
X92037537Y-112060000D01*
X92069673Y-112092192D01*
X92413201Y-112234838D01*
X92785167Y-112235162D01*
X93128943Y-112093117D01*
X93392192Y-111830327D01*
X93534838Y-111486799D01*
X93535123Y-111160000D01*
X105637537Y-111160000D01*
X105669673Y-111192192D01*
X106013201Y-111334838D01*
X106240000Y-111335036D01*
X106240000Y-121485198D01*
X100760320Y-126964878D01*
X100714833Y-126964838D01*
X100371057Y-127106883D01*
X100107808Y-127369673D01*
X99965162Y-127713201D01*
X99964838Y-128085167D01*
X100106883Y-128428943D01*
X100369673Y-128692192D01*
X100713201Y-128834838D01*
X101085167Y-128835162D01*
X101428943Y-128693117D01*
X101692192Y-128430327D01*
X101834838Y-128086799D01*
X101834879Y-128039923D01*
X107537401Y-122337401D01*
X107702148Y-122090839D01*
X107760000Y-121800000D01*
X107760000Y-108108964D01*
X107950000Y-108147440D01*
X109850000Y-108147440D01*
X110085317Y-108103162D01*
X110301441Y-107964090D01*
X110446431Y-107751890D01*
X110447055Y-107748808D01*
X110540997Y-107842914D01*
X111123341Y-108084724D01*
X111753893Y-108085275D01*
X112336657Y-107844481D01*
X112782914Y-107399003D01*
X113024724Y-106816659D01*
X113025275Y-106186107D01*
X112784481Y-105603343D01*
X112339003Y-105157086D01*
X111756659Y-104915276D01*
X111126107Y-104914725D01*
X110543343Y-105155519D01*
X110445663Y-105253029D01*
X110314090Y-105048559D01*
X110101890Y-104903569D01*
X109850000Y-104852560D01*
X107950000Y-104852560D01*
X107760000Y-104888311D01*
X107760000Y-97114802D01*
X111977401Y-92897401D01*
X112142148Y-92650840D01*
X112200000Y-92360000D01*
X112200000Y-89900947D01*
X112336657Y-89844481D01*
X112782914Y-89399003D01*
X113024724Y-88816659D01*
X113025275Y-88186107D01*
X112784481Y-87603343D01*
X112339003Y-87157086D01*
X111756659Y-86915276D01*
X111126107Y-86914725D01*
X110543343Y-87155519D01*
X110445663Y-87253029D01*
X110314090Y-87048559D01*
X110101890Y-86903569D01*
X109850000Y-86852560D01*
X107950000Y-86852560D01*
X107714683Y-86896838D01*
X107498559Y-87035910D01*
X107353569Y-87248110D01*
X107302560Y-87500000D01*
X107302560Y-89500000D01*
X107346838Y-89735317D01*
X107485910Y-89951441D01*
X107698110Y-90096431D01*
X107950000Y-90147440D01*
X109850000Y-90147440D01*
X110085317Y-90103162D01*
X110301441Y-89964090D01*
X110446431Y-89751890D01*
X110447055Y-89748808D01*
X110540997Y-89842914D01*
X110680000Y-89900633D01*
X110680000Y-92045198D01*
X106462599Y-96262599D01*
X106297852Y-96509161D01*
X106240000Y-96800000D01*
X106240000Y-109465034D01*
X106014833Y-109464838D01*
X105671057Y-109606883D01*
X105637882Y-109640000D01*
X89914802Y-109640000D01*
X86137401Y-105862599D01*
X86090849Y-105831494D01*
X86192192Y-105730327D01*
X86304442Y-105460000D01*
X90310660Y-105460000D01*
X90302560Y-105500000D01*
X90302560Y-107500000D01*
X90346838Y-107735317D01*
X90485910Y-107951441D01*
X90698110Y-108096431D01*
X90950000Y-108147440D01*
X92850000Y-108147440D01*
X93085317Y-108103162D01*
X93301441Y-107964090D01*
X93446431Y-107751890D01*
X93447055Y-107748808D01*
X93540997Y-107842914D01*
X94123341Y-108084724D01*
X94753893Y-108085275D01*
X95336657Y-107844481D01*
X95782914Y-107399003D01*
X96024724Y-106816659D01*
X96024900Y-106615124D01*
X96313201Y-106734838D01*
X96685167Y-106735162D01*
X97028943Y-106593117D01*
X97292192Y-106330327D01*
X97434838Y-105986799D01*
X97435162Y-105614833D01*
X97325463Y-105349339D01*
X97739680Y-104935122D01*
X97785167Y-104935162D01*
X98128943Y-104793117D01*
X98392192Y-104530327D01*
X98534838Y-104186799D01*
X98535162Y-103814833D01*
X98393117Y-103471057D01*
X98130327Y-103207808D01*
X97786799Y-103065162D01*
X97414833Y-103064838D01*
X97071057Y-103206883D01*
X96807808Y-103469673D01*
X96665162Y-103813201D01*
X96665121Y-103860077D01*
X95962599Y-104562599D01*
X95797852Y-104809161D01*
X95740000Y-105100000D01*
X95740000Y-105237537D01*
X95707808Y-105269673D01*
X95632482Y-105451078D01*
X95339003Y-105157086D01*
X94813809Y-104939007D01*
X94037401Y-104162599D01*
X93790839Y-103997852D01*
X93500000Y-103940000D01*
X85900000Y-103940000D01*
X85609161Y-103997852D01*
X85362599Y-104162599D01*
X85260320Y-104264878D01*
X85214833Y-104264838D01*
X84871057Y-104406883D01*
X84607808Y-104669673D01*
X84465162Y-105013201D01*
X84464838Y-105385167D01*
X84497787Y-105464910D01*
X84414833Y-105464838D01*
X84071057Y-105606883D01*
X83826157Y-105851355D01*
X79059969Y-101085167D01*
X79664838Y-101085167D01*
X79806883Y-101428943D01*
X80069673Y-101692192D01*
X80413201Y-101834838D01*
X80785167Y-101835162D01*
X81128943Y-101693117D01*
X81162118Y-101660000D01*
X82237537Y-101660000D01*
X82269673Y-101692192D01*
X82613201Y-101834838D01*
X82985167Y-101835162D01*
X83328943Y-101693117D01*
X83592192Y-101430327D01*
X83734838Y-101086799D01*
X83734926Y-100985167D01*
X87664838Y-100985167D01*
X87806883Y-101328943D01*
X88069673Y-101592192D01*
X88413201Y-101734838D01*
X88785167Y-101735162D01*
X89128943Y-101593117D01*
X89162118Y-101560000D01*
X89717847Y-101560000D01*
X89507808Y-101769673D01*
X89365162Y-102113201D01*
X89364838Y-102485167D01*
X89506883Y-102828943D01*
X89769673Y-103092192D01*
X90113201Y-103234838D01*
X90485167Y-103235162D01*
X90828943Y-103093117D01*
X90862118Y-103060000D01*
X93632972Y-103060000D01*
X93813201Y-103134838D01*
X94185167Y-103135162D01*
X94528943Y-102993117D01*
X94792192Y-102730327D01*
X94934838Y-102386799D01*
X94935162Y-102014833D01*
X94793117Y-101671057D01*
X94530327Y-101407808D01*
X94377956Y-101344538D01*
X94392192Y-101330327D01*
X94534838Y-100986799D01*
X94535162Y-100614833D01*
X94393117Y-100271057D01*
X94130327Y-100007808D01*
X93786799Y-99865162D01*
X93414833Y-99864838D01*
X93071057Y-100006883D01*
X93037882Y-100040000D01*
X89162463Y-100040000D01*
X89130327Y-100007808D01*
X88786799Y-99865162D01*
X88414833Y-99864838D01*
X88071057Y-100006883D01*
X87807808Y-100269673D01*
X87665162Y-100613201D01*
X87664838Y-100985167D01*
X83734926Y-100985167D01*
X83735162Y-100714833D01*
X83593117Y-100371057D01*
X83330327Y-100107808D01*
X82986799Y-99965162D01*
X82614833Y-99964838D01*
X82271057Y-100106883D01*
X82237882Y-100140000D01*
X81162463Y-100140000D01*
X81130327Y-100107808D01*
X80786799Y-99965162D01*
X80414833Y-99964838D01*
X80071057Y-100106883D01*
X79807808Y-100369673D01*
X79665162Y-100713201D01*
X79664838Y-101085167D01*
X79059969Y-101085167D01*
X77200000Y-99225198D01*
X77200000Y-95882400D01*
X80134960Y-95882400D01*
X80134960Y-98117600D01*
X80179238Y-98352917D01*
X80318310Y-98569041D01*
X80530510Y-98714031D01*
X80782400Y-98765040D01*
X83017600Y-98765040D01*
X83252917Y-98720762D01*
X83469041Y-98581690D01*
X83614031Y-98369490D01*
X83665040Y-98117600D01*
X83665040Y-96785167D01*
X101664838Y-96785167D01*
X101806883Y-97128943D01*
X101840000Y-97162118D01*
X101840000Y-100837537D01*
X101807808Y-100869673D01*
X101665162Y-101213201D01*
X101664838Y-101585167D01*
X101806883Y-101928943D01*
X102069673Y-102192192D01*
X102413201Y-102334838D01*
X102785167Y-102335162D01*
X103128943Y-102193117D01*
X103392192Y-101930327D01*
X103534838Y-101586799D01*
X103535162Y-101214833D01*
X103393117Y-100871057D01*
X103360000Y-100837882D01*
X103360000Y-97162463D01*
X103392192Y-97130327D01*
X103534838Y-96786799D01*
X103535162Y-96414833D01*
X103393117Y-96071057D01*
X103130327Y-95807808D01*
X102786799Y-95665162D01*
X102414833Y-95664838D01*
X102071057Y-95806883D01*
X101807808Y-96069673D01*
X101665162Y-96413201D01*
X101664838Y-96785167D01*
X83665040Y-96785167D01*
X83665040Y-95882400D01*
X83620762Y-95647083D01*
X83481690Y-95430959D01*
X83269490Y-95285969D01*
X83017600Y-95234960D01*
X80782400Y-95234960D01*
X80547083Y-95279238D01*
X80330959Y-95418310D01*
X80185969Y-95630510D01*
X80134960Y-95882400D01*
X77200000Y-95882400D01*
X77200000Y-91285167D01*
X93064838Y-91285167D01*
X93206883Y-91628943D01*
X93469673Y-91892192D01*
X93813201Y-92034838D01*
X94185167Y-92035162D01*
X94528943Y-91893117D01*
X94792192Y-91630327D01*
X94934838Y-91286799D01*
X94934879Y-91239923D01*
X95337401Y-90837401D01*
X95502148Y-90590839D01*
X95560000Y-90300000D01*
X95560000Y-90185167D01*
X100964838Y-90185167D01*
X101106883Y-90528943D01*
X101369673Y-90792192D01*
X101713201Y-90934838D01*
X101760077Y-90934879D01*
X102964878Y-92139680D01*
X102964838Y-92185167D01*
X103106883Y-92528943D01*
X103369673Y-92792192D01*
X103713201Y-92934838D01*
X104085167Y-92935162D01*
X104428943Y-92793117D01*
X104692192Y-92530327D01*
X104834838Y-92186799D01*
X104835162Y-91814833D01*
X104693117Y-91471057D01*
X104430327Y-91207808D01*
X104086799Y-91065162D01*
X104039923Y-91065121D01*
X102835122Y-89860320D01*
X102835162Y-89814833D01*
X102693117Y-89471057D01*
X102430327Y-89207808D01*
X102086799Y-89065162D01*
X101714833Y-89064838D01*
X101371057Y-89206883D01*
X101107808Y-89469673D01*
X100965162Y-89813201D01*
X100964838Y-90185167D01*
X95560000Y-90185167D01*
X95560000Y-89262463D01*
X95592192Y-89230327D01*
X95734838Y-88886799D01*
X95735162Y-88514833D01*
X95593117Y-88171057D01*
X95330327Y-87907808D01*
X94986799Y-87765162D01*
X94614833Y-87764838D01*
X94271057Y-87906883D01*
X94007808Y-88169673D01*
X93865162Y-88513201D01*
X93864838Y-88885167D01*
X94006883Y-89228943D01*
X94040000Y-89262118D01*
X94040000Y-89985198D01*
X93860320Y-90164878D01*
X93814833Y-90164838D01*
X93471057Y-90306883D01*
X93207808Y-90569673D01*
X93065162Y-90913201D01*
X93064838Y-91285167D01*
X77200000Y-91285167D01*
X77200000Y-89900947D01*
X77336657Y-89844481D01*
X77782914Y-89399003D01*
X78024724Y-88816659D01*
X78025275Y-88186107D01*
X77784481Y-87603343D01*
X77339003Y-87157086D01*
X76756659Y-86915276D01*
X76126107Y-86914725D01*
X75543343Y-87155519D01*
X75445663Y-87253029D01*
X75314090Y-87048559D01*
X75101890Y-86903569D01*
X74850000Y-86852560D01*
X72950000Y-86852560D01*
X72714683Y-86896838D01*
X72498559Y-87035910D01*
X72353569Y-87248110D01*
X72302560Y-87500000D01*
X72302560Y-89022638D01*
X70362599Y-90962599D01*
X70197852Y-91209161D01*
X70140000Y-91500000D01*
X70140000Y-103857803D01*
X69917056Y-103754025D01*
X69435182Y-103953615D01*
X68962812Y-104391621D01*
X68810000Y-104724444D01*
X68810000Y-84285750D01*
X88901400Y-84285750D01*
X88901400Y-85142310D01*
X88998073Y-85375699D01*
X89176702Y-85554327D01*
X89410091Y-85651000D01*
X90114250Y-85651000D01*
X90273000Y-85492250D01*
X90273000Y-84127000D01*
X89060150Y-84127000D01*
X88901400Y-84285750D01*
X68810000Y-84285750D01*
X68810000Y-82510000D01*
X89112375Y-82510000D01*
X88998073Y-82624301D01*
X88998073Y-82624301D01*
G37*
X88998073Y-82624301D02*
X88901400Y-82857690D01*
X88901400Y-83714250D01*
X89060150Y-83873000D01*
X90273000Y-83873000D01*
X90273000Y-83853000D01*
X90527000Y-83853000D01*
X90527000Y-83873000D01*
X90547000Y-83873000D01*
X90547000Y-84127000D01*
X90527000Y-84127000D01*
X90527000Y-85492250D01*
X90685750Y-85651000D01*
X91389909Y-85651000D01*
X91623298Y-85554327D01*
X91801927Y-85375699D01*
X91865500Y-85222220D01*
X91880330Y-85244415D01*
X92366511Y-85569271D01*
X92940000Y-85683345D01*
X93513489Y-85569271D01*
X93999670Y-85244415D01*
X94210000Y-84929634D01*
X94420330Y-85244415D01*
X94906511Y-85569271D01*
X95480000Y-85683345D01*
X96053489Y-85569271D01*
X96539670Y-85244415D01*
X96864526Y-84758234D01*
X96978600Y-84184745D01*
X96978600Y-83815255D01*
X96864526Y-83241766D01*
X96539670Y-82755585D01*
X96172126Y-82510000D01*
X117390000Y-82510000D01*
X117390000Y-131090000D01*
X108384802Y-131090000D01*
X111977402Y-127497401D01*
X112142148Y-127250839D01*
X112200000Y-126960000D01*
X112200000Y-126900947D01*
X112336657Y-126844481D01*
X112782914Y-126399003D01*
X113024724Y-125816659D01*
X113025275Y-125186107D01*
X112784481Y-124603343D01*
X112339003Y-124157086D01*
X111756659Y-123915276D01*
X111126107Y-123914725D01*
X110543343Y-124155519D01*
X110445663Y-124253029D01*
X110314090Y-124048559D01*
X110101890Y-123903569D01*
X109850000Y-123852560D01*
X107950000Y-123852560D01*
X107714683Y-123896838D01*
X107498559Y-124035910D01*
X107353569Y-124248110D01*
X107302560Y-124500000D01*
X107302560Y-126500000D01*
X107346838Y-126735317D01*
X107485910Y-126951441D01*
X107698110Y-127096431D01*
X107950000Y-127147440D01*
X109850000Y-127147440D01*
X110085317Y-127103162D01*
X110301441Y-126964090D01*
X110446431Y-126751890D01*
X110447055Y-126748808D01*
X110511666Y-126813531D01*
X106885198Y-130440000D01*
X73214802Y-130440000D01*
X71660000Y-128885198D01*
X71660000Y-109449226D01*
X71767441Y-109380090D01*
X71912431Y-109167890D01*
X71963440Y-108916000D01*
X71963440Y-106884000D01*
X71919162Y-106648683D01*
X71780090Y-106432559D01*
X71660000Y-106350505D01*
X71660000Y-106278695D01*
X71905983Y-105742946D01*
X71787367Y-105487000D01*
X71660000Y-105487000D01*
X71660000Y-105233000D01*
X71787367Y-105233000D01*
X71905983Y-104977054D01*
X71660000Y-104441305D01*
X71660000Y-91814802D01*
X73327362Y-90147440D01*
X74850000Y-90147440D01*
X75085317Y-90103162D01*
X75301441Y-89964090D01*
X75446431Y-89751890D01*
X75447055Y-89748808D01*
X75540997Y-89842914D01*
X75680000Y-89900633D01*
X75680000Y-99540000D01*
X75737852Y-99830839D01*
X75902599Y-100077401D01*
X79565198Y-103740000D01*
X75900000Y-103740000D01*
X75609161Y-103797852D01*
X75362599Y-103962599D01*
X74472638Y-104852560D01*
X72950000Y-104852560D01*
X72714683Y-104896838D01*
X72498559Y-105035910D01*
X72353569Y-105248110D01*
X72302560Y-105500000D01*
X72302560Y-107500000D01*
X72346838Y-107735317D01*
X72485910Y-107951441D01*
X72698110Y-108096431D01*
X72950000Y-108147440D01*
X74850000Y-108147440D01*
X75085317Y-108103162D01*
X75301441Y-107964090D01*
X75446431Y-107751890D01*
X75447055Y-107748808D01*
X75540997Y-107842914D01*
X75680000Y-107900633D01*
X75680000Y-108740000D01*
X75737852Y-109030839D01*
X75902599Y-109277401D01*
X78264878Y-111639680D01*
X78264838Y-111685167D01*
X78406883Y-112028943D01*
X78669673Y-112292192D01*
X79013201Y-112434838D01*
X79385167Y-112435162D01*
X79728943Y-112293117D01*
X79992192Y-112030327D01*
X80134838Y-111686799D01*
X80135162Y-111314833D01*
X79993117Y-110971057D01*
X79730327Y-110707808D01*
X79386799Y-110565162D01*
X79339923Y-110565121D01*
X77200000Y-108425198D01*
X77200000Y-107900947D01*
X77336657Y-107844481D01*
X77604879Y-107576728D01*
X77465162Y-107913201D01*
X77464838Y-108285167D01*
X77606883Y-108628943D01*
X77869673Y-108892192D01*
X78213201Y-109034838D01*
X78585167Y-109035162D01*
X78928943Y-108893117D01*
X79192192Y-108630327D01*
X79334838Y-108286799D01*
X79335162Y-107914833D01*
X79193117Y-107571057D01*
X79160000Y-107537882D01*
X79160000Y-106714802D01*
X79477996Y-106396806D01*
X79728943Y-106293117D01*
X79992192Y-106030327D01*
X80134838Y-105686799D01*
X80135162Y-105314833D01*
X80112506Y-105260000D01*
X80185198Y-105260000D01*
X82464878Y-107539680D01*
X82464838Y-107585167D01*
X82606883Y-107928943D01*
X82869673Y-108192192D01*
X83213201Y-108334838D01*
X83585167Y-108335162D01*
X83928943Y-108193117D01*
X83973668Y-108148470D01*
X95490276Y-119665078D01*
X95214833Y-119664838D01*
X94871057Y-119806883D01*
X94637533Y-120040000D01*
X81140000Y-120040000D01*
X80849161Y-120097852D01*
X80602599Y-120262599D01*
X76893218Y-123971980D01*
X76756659Y-123915276D01*
X76126107Y-123914725D01*
X75543343Y-124155519D01*
X75445663Y-124253029D01*
X75314090Y-124048559D01*
X75101890Y-123903569D01*
X74850000Y-123852560D01*
X72950000Y-123852560D01*
X72714683Y-123896838D01*
X72498559Y-124035910D01*
X72353569Y-124248110D01*
X72302560Y-124500000D01*
X72302560Y-126500000D01*
X72346838Y-126735317D01*
X72485910Y-126951441D01*
X72698110Y-127096431D01*
X72950000Y-127147440D01*
X74850000Y-127147440D01*
X75085317Y-127103162D01*
X75301441Y-126964090D01*
X75446431Y-126751890D01*
X75447055Y-126748808D01*
X75540997Y-126842914D01*
X76123341Y-127084724D01*
X76753893Y-127085275D01*
X77336657Y-126844481D01*
X77782914Y-126399003D01*
X78024724Y-125816659D01*
X78025275Y-125186107D01*
X77967798Y-125047004D01*
X79829635Y-123185167D01*
X82364838Y-123185167D01*
X82506883Y-123528943D01*
X82769673Y-123792192D01*
X83113201Y-123934838D01*
X83160077Y-123934879D01*
X86962599Y-127737401D01*
X87209161Y-127902148D01*
X87500000Y-127960000D01*
X95837537Y-127960000D01*
X95869673Y-127992192D01*
X96213201Y-128134838D01*
X96585167Y-128135162D01*
X96928943Y-127993117D01*
X97192192Y-127730327D01*
X97334838Y-127386799D01*
X97335162Y-127014833D01*
X97193117Y-126671057D01*
X96930327Y-126407808D01*
X96586799Y-126265162D01*
X96214833Y-126264838D01*
X95871057Y-126406883D01*
X95837882Y-126440000D01*
X95741845Y-126440000D01*
X95782914Y-126399003D01*
X96024724Y-125816659D01*
X96025275Y-125186107D01*
X95784481Y-124603343D01*
X95339003Y-124157086D01*
X94756659Y-123915276D01*
X94126107Y-123914725D01*
X93543343Y-124155519D01*
X93445663Y-124253029D01*
X93314090Y-124048559D01*
X93101890Y-123903569D01*
X92850000Y-123852560D01*
X90950000Y-123852560D01*
X90714683Y-123896838D01*
X90498559Y-124035910D01*
X90353569Y-124248110D01*
X90302560Y-124500000D01*
X90302560Y-126440000D01*
X87814802Y-126440000D01*
X84235122Y-122860320D01*
X84235162Y-122814833D01*
X84093117Y-122471057D01*
X83830327Y-122207808D01*
X83486799Y-122065162D01*
X83114833Y-122064838D01*
X82771057Y-122206883D01*
X82507808Y-122469673D01*
X82365162Y-122813201D01*
X82364838Y-123185167D01*
X79829635Y-123185167D01*
X81454802Y-121560000D01*
X92664947Y-121560000D01*
X92664838Y-121685167D01*
X92806883Y-122028943D01*
X93017572Y-122240000D01*
X89562463Y-122240000D01*
X89530327Y-122207808D01*
X89186799Y-122065162D01*
X88814833Y-122064838D01*
X88471057Y-122206883D01*
X88207808Y-122469673D01*
X88065162Y-122813201D01*
X88064838Y-123185167D01*
X88206883Y-123528943D01*
X88469673Y-123792192D01*
X88813201Y-123934838D01*
X89185167Y-123935162D01*
X89528943Y-123793117D01*
X89562118Y-123760000D01*
X94837537Y-123760000D01*
X94869673Y-123792192D01*
X95213201Y-123934838D01*
X95585167Y-123935162D01*
X95928943Y-123793117D01*
X96023712Y-123698514D01*
X96664878Y-124339680D01*
X96664838Y-124385167D01*
X96806883Y-124728943D01*
X97069673Y-124992192D01*
X97413201Y-125134838D01*
X97785167Y-125135162D01*
X98128943Y-124993117D01*
X98392192Y-124730327D01*
X98534838Y-124386799D01*
X98535162Y-124014833D01*
X98393117Y-123671057D01*
X98130327Y-123407808D01*
X97786799Y-123265162D01*
X97739923Y-123265121D01*
X97160000Y-122685198D01*
X97160000Y-119934966D01*
X97385167Y-119935162D01*
X97728943Y-119793117D01*
X97992192Y-119530327D01*
X98134838Y-119186799D01*
X98134966Y-119039836D01*
X102939680Y-114235122D01*
X102985167Y-114235162D01*
X103328943Y-114093117D01*
X103592192Y-113830327D01*
X103734838Y-113486799D01*
X103735162Y-113114833D01*
X103593117Y-112771057D01*
X103330327Y-112507808D01*
X102986799Y-112365162D01*
X102614833Y-112364838D01*
X102271057Y-112506883D01*
X102097053Y-112680583D01*
X102093117Y-112671057D01*
X101830327Y-112407808D01*
X101486799Y-112265162D01*
X101114833Y-112264838D01*
X100771057Y-112406883D01*
X100507808Y-112669673D01*
X100365162Y-113013201D01*
X100365121Y-113060077D01*
X98560233Y-114864965D01*
X98414833Y-114864838D01*
X98071057Y-115006883D01*
X97807808Y-115269673D01*
X97665162Y-115613201D01*
X97664838Y-115985167D01*
X97806883Y-116328943D01*
X98069673Y-116592192D01*
X98326402Y-116698796D01*
X96922004Y-118103194D01*
X96671057Y-118206883D01*
X96426157Y-118451355D01*
X85148448Y-107173646D01*
X85162118Y-107160000D01*
X85285198Y-107160000D01*
X89062599Y-110937401D01*
X89309160Y-111102148D01*
X89600000Y-111160000D01*
X90165121Y-111160000D01*
X90164838Y-111485167D01*
X90306883Y-111828943D01*
X90569673Y-112092192D01*
X90913201Y-112234838D01*
X91285167Y-112235162D01*
X91628943Y-112093117D01*
X91662118Y-112060000D01*
X92037537Y-112060000D01*
X92069673Y-112092192D01*
X92413201Y-112234838D01*
X92785167Y-112235162D01*
X93128943Y-112093117D01*
X93392192Y-111830327D01*
X93534838Y-111486799D01*
X93535123Y-111160000D01*
X105637537Y-111160000D01*
X105669673Y-111192192D01*
X106013201Y-111334838D01*
X106240000Y-111335036D01*
X106240000Y-121485198D01*
X100760320Y-126964878D01*
X100714833Y-126964838D01*
X100371057Y-127106883D01*
X100107808Y-127369673D01*
X99965162Y-127713201D01*
X99964838Y-128085167D01*
X100106883Y-128428943D01*
X100369673Y-128692192D01*
X100713201Y-128834838D01*
X101085167Y-128835162D01*
X101428943Y-128693117D01*
X101692192Y-128430327D01*
X101834838Y-128086799D01*
X101834879Y-128039923D01*
X107537401Y-122337401D01*
X107702148Y-122090839D01*
X107760000Y-121800000D01*
X107760000Y-108108964D01*
X107950000Y-108147440D01*
X109850000Y-108147440D01*
X110085317Y-108103162D01*
X110301441Y-107964090D01*
X110446431Y-107751890D01*
X110447055Y-107748808D01*
X110540997Y-107842914D01*
X111123341Y-108084724D01*
X111753893Y-108085275D01*
X112336657Y-107844481D01*
X112782914Y-107399003D01*
X113024724Y-106816659D01*
X113025275Y-106186107D01*
X112784481Y-105603343D01*
X112339003Y-105157086D01*
X111756659Y-104915276D01*
X111126107Y-104914725D01*
X110543343Y-105155519D01*
X110445663Y-105253029D01*
X110314090Y-105048559D01*
X110101890Y-104903569D01*
X109850000Y-104852560D01*
X107950000Y-104852560D01*
X107760000Y-104888311D01*
X107760000Y-97114802D01*
X111977401Y-92897401D01*
X112142148Y-92650840D01*
X112200000Y-92360000D01*
X112200000Y-89900947D01*
X112336657Y-89844481D01*
X112782914Y-89399003D01*
X113024724Y-88816659D01*
X113025275Y-88186107D01*
X112784481Y-87603343D01*
X112339003Y-87157086D01*
X111756659Y-86915276D01*
X111126107Y-86914725D01*
X110543343Y-87155519D01*
X110445663Y-87253029D01*
X110314090Y-87048559D01*
X110101890Y-86903569D01*
X109850000Y-86852560D01*
X107950000Y-86852560D01*
X107714683Y-86896838D01*
X107498559Y-87035910D01*
X107353569Y-87248110D01*
X107302560Y-87500000D01*
X107302560Y-89500000D01*
X107346838Y-89735317D01*
X107485910Y-89951441D01*
X107698110Y-90096431D01*
X107950000Y-90147440D01*
X109850000Y-90147440D01*
X110085317Y-90103162D01*
X110301441Y-89964090D01*
X110446431Y-89751890D01*
X110447055Y-89748808D01*
X110540997Y-89842914D01*
X110680000Y-89900633D01*
X110680000Y-92045198D01*
X106462599Y-96262599D01*
X106297852Y-96509161D01*
X106240000Y-96800000D01*
X106240000Y-109465034D01*
X106014833Y-109464838D01*
X105671057Y-109606883D01*
X105637882Y-109640000D01*
X89914802Y-109640000D01*
X86137401Y-105862599D01*
X86090849Y-105831494D01*
X86192192Y-105730327D01*
X86304442Y-105460000D01*
X90310660Y-105460000D01*
X90302560Y-105500000D01*
X90302560Y-107500000D01*
X90346838Y-107735317D01*
X90485910Y-107951441D01*
X90698110Y-108096431D01*
X90950000Y-108147440D01*
X92850000Y-108147440D01*
X93085317Y-108103162D01*
X93301441Y-107964090D01*
X93446431Y-107751890D01*
X93447055Y-107748808D01*
X93540997Y-107842914D01*
X94123341Y-108084724D01*
X94753893Y-108085275D01*
X95336657Y-107844481D01*
X95782914Y-107399003D01*
X96024724Y-106816659D01*
X96024900Y-106615124D01*
X96313201Y-106734838D01*
X96685167Y-106735162D01*
X97028943Y-106593117D01*
X97292192Y-106330327D01*
X97434838Y-105986799D01*
X97435162Y-105614833D01*
X97325463Y-105349339D01*
X97739680Y-104935122D01*
X97785167Y-104935162D01*
X98128943Y-104793117D01*
X98392192Y-104530327D01*
X98534838Y-104186799D01*
X98535162Y-103814833D01*
X98393117Y-103471057D01*
X98130327Y-103207808D01*
X97786799Y-103065162D01*
X97414833Y-103064838D01*
X97071057Y-103206883D01*
X96807808Y-103469673D01*
X96665162Y-103813201D01*
X96665121Y-103860077D01*
X95962599Y-104562599D01*
X95797852Y-104809161D01*
X95740000Y-105100000D01*
X95740000Y-105237537D01*
X95707808Y-105269673D01*
X95632482Y-105451078D01*
X95339003Y-105157086D01*
X94813809Y-104939007D01*
X94037401Y-104162599D01*
X93790839Y-103997852D01*
X93500000Y-103940000D01*
X85900000Y-103940000D01*
X85609161Y-103997852D01*
X85362599Y-104162599D01*
X85260320Y-104264878D01*
X85214833Y-104264838D01*
X84871057Y-104406883D01*
X84607808Y-104669673D01*
X84465162Y-105013201D01*
X84464838Y-105385167D01*
X84497787Y-105464910D01*
X84414833Y-105464838D01*
X84071057Y-105606883D01*
X83826157Y-105851355D01*
X79059969Y-101085167D01*
X79664838Y-101085167D01*
X79806883Y-101428943D01*
X80069673Y-101692192D01*
X80413201Y-101834838D01*
X80785167Y-101835162D01*
X81128943Y-101693117D01*
X81162118Y-101660000D01*
X82237537Y-101660000D01*
X82269673Y-101692192D01*
X82613201Y-101834838D01*
X82985167Y-101835162D01*
X83328943Y-101693117D01*
X83592192Y-101430327D01*
X83734838Y-101086799D01*
X83734926Y-100985167D01*
X87664838Y-100985167D01*
X87806883Y-101328943D01*
X88069673Y-101592192D01*
X88413201Y-101734838D01*
X88785167Y-101735162D01*
X89128943Y-101593117D01*
X89162118Y-101560000D01*
X89717847Y-101560000D01*
X89507808Y-101769673D01*
X89365162Y-102113201D01*
X89364838Y-102485167D01*
X89506883Y-102828943D01*
X89769673Y-103092192D01*
X90113201Y-103234838D01*
X90485167Y-103235162D01*
X90828943Y-103093117D01*
X90862118Y-103060000D01*
X93632972Y-103060000D01*
X93813201Y-103134838D01*
X94185167Y-103135162D01*
X94528943Y-102993117D01*
X94792192Y-102730327D01*
X94934838Y-102386799D01*
X94935162Y-102014833D01*
X94793117Y-101671057D01*
X94530327Y-101407808D01*
X94377956Y-101344538D01*
X94392192Y-101330327D01*
X94534838Y-100986799D01*
X94535162Y-100614833D01*
X94393117Y-100271057D01*
X94130327Y-100007808D01*
X93786799Y-99865162D01*
X93414833Y-99864838D01*
X93071057Y-100006883D01*
X93037882Y-100040000D01*
X89162463Y-100040000D01*
X89130327Y-100007808D01*
X88786799Y-99865162D01*
X88414833Y-99864838D01*
X88071057Y-100006883D01*
X87807808Y-100269673D01*
X87665162Y-100613201D01*
X87664838Y-100985167D01*
X83734926Y-100985167D01*
X83735162Y-100714833D01*
X83593117Y-100371057D01*
X83330327Y-100107808D01*
X82986799Y-99965162D01*
X82614833Y-99964838D01*
X82271057Y-100106883D01*
X82237882Y-100140000D01*
X81162463Y-100140000D01*
X81130327Y-100107808D01*
X80786799Y-99965162D01*
X80414833Y-99964838D01*
X80071057Y-100106883D01*
X79807808Y-100369673D01*
X79665162Y-100713201D01*
X79664838Y-101085167D01*
X79059969Y-101085167D01*
X77200000Y-99225198D01*
X77200000Y-95882400D01*
X80134960Y-95882400D01*
X80134960Y-98117600D01*
X80179238Y-98352917D01*
X80318310Y-98569041D01*
X80530510Y-98714031D01*
X80782400Y-98765040D01*
X83017600Y-98765040D01*
X83252917Y-98720762D01*
X83469041Y-98581690D01*
X83614031Y-98369490D01*
X83665040Y-98117600D01*
X83665040Y-96785167D01*
X101664838Y-96785167D01*
X101806883Y-97128943D01*
X101840000Y-97162118D01*
X101840000Y-100837537D01*
X101807808Y-100869673D01*
X101665162Y-101213201D01*
X101664838Y-101585167D01*
X101806883Y-101928943D01*
X102069673Y-102192192D01*
X102413201Y-102334838D01*
X102785167Y-102335162D01*
X103128943Y-102193117D01*
X103392192Y-101930327D01*
X103534838Y-101586799D01*
X103535162Y-101214833D01*
X103393117Y-100871057D01*
X103360000Y-100837882D01*
X103360000Y-97162463D01*
X103392192Y-97130327D01*
X103534838Y-96786799D01*
X103535162Y-96414833D01*
X103393117Y-96071057D01*
X103130327Y-95807808D01*
X102786799Y-95665162D01*
X102414833Y-95664838D01*
X102071057Y-95806883D01*
X101807808Y-96069673D01*
X101665162Y-96413201D01*
X101664838Y-96785167D01*
X83665040Y-96785167D01*
X83665040Y-95882400D01*
X83620762Y-95647083D01*
X83481690Y-95430959D01*
X83269490Y-95285969D01*
X83017600Y-95234960D01*
X80782400Y-95234960D01*
X80547083Y-95279238D01*
X80330959Y-95418310D01*
X80185969Y-95630510D01*
X80134960Y-95882400D01*
X77200000Y-95882400D01*
X77200000Y-91285167D01*
X93064838Y-91285167D01*
X93206883Y-91628943D01*
X93469673Y-91892192D01*
X93813201Y-92034838D01*
X94185167Y-92035162D01*
X94528943Y-91893117D01*
X94792192Y-91630327D01*
X94934838Y-91286799D01*
X94934879Y-91239923D01*
X95337401Y-90837401D01*
X95502148Y-90590839D01*
X95560000Y-90300000D01*
X95560000Y-90185167D01*
X100964838Y-90185167D01*
X101106883Y-90528943D01*
X101369673Y-90792192D01*
X101713201Y-90934838D01*
X101760077Y-90934879D01*
X102964878Y-92139680D01*
X102964838Y-92185167D01*
X103106883Y-92528943D01*
X103369673Y-92792192D01*
X103713201Y-92934838D01*
X104085167Y-92935162D01*
X104428943Y-92793117D01*
X104692192Y-92530327D01*
X104834838Y-92186799D01*
X104835162Y-91814833D01*
X104693117Y-91471057D01*
X104430327Y-91207808D01*
X104086799Y-91065162D01*
X104039923Y-91065121D01*
X102835122Y-89860320D01*
X102835162Y-89814833D01*
X102693117Y-89471057D01*
X102430327Y-89207808D01*
X102086799Y-89065162D01*
X101714833Y-89064838D01*
X101371057Y-89206883D01*
X101107808Y-89469673D01*
X100965162Y-89813201D01*
X100964838Y-90185167D01*
X95560000Y-90185167D01*
X95560000Y-89262463D01*
X95592192Y-89230327D01*
X95734838Y-88886799D01*
X95735162Y-88514833D01*
X95593117Y-88171057D01*
X95330327Y-87907808D01*
X94986799Y-87765162D01*
X94614833Y-87764838D01*
X94271057Y-87906883D01*
X94007808Y-88169673D01*
X93865162Y-88513201D01*
X93864838Y-88885167D01*
X94006883Y-89228943D01*
X94040000Y-89262118D01*
X94040000Y-89985198D01*
X93860320Y-90164878D01*
X93814833Y-90164838D01*
X93471057Y-90306883D01*
X93207808Y-90569673D01*
X93065162Y-90913201D01*
X93064838Y-91285167D01*
X77200000Y-91285167D01*
X77200000Y-89900947D01*
X77336657Y-89844481D01*
X77782914Y-89399003D01*
X78024724Y-88816659D01*
X78025275Y-88186107D01*
X77784481Y-87603343D01*
X77339003Y-87157086D01*
X76756659Y-86915276D01*
X76126107Y-86914725D01*
X75543343Y-87155519D01*
X75445663Y-87253029D01*
X75314090Y-87048559D01*
X75101890Y-86903569D01*
X74850000Y-86852560D01*
X72950000Y-86852560D01*
X72714683Y-86896838D01*
X72498559Y-87035910D01*
X72353569Y-87248110D01*
X72302560Y-87500000D01*
X72302560Y-89022638D01*
X70362599Y-90962599D01*
X70197852Y-91209161D01*
X70140000Y-91500000D01*
X70140000Y-103857803D01*
X69917056Y-103754025D01*
X69435182Y-103953615D01*
X68962812Y-104391621D01*
X68810000Y-104724444D01*
X68810000Y-84285750D01*
X88901400Y-84285750D01*
X88901400Y-85142310D01*
X88998073Y-85375699D01*
X89176702Y-85554327D01*
X89410091Y-85651000D01*
X90114250Y-85651000D01*
X90273000Y-85492250D01*
X90273000Y-84127000D01*
X89060150Y-84127000D01*
X88901400Y-84285750D01*
X68810000Y-84285750D01*
X68810000Y-82510000D01*
X89112375Y-82510000D01*
X88998073Y-82624301D01*
M02*
