G04 #@! TF.FileFunction,Copper,L1,Top,Signal*
%FSLAX46Y46*%
G04 Gerber Fmt 4.6, Leading zero omitted, Abs format (unit mm)*
G04 Created by KiCad (PCBNEW 4.0.1-stable) date 2/22/2016 4:26:43 PM*
%MOMM*%
G01*
G04 APERTURE LIST*
%ADD10C,0.100000*%
%ADD11R,1.600000X1.000000*%
%ADD12R,1.900000X2.000000*%
%ADD13C,1.900000*%
%ADD14R,2.235200X2.235200*%
%ADD15R,1.000000X1.600000*%
%ADD16R,1.500000X0.600000*%
%ADD17R,1.550000X0.600000*%
%ADD18R,2.032000X2.032000*%
%ADD19O,2.032000X2.032000*%
%ADD20R,1.727200X2.032000*%
%ADD21O,1.727200X2.032000*%
%ADD22C,0.600000*%
%ADD23C,0.250000*%
%ADD24C,0.254000*%
G04 APERTURE END LIST*
D10*
D11*
X81900000Y-91000000D03*
X81900000Y-88000000D03*
X89400000Y-97500000D03*
X89400000Y-94500000D03*
X94400000Y-97500000D03*
X94400000Y-94500000D03*
X86400000Y-91000000D03*
X86400000Y-88000000D03*
D12*
X73900000Y-106500000D03*
D13*
X76440000Y-106500000D03*
D12*
X91900000Y-106500000D03*
D13*
X94440000Y-106500000D03*
D12*
X73900000Y-88500000D03*
D13*
X76440000Y-88500000D03*
D12*
X108900000Y-88500000D03*
D13*
X111440000Y-88500000D03*
D12*
X108900000Y-106500000D03*
D13*
X111440000Y-106500000D03*
D12*
X108900000Y-125500000D03*
D13*
X111440000Y-125500000D03*
D12*
X73900000Y-125500000D03*
D13*
X76440000Y-125500000D03*
D14*
X81900000Y-97000000D03*
D15*
X101400000Y-86000000D03*
X104400000Y-86000000D03*
X100900000Y-94000000D03*
X103900000Y-94000000D03*
D11*
X110400000Y-95500000D03*
X110400000Y-98500000D03*
D15*
X94900000Y-114000000D03*
X91900000Y-114000000D03*
D11*
X110400000Y-114500000D03*
X110400000Y-117500000D03*
X75400000Y-114500000D03*
X75400000Y-117500000D03*
D12*
X91900000Y-125500000D03*
D13*
X94440000Y-125500000D03*
D16*
X81700000Y-102690000D03*
X81700000Y-103960000D03*
X81700000Y-105230000D03*
X81700000Y-106500000D03*
X81700000Y-107770000D03*
X81700000Y-109040000D03*
X81700000Y-110310000D03*
X87100000Y-110310000D03*
X87100000Y-109040000D03*
X87100000Y-107770000D03*
X87100000Y-106500000D03*
X87100000Y-105230000D03*
X87100000Y-103960000D03*
X87100000Y-102690000D03*
X99200000Y-102690000D03*
X99200000Y-103960000D03*
X99200000Y-105230000D03*
X99200000Y-106500000D03*
X99200000Y-107770000D03*
X99200000Y-109040000D03*
X99200000Y-110310000D03*
X104600000Y-110310000D03*
X104600000Y-109040000D03*
X104600000Y-107770000D03*
X104600000Y-106500000D03*
X104600000Y-105230000D03*
X104600000Y-103960000D03*
X104600000Y-102690000D03*
X81700000Y-121690000D03*
X81700000Y-122960000D03*
X81700000Y-124230000D03*
X81700000Y-125500000D03*
X81700000Y-126770000D03*
X81700000Y-128040000D03*
X81700000Y-129310000D03*
X87100000Y-129310000D03*
X87100000Y-128040000D03*
X87100000Y-126770000D03*
X87100000Y-125500000D03*
X87100000Y-124230000D03*
X87100000Y-122960000D03*
X87100000Y-121690000D03*
X99200000Y-121690000D03*
X99200000Y-122960000D03*
X99200000Y-124230000D03*
X99200000Y-125500000D03*
X99200000Y-126770000D03*
X99200000Y-128040000D03*
X99200000Y-129310000D03*
X104600000Y-129310000D03*
X104600000Y-128040000D03*
X104600000Y-126770000D03*
X104600000Y-125500000D03*
X104600000Y-124230000D03*
X104600000Y-122960000D03*
X104600000Y-121690000D03*
D17*
X91700000Y-87595000D03*
X91700000Y-88865000D03*
X91700000Y-90135000D03*
X91700000Y-91405000D03*
X97100000Y-91405000D03*
X97100000Y-90135000D03*
X97100000Y-88865000D03*
X97100000Y-87595000D03*
D18*
X70300000Y-107900000D03*
D19*
X70300000Y-105360000D03*
D20*
X90400000Y-84000000D03*
D21*
X92940000Y-84000000D03*
X95480000Y-84000000D03*
D22*
X94800000Y-88700000D03*
X94000000Y-91100000D03*
X88100000Y-84000000D03*
X89800000Y-87600000D03*
X81900000Y-86400000D03*
X91300000Y-94500000D03*
X94400000Y-93000000D03*
X112400000Y-96200000D03*
X79700000Y-129300000D03*
X97000000Y-129400000D03*
X75400000Y-112800000D03*
X81700000Y-111400000D03*
X111400000Y-112700000D03*
X99200000Y-111800000D03*
X96700000Y-114000000D03*
X106200000Y-110400000D03*
X84600000Y-106400000D03*
X83400000Y-107400000D03*
X79200000Y-111500000D03*
X95300000Y-121500000D03*
X93600000Y-121500000D03*
X79200000Y-105500000D03*
X78400000Y-108100000D03*
X85400000Y-105200000D03*
X97600000Y-124200000D03*
X95400000Y-120600000D03*
X97200000Y-119000000D03*
X102800000Y-113300000D03*
X100900000Y-127900000D03*
X101900000Y-90000000D03*
X103900000Y-92000000D03*
X98600000Y-115800000D03*
X101300000Y-113200000D03*
X102600000Y-101400000D03*
X102600000Y-96600000D03*
X90300000Y-102300000D03*
X94000000Y-102200000D03*
X80600000Y-100900000D03*
X82800000Y-100900000D03*
X88600000Y-100800000D03*
X93600000Y-100800000D03*
X96400000Y-127200000D03*
X83300000Y-123000000D03*
X95400000Y-123000000D03*
X89000000Y-123000000D03*
X91100000Y-111300000D03*
X92600000Y-111300000D03*
X96500000Y-105800000D03*
X97600000Y-104000000D03*
D23*
X91700000Y-91405000D02*
X93695000Y-91405000D01*
X95905000Y-87595000D02*
X97100000Y-87595000D01*
X94800000Y-88700000D02*
X95905000Y-87595000D01*
X93695000Y-91405000D02*
X94000000Y-91100000D01*
X90400000Y-84000000D02*
X88100000Y-84000000D01*
X91700000Y-87595000D02*
X89805000Y-87595000D01*
X89805000Y-87595000D02*
X89800000Y-87600000D01*
X81900000Y-88000000D02*
X81900000Y-86400000D01*
X89400000Y-94500000D02*
X91300000Y-94500000D01*
X94400000Y-94500000D02*
X94400000Y-93000000D01*
X110400000Y-95500000D02*
X111700000Y-95500000D01*
X111700000Y-95500000D02*
X112400000Y-96200000D01*
X81700000Y-129310000D02*
X79710000Y-129310000D01*
X79710000Y-129310000D02*
X79700000Y-129300000D01*
X99200000Y-129310000D02*
X97090000Y-129310000D01*
X97090000Y-129310000D02*
X97000000Y-129400000D01*
X75400000Y-114500000D02*
X75400000Y-112800000D01*
X81700000Y-110310000D02*
X81700000Y-111400000D01*
X110400000Y-114500000D02*
X110400000Y-113700000D01*
X110400000Y-113700000D02*
X111400000Y-112700000D01*
X99200000Y-110310000D02*
X99200000Y-111800000D01*
X94900000Y-114000000D02*
X96700000Y-114000000D01*
X97100000Y-91405000D02*
X97100000Y-94800000D01*
X90400000Y-97500000D02*
X89400000Y-97500000D01*
X91900000Y-96000000D02*
X90400000Y-97500000D01*
X95900000Y-96000000D02*
X91900000Y-96000000D01*
X97100000Y-94800000D02*
X95900000Y-96000000D01*
X91700000Y-88865000D02*
X90035000Y-88865000D01*
X87900000Y-91000000D02*
X86400000Y-91000000D01*
X90035000Y-88865000D02*
X87900000Y-91000000D01*
X97100000Y-90135000D02*
X94535000Y-90135000D01*
X93265000Y-88865000D02*
X91700000Y-88865000D01*
X94535000Y-90135000D02*
X93265000Y-88865000D01*
X100900000Y-94000000D02*
X100900000Y-91500000D01*
X99535000Y-90135000D02*
X97100000Y-90135000D01*
X100900000Y-91500000D02*
X99535000Y-90135000D01*
X100900000Y-94000000D02*
X99900000Y-94000000D01*
X96400000Y-97500000D02*
X94400000Y-97500000D01*
X99900000Y-94000000D02*
X96400000Y-97500000D01*
X92940000Y-84000000D02*
X92940000Y-84960000D01*
X92940000Y-84960000D02*
X91700000Y-86200000D01*
X91700000Y-86200000D02*
X88200000Y-86200000D01*
X88200000Y-86200000D02*
X86400000Y-88000000D01*
X86400000Y-88000000D02*
X86400000Y-87500000D01*
X111440000Y-106500000D02*
X111440000Y-106860000D01*
X111440000Y-106860000D02*
X107900000Y-110400000D01*
X107900000Y-110400000D02*
X106200000Y-110400000D01*
X84600000Y-106400000D02*
X83600000Y-107400000D01*
X83600000Y-107400000D02*
X83400000Y-107400000D01*
X87100000Y-124230000D02*
X85530000Y-124230000D01*
X79200000Y-118600000D02*
X79200000Y-111500000D01*
X80800000Y-120200000D02*
X79200000Y-118600000D01*
X82400000Y-120200000D02*
X80800000Y-120200000D01*
X83200000Y-121000000D02*
X82400000Y-120200000D01*
X83200000Y-121900000D02*
X83200000Y-121000000D01*
X85530000Y-124230000D02*
X83200000Y-121900000D01*
X87100000Y-124230000D02*
X89070000Y-124230000D01*
X95490000Y-121690000D02*
X99200000Y-121690000D01*
X95300000Y-121500000D02*
X95490000Y-121690000D01*
X91800000Y-121500000D02*
X93600000Y-121500000D01*
X89070000Y-124230000D02*
X91800000Y-121500000D01*
X91900000Y-106500000D02*
X91900000Y-114000000D01*
X81700000Y-121690000D02*
X79190000Y-121690000D01*
X79470000Y-105230000D02*
X81700000Y-105230000D01*
X79200000Y-105500000D02*
X79470000Y-105230000D01*
X78400000Y-120900000D02*
X78400000Y-108100000D01*
X79190000Y-121690000D02*
X78400000Y-120900000D01*
X81700000Y-105230000D02*
X85370000Y-105230000D01*
X85370000Y-105230000D02*
X85400000Y-105200000D01*
X99200000Y-124230000D02*
X99200000Y-125500000D01*
X99200000Y-124230000D02*
X97630000Y-124230000D01*
X97630000Y-124230000D02*
X97600000Y-124200000D01*
X108900000Y-88500000D02*
X108900000Y-90800000D01*
X95600000Y-120600000D02*
X95400000Y-120600000D01*
X97200000Y-119000000D02*
X95600000Y-120600000D01*
X103300000Y-112800000D02*
X102800000Y-113300000D01*
X108400000Y-112800000D02*
X103300000Y-112800000D01*
X114400000Y-106800000D02*
X108400000Y-112800000D01*
X114400000Y-96300000D02*
X114400000Y-106800000D01*
X108900000Y-90800000D02*
X114400000Y-96300000D01*
X99200000Y-128040000D02*
X100760000Y-128040000D01*
X100760000Y-128040000D02*
X100900000Y-127900000D01*
X108900000Y-106500000D02*
X108900000Y-100000000D01*
X108900000Y-100000000D02*
X110400000Y-98500000D01*
X108900000Y-125500000D02*
X108900000Y-119000000D01*
X108900000Y-119000000D02*
X110400000Y-117500000D01*
X73900000Y-125500000D02*
X73900000Y-119000000D01*
X73900000Y-119000000D02*
X75400000Y-117500000D01*
X81900000Y-97000000D02*
X81900000Y-102490000D01*
X81900000Y-102490000D02*
X81700000Y-102690000D01*
X91700000Y-90135000D02*
X90765000Y-90135000D01*
X83900000Y-97000000D02*
X81900000Y-97000000D01*
X90765000Y-90135000D02*
X83900000Y-97000000D01*
X103900000Y-94000000D02*
X103900000Y-92000000D01*
X101400000Y-89500000D02*
X101400000Y-88000000D01*
X101900000Y-90000000D02*
X101400000Y-89500000D01*
X101400000Y-86000000D02*
X101400000Y-88000000D01*
X100535000Y-88865000D02*
X97100000Y-88865000D01*
X101400000Y-88000000D02*
X100535000Y-88865000D01*
X104400000Y-86000000D02*
X104400000Y-88800000D01*
X94440000Y-119960000D02*
X94440000Y-125500000D01*
X98600000Y-115800000D02*
X94440000Y-119960000D01*
X102600000Y-111900000D02*
X101300000Y-113200000D01*
X102600000Y-101400000D02*
X102600000Y-111900000D01*
X102600000Y-90600000D02*
X102600000Y-96600000D01*
X104400000Y-88800000D02*
X102600000Y-90600000D01*
X99200000Y-105230000D02*
X97430000Y-105230000D01*
X82740000Y-103960000D02*
X81700000Y-103960000D01*
X85200000Y-101500000D02*
X82740000Y-103960000D01*
X89500000Y-101500000D02*
X85200000Y-101500000D01*
X90300000Y-102300000D02*
X89500000Y-101500000D01*
X94400000Y-102200000D02*
X94000000Y-102200000D01*
X97430000Y-105230000D02*
X94400000Y-102200000D01*
X99200000Y-102690000D02*
X97290000Y-102690000D01*
X78450000Y-103050000D02*
X78450000Y-106950000D01*
X80600000Y-100900000D02*
X78450000Y-103050000D01*
X88500000Y-100900000D02*
X82800000Y-100900000D01*
X88600000Y-100800000D02*
X88500000Y-100900000D01*
X95400000Y-100800000D02*
X93600000Y-100800000D01*
X97290000Y-102690000D02*
X95400000Y-100800000D01*
X81700000Y-122960000D02*
X83260000Y-122960000D01*
X96830000Y-126770000D02*
X99200000Y-126770000D01*
X96400000Y-127200000D02*
X96830000Y-126770000D01*
X83260000Y-122960000D02*
X83300000Y-123000000D01*
X81700000Y-106500000D02*
X78900000Y-106500000D01*
X78260000Y-122960000D02*
X81700000Y-122960000D01*
X77500000Y-122200000D02*
X78260000Y-122960000D01*
X77500000Y-107900000D02*
X77500000Y-122200000D01*
X78900000Y-106500000D02*
X78600000Y-106800000D01*
X78600000Y-106800000D02*
X78450000Y-106950000D01*
X78450000Y-106950000D02*
X77500000Y-107900000D01*
X87100000Y-122960000D02*
X88960000Y-122960000D01*
X95440000Y-122960000D02*
X99200000Y-122960000D01*
X95400000Y-123000000D02*
X95440000Y-122960000D01*
X88960000Y-122960000D02*
X89000000Y-123000000D01*
X99200000Y-103960000D02*
X97640000Y-103960000D01*
X91100000Y-111300000D02*
X84200000Y-111300000D01*
X96500000Y-107400000D02*
X92600000Y-111300000D01*
X96500000Y-105800000D02*
X96500000Y-107400000D01*
X97640000Y-103960000D02*
X97600000Y-104000000D01*
X81700000Y-107770000D02*
X82770000Y-107770000D01*
X84960000Y-122960000D02*
X87100000Y-122960000D01*
X84200000Y-122200000D02*
X84960000Y-122960000D01*
X84200000Y-109200000D02*
X84200000Y-111300000D01*
X84200000Y-111300000D02*
X84200000Y-122200000D01*
X82770000Y-107770000D02*
X84200000Y-109200000D01*
D24*
G36*
X89084959Y-82519910D02*
X88939969Y-82732110D01*
X88888960Y-82984000D01*
X88888960Y-83240000D01*
X88662463Y-83240000D01*
X88630327Y-83207808D01*
X88286799Y-83065162D01*
X87914833Y-83064838D01*
X87571057Y-83206883D01*
X87307808Y-83469673D01*
X87165162Y-83813201D01*
X87164838Y-84185167D01*
X87306883Y-84528943D01*
X87569673Y-84792192D01*
X87913201Y-84934838D01*
X88285167Y-84935162D01*
X88628943Y-84793117D01*
X88662118Y-84760000D01*
X88888960Y-84760000D01*
X88888960Y-85016000D01*
X88933238Y-85251317D01*
X89054652Y-85440000D01*
X88200000Y-85440000D01*
X87957414Y-85488254D01*
X87909160Y-85497852D01*
X87662599Y-85662599D01*
X86554471Y-86770727D01*
X86400000Y-86740000D01*
X86109161Y-86797852D01*
X86027284Y-86852560D01*
X85600000Y-86852560D01*
X85364683Y-86896838D01*
X85148559Y-87035910D01*
X85003569Y-87248110D01*
X84952560Y-87500000D01*
X84952560Y-88500000D01*
X84996838Y-88735317D01*
X85135910Y-88951441D01*
X85348110Y-89096431D01*
X85600000Y-89147440D01*
X87200000Y-89147440D01*
X87435317Y-89103162D01*
X87651441Y-88964090D01*
X87796431Y-88751890D01*
X87847440Y-88500000D01*
X87847440Y-87627362D01*
X88514802Y-86960000D01*
X89117673Y-86960000D01*
X89007808Y-87069673D01*
X88865162Y-87413201D01*
X88864838Y-87785167D01*
X89006883Y-88128943D01*
X89269673Y-88392192D01*
X89385083Y-88440115D01*
X87708157Y-90117041D01*
X87664090Y-90048559D01*
X87451890Y-89903569D01*
X87200000Y-89852560D01*
X85600000Y-89852560D01*
X85364683Y-89896838D01*
X85148559Y-90035910D01*
X85003569Y-90248110D01*
X84952560Y-90500000D01*
X84952560Y-91500000D01*
X84996838Y-91735317D01*
X85135910Y-91951441D01*
X85348110Y-92096431D01*
X85600000Y-92147440D01*
X87200000Y-92147440D01*
X87435317Y-92103162D01*
X87651441Y-91964090D01*
X87790890Y-91760000D01*
X87900000Y-91760000D01*
X88106218Y-91718980D01*
X83665040Y-96160158D01*
X83665040Y-95882400D01*
X83620762Y-95647083D01*
X83481690Y-95430959D01*
X83269490Y-95285969D01*
X83017600Y-95234960D01*
X80782400Y-95234960D01*
X80547083Y-95279238D01*
X80330959Y-95418310D01*
X80185969Y-95630510D01*
X80134960Y-95882400D01*
X80134960Y-98117600D01*
X80179238Y-98352917D01*
X80318310Y-98569041D01*
X80530510Y-98714031D01*
X80782400Y-98765040D01*
X81140000Y-98765040D01*
X81140000Y-100117498D01*
X81130327Y-100107808D01*
X80786799Y-99965162D01*
X80414833Y-99964838D01*
X80071057Y-100106883D01*
X79807808Y-100369673D01*
X79665162Y-100713201D01*
X79665121Y-100760077D01*
X77912599Y-102512599D01*
X77747852Y-102759161D01*
X77690000Y-103050000D01*
X77690000Y-105508697D01*
X77339003Y-105157086D01*
X76756659Y-104915276D01*
X76126107Y-104914725D01*
X75543343Y-105155519D01*
X75445663Y-105253029D01*
X75314090Y-105048559D01*
X75101890Y-104903569D01*
X74850000Y-104852560D01*
X72950000Y-104852560D01*
X72714683Y-104896838D01*
X72498559Y-105035910D01*
X72353569Y-105248110D01*
X72302560Y-105500000D01*
X72302560Y-107500000D01*
X72346838Y-107735317D01*
X72485910Y-107951441D01*
X72698110Y-108096431D01*
X72950000Y-108147440D01*
X74850000Y-108147440D01*
X75085317Y-108103162D01*
X75301441Y-107964090D01*
X75446431Y-107751890D01*
X75447055Y-107748808D01*
X75540997Y-107842914D01*
X76123341Y-108084724D01*
X76740000Y-108085263D01*
X76740000Y-113666526D01*
X76664090Y-113548559D01*
X76451890Y-113403569D01*
X76200000Y-113352560D01*
X76169920Y-113352560D01*
X76192192Y-113330327D01*
X76334838Y-112986799D01*
X76335162Y-112614833D01*
X76193117Y-112271057D01*
X75930327Y-112007808D01*
X75586799Y-111865162D01*
X75214833Y-111864838D01*
X74871057Y-112006883D01*
X74607808Y-112269673D01*
X74465162Y-112613201D01*
X74464838Y-112985167D01*
X74606883Y-113328943D01*
X74630459Y-113352560D01*
X74600000Y-113352560D01*
X74364683Y-113396838D01*
X74148559Y-113535910D01*
X74003569Y-113748110D01*
X73952560Y-114000000D01*
X73952560Y-115000000D01*
X73996838Y-115235317D01*
X74135910Y-115451441D01*
X74348110Y-115596431D01*
X74600000Y-115647440D01*
X76200000Y-115647440D01*
X76435317Y-115603162D01*
X76651441Y-115464090D01*
X76740000Y-115334480D01*
X76740000Y-116666526D01*
X76664090Y-116548559D01*
X76451890Y-116403569D01*
X76200000Y-116352560D01*
X74600000Y-116352560D01*
X74364683Y-116396838D01*
X74148559Y-116535910D01*
X74003569Y-116748110D01*
X73952560Y-117000000D01*
X73952560Y-117872638D01*
X73362599Y-118462599D01*
X73197852Y-118709161D01*
X73140000Y-119000000D01*
X73140000Y-123852560D01*
X72950000Y-123852560D01*
X72714683Y-123896838D01*
X72498559Y-124035910D01*
X72353569Y-124248110D01*
X72302560Y-124500000D01*
X72302560Y-126500000D01*
X72346838Y-126735317D01*
X72485910Y-126951441D01*
X72698110Y-127096431D01*
X72950000Y-127147440D01*
X74850000Y-127147440D01*
X75085317Y-127103162D01*
X75301441Y-126964090D01*
X75446431Y-126751890D01*
X75447055Y-126748808D01*
X75540997Y-126842914D01*
X76123341Y-127084724D01*
X76753893Y-127085275D01*
X77336657Y-126844481D01*
X77782914Y-126399003D01*
X78024724Y-125816659D01*
X78025275Y-125186107D01*
X77784481Y-124603343D01*
X77339003Y-124157086D01*
X76756659Y-123915276D01*
X76126107Y-123914725D01*
X75543343Y-124155519D01*
X75445663Y-124253029D01*
X75314090Y-124048559D01*
X75101890Y-123903569D01*
X74850000Y-123852560D01*
X74660000Y-123852560D01*
X74660000Y-119314802D01*
X75327362Y-118647440D01*
X76200000Y-118647440D01*
X76435317Y-118603162D01*
X76651441Y-118464090D01*
X76740000Y-118334480D01*
X76740000Y-122200000D01*
X76797852Y-122490839D01*
X76962599Y-122737401D01*
X77722599Y-123497401D01*
X77969160Y-123662148D01*
X78260000Y-123720000D01*
X80345086Y-123720000D01*
X80302560Y-123930000D01*
X80302560Y-124530000D01*
X80346838Y-124765317D01*
X80410678Y-124864528D01*
X80353569Y-124948110D01*
X80302560Y-125200000D01*
X80302560Y-125800000D01*
X80346838Y-126035317D01*
X80410678Y-126134528D01*
X80353569Y-126218110D01*
X80302560Y-126470000D01*
X80302560Y-127070000D01*
X80346838Y-127305317D01*
X80410678Y-127404528D01*
X80353569Y-127488110D01*
X80302560Y-127740000D01*
X80302560Y-128340000D01*
X80342074Y-128550000D01*
X80272445Y-128550000D01*
X80230327Y-128507808D01*
X79886799Y-128365162D01*
X79514833Y-128364838D01*
X79171057Y-128506883D01*
X78907808Y-128769673D01*
X78765162Y-129113201D01*
X78764838Y-129485167D01*
X78906883Y-129828943D01*
X79169673Y-130092192D01*
X79513201Y-130234838D01*
X79885167Y-130235162D01*
X80228943Y-130093117D01*
X80252100Y-130070000D01*
X80498437Y-130070000D01*
X80698110Y-130206431D01*
X80950000Y-130257440D01*
X82450000Y-130257440D01*
X82685317Y-130213162D01*
X82901441Y-130074090D01*
X83046431Y-129861890D01*
X83097440Y-129610000D01*
X83097440Y-129010000D01*
X83053162Y-128774683D01*
X82989322Y-128675472D01*
X83046431Y-128591890D01*
X83097440Y-128340000D01*
X83097440Y-127740000D01*
X83053162Y-127504683D01*
X82989322Y-127405472D01*
X83046431Y-127321890D01*
X83097440Y-127070000D01*
X83097440Y-126470000D01*
X83053162Y-126234683D01*
X82989322Y-126135472D01*
X83046431Y-126051890D01*
X83097440Y-125800000D01*
X83097440Y-125200000D01*
X83053162Y-124964683D01*
X82989322Y-124865472D01*
X83046431Y-124781890D01*
X83097440Y-124530000D01*
X83097440Y-123930000D01*
X83097092Y-123928149D01*
X83113201Y-123934838D01*
X83485167Y-123935162D01*
X83828943Y-123793117D01*
X83923712Y-123698514D01*
X84992599Y-124767401D01*
X85239161Y-124932148D01*
X85530000Y-124990000D01*
X85745086Y-124990000D01*
X85702560Y-125200000D01*
X85702560Y-125800000D01*
X85746838Y-126035317D01*
X85810678Y-126134528D01*
X85753569Y-126218110D01*
X85702560Y-126470000D01*
X85702560Y-127070000D01*
X85746838Y-127305317D01*
X85810678Y-127404528D01*
X85753569Y-127488110D01*
X85702560Y-127740000D01*
X85702560Y-128340000D01*
X85746838Y-128575317D01*
X85810678Y-128674528D01*
X85753569Y-128758110D01*
X85702560Y-129010000D01*
X85702560Y-129610000D01*
X85746838Y-129845317D01*
X85885910Y-130061441D01*
X86098110Y-130206431D01*
X86350000Y-130257440D01*
X87850000Y-130257440D01*
X88085317Y-130213162D01*
X88301441Y-130074090D01*
X88446431Y-129861890D01*
X88497440Y-129610000D01*
X88497440Y-129010000D01*
X88453162Y-128774683D01*
X88389322Y-128675472D01*
X88446431Y-128591890D01*
X88497440Y-128340000D01*
X88497440Y-127740000D01*
X88453162Y-127504683D01*
X88389322Y-127405472D01*
X88446431Y-127321890D01*
X88497440Y-127070000D01*
X88497440Y-126470000D01*
X88453162Y-126234683D01*
X88389322Y-126135472D01*
X88446431Y-126051890D01*
X88497440Y-125800000D01*
X88497440Y-125785750D01*
X90315000Y-125785750D01*
X90315000Y-126626309D01*
X90411673Y-126859698D01*
X90590301Y-127038327D01*
X90823690Y-127135000D01*
X91614250Y-127135000D01*
X91773000Y-126976250D01*
X91773000Y-125627000D01*
X90473750Y-125627000D01*
X90315000Y-125785750D01*
X88497440Y-125785750D01*
X88497440Y-125200000D01*
X88457926Y-124990000D01*
X89070000Y-124990000D01*
X89360839Y-124932148D01*
X89607401Y-124767401D01*
X90001111Y-124373691D01*
X90315000Y-124373691D01*
X90315000Y-125214250D01*
X90473750Y-125373000D01*
X91773000Y-125373000D01*
X91773000Y-124023750D01*
X91614250Y-123865000D01*
X90823690Y-123865000D01*
X90590301Y-123961673D01*
X90411673Y-124140302D01*
X90315000Y-124373691D01*
X90001111Y-124373691D01*
X92114802Y-122260000D01*
X93037537Y-122260000D01*
X93069673Y-122292192D01*
X93413201Y-122434838D01*
X93680000Y-122435070D01*
X93680000Y-124099053D01*
X93543343Y-124155519D01*
X93438133Y-124260545D01*
X93388327Y-124140302D01*
X93209699Y-123961673D01*
X92976310Y-123865000D01*
X92185750Y-123865000D01*
X92027000Y-124023750D01*
X92027000Y-125373000D01*
X92047000Y-125373000D01*
X92047000Y-125627000D01*
X92027000Y-125627000D01*
X92027000Y-126976250D01*
X92185750Y-127135000D01*
X92976310Y-127135000D01*
X93209699Y-127038327D01*
X93388327Y-126859698D01*
X93438012Y-126739749D01*
X93540997Y-126842914D01*
X94123341Y-127084724D01*
X94753893Y-127085275D01*
X95336657Y-126844481D01*
X95782914Y-126399003D01*
X96024724Y-125816659D01*
X96025275Y-125186107D01*
X95784481Y-124603343D01*
X95339003Y-124157086D01*
X95200000Y-124099367D01*
X95200000Y-123929356D01*
X95213201Y-123934838D01*
X95585167Y-123935162D01*
X95928943Y-123793117D01*
X96002188Y-123720000D01*
X96786910Y-123720000D01*
X96665162Y-124013201D01*
X96664838Y-124385167D01*
X96806883Y-124728943D01*
X97069673Y-124992192D01*
X97413201Y-125134838D01*
X97785167Y-125135162D01*
X97818477Y-125121399D01*
X97802560Y-125200000D01*
X97802560Y-125800000D01*
X97842074Y-126010000D01*
X96830000Y-126010000D01*
X96539161Y-126067852D01*
X96292599Y-126232599D01*
X96260320Y-126264878D01*
X96214833Y-126264838D01*
X95871057Y-126406883D01*
X95607808Y-126669673D01*
X95465162Y-127013201D01*
X95464838Y-127385167D01*
X95606883Y-127728943D01*
X95869673Y-127992192D01*
X96213201Y-128134838D01*
X96585167Y-128135162D01*
X96928943Y-127993117D01*
X97192192Y-127730327D01*
X97275375Y-127530000D01*
X97845086Y-127530000D01*
X97802560Y-127740000D01*
X97802560Y-128340000D01*
X97842074Y-128550000D01*
X97391111Y-128550000D01*
X97186799Y-128465162D01*
X96814833Y-128464838D01*
X96471057Y-128606883D01*
X96207808Y-128869673D01*
X96065162Y-129213201D01*
X96064838Y-129585167D01*
X96206883Y-129928943D01*
X96469673Y-130192192D01*
X96813201Y-130334838D01*
X97185167Y-130335162D01*
X97528943Y-130193117D01*
X97652275Y-130070000D01*
X97998437Y-130070000D01*
X98198110Y-130206431D01*
X98450000Y-130257440D01*
X99950000Y-130257440D01*
X100185317Y-130213162D01*
X100401441Y-130074090D01*
X100546431Y-129861890D01*
X100597440Y-129610000D01*
X100597440Y-129010000D01*
X100557926Y-128800000D01*
X100629302Y-128800000D01*
X100713201Y-128834838D01*
X101085167Y-128835162D01*
X101428943Y-128693117D01*
X101692192Y-128430327D01*
X101834838Y-128086799D01*
X101835162Y-127714833D01*
X101693117Y-127371057D01*
X101430327Y-127107808D01*
X101086799Y-126965162D01*
X100714833Y-126964838D01*
X100597440Y-127013344D01*
X100597440Y-126470000D01*
X100553162Y-126234683D01*
X100489322Y-126135472D01*
X100546431Y-126051890D01*
X100597440Y-125800000D01*
X100597440Y-125200000D01*
X100553162Y-124964683D01*
X100489322Y-124865472D01*
X100546431Y-124781890D01*
X100597440Y-124530000D01*
X100597440Y-123930000D01*
X100553162Y-123694683D01*
X100489322Y-123595472D01*
X100546431Y-123511890D01*
X100597440Y-123260000D01*
X100597440Y-122660000D01*
X103202560Y-122660000D01*
X103202560Y-123260000D01*
X103246838Y-123495317D01*
X103310678Y-123594528D01*
X103253569Y-123678110D01*
X103202560Y-123930000D01*
X103202560Y-124530000D01*
X103246838Y-124765317D01*
X103310678Y-124864528D01*
X103253569Y-124948110D01*
X103202560Y-125200000D01*
X103202560Y-125800000D01*
X103246838Y-126035317D01*
X103310678Y-126134528D01*
X103253569Y-126218110D01*
X103202560Y-126470000D01*
X103202560Y-127070000D01*
X103246838Y-127305317D01*
X103310678Y-127404528D01*
X103253569Y-127488110D01*
X103202560Y-127740000D01*
X103202560Y-128340000D01*
X103246838Y-128575317D01*
X103310678Y-128674528D01*
X103253569Y-128758110D01*
X103202560Y-129010000D01*
X103202560Y-129610000D01*
X103246838Y-129845317D01*
X103385910Y-130061441D01*
X103598110Y-130206431D01*
X103850000Y-130257440D01*
X105350000Y-130257440D01*
X105585317Y-130213162D01*
X105801441Y-130074090D01*
X105946431Y-129861890D01*
X105997440Y-129610000D01*
X105997440Y-129010000D01*
X105953162Y-128774683D01*
X105889322Y-128675472D01*
X105946431Y-128591890D01*
X105997440Y-128340000D01*
X105997440Y-127740000D01*
X105953162Y-127504683D01*
X105889322Y-127405472D01*
X105946431Y-127321890D01*
X105997440Y-127070000D01*
X105997440Y-126470000D01*
X105953162Y-126234683D01*
X105889322Y-126135472D01*
X105946431Y-126051890D01*
X105997440Y-125800000D01*
X105997440Y-125200000D01*
X105953162Y-124964683D01*
X105889322Y-124865472D01*
X105946431Y-124781890D01*
X105997440Y-124530000D01*
X105997440Y-124500000D01*
X107302560Y-124500000D01*
X107302560Y-126500000D01*
X107346838Y-126735317D01*
X107485910Y-126951441D01*
X107698110Y-127096431D01*
X107950000Y-127147440D01*
X109850000Y-127147440D01*
X110085317Y-127103162D01*
X110301441Y-126964090D01*
X110446431Y-126751890D01*
X110447055Y-126748808D01*
X110540997Y-126842914D01*
X111123341Y-127084724D01*
X111753893Y-127085275D01*
X112336657Y-126844481D01*
X112782914Y-126399003D01*
X113024724Y-125816659D01*
X113025275Y-125186107D01*
X112784481Y-124603343D01*
X112339003Y-124157086D01*
X111756659Y-123915276D01*
X111126107Y-123914725D01*
X110543343Y-124155519D01*
X110445663Y-124253029D01*
X110314090Y-124048559D01*
X110101890Y-123903569D01*
X109850000Y-123852560D01*
X109660000Y-123852560D01*
X109660000Y-119314802D01*
X110327362Y-118647440D01*
X111200000Y-118647440D01*
X111435317Y-118603162D01*
X111651441Y-118464090D01*
X111796431Y-118251890D01*
X111847440Y-118000000D01*
X111847440Y-117000000D01*
X111803162Y-116764683D01*
X111664090Y-116548559D01*
X111451890Y-116403569D01*
X111200000Y-116352560D01*
X109600000Y-116352560D01*
X109364683Y-116396838D01*
X109148559Y-116535910D01*
X109003569Y-116748110D01*
X108952560Y-117000000D01*
X108952560Y-117872638D01*
X108362599Y-118462599D01*
X108197852Y-118709161D01*
X108140000Y-119000000D01*
X108140000Y-123852560D01*
X107950000Y-123852560D01*
X107714683Y-123896838D01*
X107498559Y-124035910D01*
X107353569Y-124248110D01*
X107302560Y-124500000D01*
X105997440Y-124500000D01*
X105997440Y-123930000D01*
X105953162Y-123694683D01*
X105889322Y-123595472D01*
X105946431Y-123511890D01*
X105997440Y-123260000D01*
X105997440Y-122660000D01*
X105953162Y-122424683D01*
X105894822Y-122334020D01*
X105985000Y-122116310D01*
X105985000Y-121975750D01*
X105826250Y-121817000D01*
X104727000Y-121817000D01*
X104727000Y-121837000D01*
X104473000Y-121837000D01*
X104473000Y-121817000D01*
X103373750Y-121817000D01*
X103215000Y-121975750D01*
X103215000Y-122116310D01*
X103304806Y-122333122D01*
X103253569Y-122408110D01*
X103202560Y-122660000D01*
X100597440Y-122660000D01*
X100553162Y-122424683D01*
X100489322Y-122325472D01*
X100546431Y-122241890D01*
X100597440Y-121990000D01*
X100597440Y-121390000D01*
X100573674Y-121263690D01*
X103215000Y-121263690D01*
X103215000Y-121404250D01*
X103373750Y-121563000D01*
X104473000Y-121563000D01*
X104473000Y-120913750D01*
X104727000Y-120913750D01*
X104727000Y-121563000D01*
X105826250Y-121563000D01*
X105985000Y-121404250D01*
X105985000Y-121263690D01*
X105888327Y-121030301D01*
X105709698Y-120851673D01*
X105476309Y-120755000D01*
X104885750Y-120755000D01*
X104727000Y-120913750D01*
X104473000Y-120913750D01*
X104314250Y-120755000D01*
X103723691Y-120755000D01*
X103490302Y-120851673D01*
X103311673Y-121030301D01*
X103215000Y-121263690D01*
X100573674Y-121263690D01*
X100553162Y-121154683D01*
X100414090Y-120938559D01*
X100201890Y-120793569D01*
X99950000Y-120742560D01*
X98450000Y-120742560D01*
X98214683Y-120786838D01*
X97998559Y-120925910D01*
X97995764Y-120930000D01*
X96344802Y-120930000D01*
X97339680Y-119935122D01*
X97385167Y-119935162D01*
X97728943Y-119793117D01*
X97992192Y-119530327D01*
X98134838Y-119186799D01*
X98135162Y-118814833D01*
X97993117Y-118471057D01*
X97730327Y-118207808D01*
X97402938Y-118071864D01*
X98739680Y-116735122D01*
X98785167Y-116735162D01*
X99128943Y-116593117D01*
X99392192Y-116330327D01*
X99534838Y-115986799D01*
X99535162Y-115614833D01*
X99393117Y-115271057D01*
X99130327Y-115007808D01*
X98786799Y-114865162D01*
X98414833Y-114864838D01*
X98071057Y-115006883D01*
X97807808Y-115269673D01*
X97665162Y-115613201D01*
X97665121Y-115660077D01*
X93902599Y-119422599D01*
X93737852Y-119669161D01*
X93680000Y-119960000D01*
X93680000Y-120565069D01*
X93414833Y-120564838D01*
X93071057Y-120706883D01*
X93037882Y-120740000D01*
X91800000Y-120740000D01*
X91509161Y-120797852D01*
X91262599Y-120962599D01*
X89773646Y-122451552D01*
X89530327Y-122207808D01*
X89186799Y-122065162D01*
X88814833Y-122064838D01*
X88487715Y-122200000D01*
X88450334Y-122200000D01*
X88485000Y-122116310D01*
X88485000Y-121975750D01*
X88326250Y-121817000D01*
X87227000Y-121817000D01*
X87227000Y-121837000D01*
X86973000Y-121837000D01*
X86973000Y-121817000D01*
X85873750Y-121817000D01*
X85715000Y-121975750D01*
X85715000Y-122116310D01*
X85749666Y-122200000D01*
X85274802Y-122200000D01*
X84960000Y-121885198D01*
X84960000Y-121263690D01*
X85715000Y-121263690D01*
X85715000Y-121404250D01*
X85873750Y-121563000D01*
X86973000Y-121563000D01*
X86973000Y-120913750D01*
X87227000Y-120913750D01*
X87227000Y-121563000D01*
X88326250Y-121563000D01*
X88485000Y-121404250D01*
X88485000Y-121263690D01*
X88388327Y-121030301D01*
X88209698Y-120851673D01*
X87976309Y-120755000D01*
X87385750Y-120755000D01*
X87227000Y-120913750D01*
X86973000Y-120913750D01*
X86814250Y-120755000D01*
X86223691Y-120755000D01*
X85990302Y-120851673D01*
X85811673Y-121030301D01*
X85715000Y-121263690D01*
X84960000Y-121263690D01*
X84960000Y-112060000D01*
X90537537Y-112060000D01*
X90569673Y-112092192D01*
X90913201Y-112234838D01*
X91140000Y-112235036D01*
X91140000Y-112612721D01*
X90948559Y-112735910D01*
X90803569Y-112948110D01*
X90752560Y-113200000D01*
X90752560Y-114800000D01*
X90796838Y-115035317D01*
X90935910Y-115251441D01*
X91148110Y-115396431D01*
X91400000Y-115447440D01*
X92400000Y-115447440D01*
X92635317Y-115403162D01*
X92851441Y-115264090D01*
X92996431Y-115051890D01*
X93047440Y-114800000D01*
X93047440Y-113200000D01*
X93752560Y-113200000D01*
X93752560Y-114800000D01*
X93796838Y-115035317D01*
X93935910Y-115251441D01*
X94148110Y-115396431D01*
X94400000Y-115447440D01*
X95400000Y-115447440D01*
X95635317Y-115403162D01*
X95851441Y-115264090D01*
X95996431Y-115051890D01*
X96047440Y-114800000D01*
X96047440Y-114760000D01*
X96137537Y-114760000D01*
X96169673Y-114792192D01*
X96513201Y-114934838D01*
X96885167Y-114935162D01*
X97228943Y-114793117D01*
X97492192Y-114530327D01*
X97634838Y-114186799D01*
X97635162Y-113814833D01*
X97493117Y-113471057D01*
X97407377Y-113385167D01*
X100364838Y-113385167D01*
X100506883Y-113728943D01*
X100769673Y-113992192D01*
X101113201Y-114134838D01*
X101485167Y-114135162D01*
X101828943Y-113993117D01*
X102002947Y-113819417D01*
X102006883Y-113828943D01*
X102269673Y-114092192D01*
X102613201Y-114234838D01*
X102985167Y-114235162D01*
X103328943Y-114093117D01*
X103422222Y-114000000D01*
X108952560Y-114000000D01*
X108952560Y-115000000D01*
X108996838Y-115235317D01*
X109135910Y-115451441D01*
X109348110Y-115596431D01*
X109600000Y-115647440D01*
X111200000Y-115647440D01*
X111435317Y-115603162D01*
X111651441Y-115464090D01*
X111796431Y-115251890D01*
X111847440Y-115000000D01*
X111847440Y-114000000D01*
X111803162Y-113764683D01*
X111691536Y-113591211D01*
X111928943Y-113493117D01*
X112192192Y-113230327D01*
X112334838Y-112886799D01*
X112335162Y-112514833D01*
X112193117Y-112171057D01*
X111930327Y-111907808D01*
X111586799Y-111765162D01*
X111214833Y-111764838D01*
X110871057Y-111906883D01*
X110607808Y-112169673D01*
X110465162Y-112513201D01*
X110465121Y-112560077D01*
X109862599Y-113162599D01*
X109735671Y-113352560D01*
X109600000Y-113352560D01*
X109364683Y-113396838D01*
X109148559Y-113535910D01*
X109003569Y-113748110D01*
X108952560Y-114000000D01*
X103422222Y-114000000D01*
X103592192Y-113830327D01*
X103704442Y-113560000D01*
X108400000Y-113560000D01*
X108690839Y-113502148D01*
X108937401Y-113337401D01*
X114937401Y-107337401D01*
X115102148Y-107090840D01*
X115160000Y-106800000D01*
X115160000Y-96300000D01*
X115102148Y-96009161D01*
X114937401Y-95762599D01*
X109660000Y-90485198D01*
X109660000Y-90147440D01*
X109850000Y-90147440D01*
X110085317Y-90103162D01*
X110301441Y-89964090D01*
X110446431Y-89751890D01*
X110447055Y-89748808D01*
X110540997Y-89842914D01*
X111123341Y-90084724D01*
X111753893Y-90085275D01*
X112336657Y-89844481D01*
X112782914Y-89399003D01*
X113024724Y-88816659D01*
X113025275Y-88186107D01*
X112784481Y-87603343D01*
X112339003Y-87157086D01*
X111756659Y-86915276D01*
X111126107Y-86914725D01*
X110543343Y-87155519D01*
X110445663Y-87253029D01*
X110314090Y-87048559D01*
X110101890Y-86903569D01*
X109850000Y-86852560D01*
X107950000Y-86852560D01*
X107714683Y-86896838D01*
X107498559Y-87035910D01*
X107353569Y-87248110D01*
X107302560Y-87500000D01*
X107302560Y-89500000D01*
X107346838Y-89735317D01*
X107485910Y-89951441D01*
X107698110Y-90096431D01*
X107950000Y-90147440D01*
X108140000Y-90147440D01*
X108140000Y-90800000D01*
X108197852Y-91090839D01*
X108362599Y-91337401D01*
X111422895Y-94397697D01*
X111200000Y-94352560D01*
X109600000Y-94352560D01*
X109364683Y-94396838D01*
X109148559Y-94535910D01*
X109003569Y-94748110D01*
X108952560Y-95000000D01*
X108952560Y-96000000D01*
X108996838Y-96235317D01*
X109135910Y-96451441D01*
X109348110Y-96596431D01*
X109600000Y-96647440D01*
X111200000Y-96647440D01*
X111435317Y-96603162D01*
X111529792Y-96542369D01*
X111606883Y-96728943D01*
X111869673Y-96992192D01*
X112213201Y-97134838D01*
X112585167Y-97135162D01*
X112928943Y-96993117D01*
X113192192Y-96730327D01*
X113334838Y-96386799D01*
X113334905Y-96309707D01*
X113640000Y-96614802D01*
X113640000Y-106485198D01*
X112823190Y-107302008D01*
X113024724Y-106816659D01*
X113025275Y-106186107D01*
X112784481Y-105603343D01*
X112339003Y-105157086D01*
X111756659Y-104915276D01*
X111126107Y-104914725D01*
X110543343Y-105155519D01*
X110445663Y-105253029D01*
X110314090Y-105048559D01*
X110101890Y-104903569D01*
X109850000Y-104852560D01*
X109660000Y-104852560D01*
X109660000Y-100314802D01*
X110327362Y-99647440D01*
X111200000Y-99647440D01*
X111435317Y-99603162D01*
X111651441Y-99464090D01*
X111796431Y-99251890D01*
X111847440Y-99000000D01*
X111847440Y-98000000D01*
X111803162Y-97764683D01*
X111664090Y-97548559D01*
X111451890Y-97403569D01*
X111200000Y-97352560D01*
X109600000Y-97352560D01*
X109364683Y-97396838D01*
X109148559Y-97535910D01*
X109003569Y-97748110D01*
X108952560Y-98000000D01*
X108952560Y-98872638D01*
X108362599Y-99462599D01*
X108197852Y-99709161D01*
X108140000Y-100000000D01*
X108140000Y-104852560D01*
X107950000Y-104852560D01*
X107714683Y-104896838D01*
X107498559Y-105035910D01*
X107353569Y-105248110D01*
X107302560Y-105500000D01*
X107302560Y-107500000D01*
X107346838Y-107735317D01*
X107485910Y-107951441D01*
X107698110Y-108096431D01*
X107950000Y-108147440D01*
X109077758Y-108147440D01*
X107585198Y-109640000D01*
X106762463Y-109640000D01*
X106730327Y-109607808D01*
X106386799Y-109465162D01*
X106014833Y-109464838D01*
X105968263Y-109484080D01*
X105997440Y-109340000D01*
X105997440Y-108740000D01*
X105953162Y-108504683D01*
X105889322Y-108405472D01*
X105946431Y-108321890D01*
X105997440Y-108070000D01*
X105997440Y-107470000D01*
X105953162Y-107234683D01*
X105889322Y-107135472D01*
X105946431Y-107051890D01*
X105997440Y-106800000D01*
X105997440Y-106200000D01*
X105953162Y-105964683D01*
X105889322Y-105865472D01*
X105946431Y-105781890D01*
X105997440Y-105530000D01*
X105997440Y-104930000D01*
X105953162Y-104694683D01*
X105889322Y-104595472D01*
X105946431Y-104511890D01*
X105997440Y-104260000D01*
X105997440Y-103660000D01*
X105953162Y-103424683D01*
X105894822Y-103334020D01*
X105985000Y-103116310D01*
X105985000Y-102975750D01*
X105826250Y-102817000D01*
X104727000Y-102817000D01*
X104727000Y-102837000D01*
X104473000Y-102837000D01*
X104473000Y-102817000D01*
X104453000Y-102817000D01*
X104453000Y-102563000D01*
X104473000Y-102563000D01*
X104473000Y-101913750D01*
X104727000Y-101913750D01*
X104727000Y-102563000D01*
X105826250Y-102563000D01*
X105985000Y-102404250D01*
X105985000Y-102263690D01*
X105888327Y-102030301D01*
X105709698Y-101851673D01*
X105476309Y-101755000D01*
X104885750Y-101755000D01*
X104727000Y-101913750D01*
X104473000Y-101913750D01*
X104314250Y-101755000D01*
X103723691Y-101755000D01*
X103490302Y-101851673D01*
X103360000Y-101981974D01*
X103360000Y-101962463D01*
X103392192Y-101930327D01*
X103534838Y-101586799D01*
X103535162Y-101214833D01*
X103393117Y-100871057D01*
X103130327Y-100607808D01*
X102786799Y-100465162D01*
X102414833Y-100464838D01*
X102071057Y-100606883D01*
X101807808Y-100869673D01*
X101665162Y-101213201D01*
X101664838Y-101585167D01*
X101806883Y-101928943D01*
X101840000Y-101962118D01*
X101840000Y-111585198D01*
X101160320Y-112264878D01*
X101114833Y-112264838D01*
X100771057Y-112406883D01*
X100507808Y-112669673D01*
X100365162Y-113013201D01*
X100364838Y-113385167D01*
X97407377Y-113385167D01*
X97230327Y-113207808D01*
X96886799Y-113065162D01*
X96514833Y-113064838D01*
X96171057Y-113206883D01*
X96137882Y-113240000D01*
X96047440Y-113240000D01*
X96047440Y-113200000D01*
X96003162Y-112964683D01*
X95864090Y-112748559D01*
X95651890Y-112603569D01*
X95400000Y-112552560D01*
X94400000Y-112552560D01*
X94164683Y-112596838D01*
X93948559Y-112735910D01*
X93803569Y-112948110D01*
X93752560Y-113200000D01*
X93047440Y-113200000D01*
X93003162Y-112964683D01*
X92864090Y-112748559D01*
X92660000Y-112609110D01*
X92660000Y-112235053D01*
X92785167Y-112235162D01*
X93128943Y-112093117D01*
X93392192Y-111830327D01*
X93534838Y-111486799D01*
X93534879Y-111439923D01*
X97037401Y-107937401D01*
X97202148Y-107690839D01*
X97260000Y-107400000D01*
X97260000Y-106362463D01*
X97292192Y-106330327D01*
X97433509Y-105990000D01*
X97845086Y-105990000D01*
X97802560Y-106200000D01*
X97802560Y-106800000D01*
X97846838Y-107035317D01*
X97910678Y-107134528D01*
X97853569Y-107218110D01*
X97802560Y-107470000D01*
X97802560Y-108070000D01*
X97846838Y-108305317D01*
X97910678Y-108404528D01*
X97853569Y-108488110D01*
X97802560Y-108740000D01*
X97802560Y-109340000D01*
X97846838Y-109575317D01*
X97910678Y-109674528D01*
X97853569Y-109758110D01*
X97802560Y-110010000D01*
X97802560Y-110610000D01*
X97846838Y-110845317D01*
X97985910Y-111061441D01*
X98198110Y-111206431D01*
X98425111Y-111252400D01*
X98407808Y-111269673D01*
X98265162Y-111613201D01*
X98264838Y-111985167D01*
X98406883Y-112328943D01*
X98669673Y-112592192D01*
X99013201Y-112734838D01*
X99385167Y-112735162D01*
X99728943Y-112593117D01*
X99992192Y-112330327D01*
X100134838Y-111986799D01*
X100135162Y-111614833D01*
X99993117Y-111271057D01*
X99974855Y-111252763D01*
X100185317Y-111213162D01*
X100401441Y-111074090D01*
X100546431Y-110861890D01*
X100597440Y-110610000D01*
X100597440Y-110010000D01*
X100553162Y-109774683D01*
X100489322Y-109675472D01*
X100546431Y-109591890D01*
X100597440Y-109340000D01*
X100597440Y-108740000D01*
X100553162Y-108504683D01*
X100489322Y-108405472D01*
X100546431Y-108321890D01*
X100597440Y-108070000D01*
X100597440Y-107470000D01*
X100553162Y-107234683D01*
X100489322Y-107135472D01*
X100546431Y-107051890D01*
X100597440Y-106800000D01*
X100597440Y-106200000D01*
X100553162Y-105964683D01*
X100489322Y-105865472D01*
X100546431Y-105781890D01*
X100597440Y-105530000D01*
X100597440Y-104930000D01*
X100553162Y-104694683D01*
X100489322Y-104595472D01*
X100546431Y-104511890D01*
X100597440Y-104260000D01*
X100597440Y-103660000D01*
X100553162Y-103424683D01*
X100489322Y-103325472D01*
X100546431Y-103241890D01*
X100597440Y-102990000D01*
X100597440Y-102390000D01*
X100553162Y-102154683D01*
X100414090Y-101938559D01*
X100201890Y-101793569D01*
X99950000Y-101742560D01*
X98450000Y-101742560D01*
X98214683Y-101786838D01*
X97998559Y-101925910D01*
X97995764Y-101930000D01*
X97604802Y-101930000D01*
X95937401Y-100262599D01*
X95690839Y-100097852D01*
X95400000Y-100040000D01*
X94162463Y-100040000D01*
X94130327Y-100007808D01*
X93786799Y-99865162D01*
X93414833Y-99864838D01*
X93071057Y-100006883D01*
X92807808Y-100269673D01*
X92665162Y-100613201D01*
X92664838Y-100985167D01*
X92806883Y-101328943D01*
X93069673Y-101592192D01*
X93222044Y-101655462D01*
X93207808Y-101669673D01*
X93065162Y-102013201D01*
X93064838Y-102385167D01*
X93206883Y-102728943D01*
X93469673Y-102992192D01*
X93813201Y-103134838D01*
X94185167Y-103135162D01*
X94238375Y-103113177D01*
X96085001Y-104959803D01*
X95971057Y-105006883D01*
X95707808Y-105269673D01*
X95632482Y-105451078D01*
X95339003Y-105157086D01*
X94756659Y-104915276D01*
X94126107Y-104914725D01*
X93543343Y-105155519D01*
X93445663Y-105253029D01*
X93314090Y-105048559D01*
X93101890Y-104903569D01*
X92850000Y-104852560D01*
X90950000Y-104852560D01*
X90714683Y-104896838D01*
X90498559Y-105035910D01*
X90353569Y-105248110D01*
X90302560Y-105500000D01*
X90302560Y-107500000D01*
X90346838Y-107735317D01*
X90485910Y-107951441D01*
X90698110Y-108096431D01*
X90950000Y-108147440D01*
X91140000Y-108147440D01*
X91140000Y-110365034D01*
X90914833Y-110364838D01*
X90571057Y-110506883D01*
X90537882Y-110540000D01*
X88497440Y-110540000D01*
X88497440Y-110010000D01*
X88453162Y-109774683D01*
X88389322Y-109675472D01*
X88446431Y-109591890D01*
X88497440Y-109340000D01*
X88497440Y-108740000D01*
X88453162Y-108504683D01*
X88389322Y-108405472D01*
X88446431Y-108321890D01*
X88497440Y-108070000D01*
X88497440Y-107470000D01*
X88453162Y-107234683D01*
X88389322Y-107135472D01*
X88446431Y-107051890D01*
X88497440Y-106800000D01*
X88497440Y-106200000D01*
X88453162Y-105964683D01*
X88389322Y-105865472D01*
X88446431Y-105781890D01*
X88497440Y-105530000D01*
X88497440Y-104930000D01*
X88453162Y-104694683D01*
X88389322Y-104595472D01*
X88446431Y-104511890D01*
X88497440Y-104260000D01*
X88497440Y-103660000D01*
X88453162Y-103424683D01*
X88394822Y-103334020D01*
X88485000Y-103116310D01*
X88485000Y-102975750D01*
X88326250Y-102817000D01*
X87227000Y-102817000D01*
X87227000Y-102837000D01*
X86973000Y-102837000D01*
X86973000Y-102817000D01*
X85873750Y-102817000D01*
X85715000Y-102975750D01*
X85715000Y-103116310D01*
X85804806Y-103333122D01*
X85753569Y-103408110D01*
X85702560Y-103660000D01*
X85702560Y-104260000D01*
X85713425Y-104317742D01*
X85586799Y-104265162D01*
X85214833Y-104264838D01*
X84871057Y-104406883D01*
X84807830Y-104470000D01*
X83304802Y-104470000D01*
X85514802Y-102260000D01*
X85716528Y-102260000D01*
X85715000Y-102263690D01*
X85715000Y-102404250D01*
X85873750Y-102563000D01*
X86973000Y-102563000D01*
X86973000Y-102543000D01*
X87227000Y-102543000D01*
X87227000Y-102563000D01*
X88326250Y-102563000D01*
X88485000Y-102404250D01*
X88485000Y-102263690D01*
X88483472Y-102260000D01*
X89185198Y-102260000D01*
X89364878Y-102439680D01*
X89364838Y-102485167D01*
X89506883Y-102828943D01*
X89769673Y-103092192D01*
X90113201Y-103234838D01*
X90485167Y-103235162D01*
X90828943Y-103093117D01*
X91092192Y-102830327D01*
X91234838Y-102486799D01*
X91235162Y-102114833D01*
X91093117Y-101771057D01*
X90830327Y-101507808D01*
X90486799Y-101365162D01*
X90439923Y-101365121D01*
X90037401Y-100962599D01*
X89790839Y-100797852D01*
X89535047Y-100746971D01*
X89535162Y-100614833D01*
X89393117Y-100271057D01*
X89130327Y-100007808D01*
X88786799Y-99865162D01*
X88414833Y-99864838D01*
X88071057Y-100006883D01*
X87937707Y-100140000D01*
X83362463Y-100140000D01*
X83330327Y-100107808D01*
X82986799Y-99965162D01*
X82660000Y-99964877D01*
X82660000Y-98765040D01*
X83017600Y-98765040D01*
X83252917Y-98720762D01*
X83469041Y-98581690D01*
X83614031Y-98369490D01*
X83665040Y-98117600D01*
X83665040Y-97760000D01*
X83900000Y-97760000D01*
X84190839Y-97702148D01*
X84437401Y-97537401D01*
X87952560Y-94022242D01*
X87952560Y-95000000D01*
X87996838Y-95235317D01*
X88135910Y-95451441D01*
X88348110Y-95596431D01*
X88600000Y-95647440D01*
X90200000Y-95647440D01*
X90435317Y-95603162D01*
X90651441Y-95464090D01*
X90769210Y-95291729D01*
X90769673Y-95292192D01*
X91113201Y-95434838D01*
X91403767Y-95435091D01*
X91362599Y-95462599D01*
X90426725Y-96398473D01*
X90200000Y-96352560D01*
X88600000Y-96352560D01*
X88364683Y-96396838D01*
X88148559Y-96535910D01*
X88003569Y-96748110D01*
X87952560Y-97000000D01*
X87952560Y-98000000D01*
X87996838Y-98235317D01*
X88135910Y-98451441D01*
X88348110Y-98596431D01*
X88600000Y-98647440D01*
X90200000Y-98647440D01*
X90435317Y-98603162D01*
X90651441Y-98464090D01*
X90796431Y-98251890D01*
X90824604Y-98112770D01*
X90937401Y-98037401D01*
X92214802Y-96760000D01*
X93001161Y-96760000D01*
X92952560Y-97000000D01*
X92952560Y-98000000D01*
X92996838Y-98235317D01*
X93135910Y-98451441D01*
X93348110Y-98596431D01*
X93600000Y-98647440D01*
X95200000Y-98647440D01*
X95435317Y-98603162D01*
X95651441Y-98464090D01*
X95790890Y-98260000D01*
X96400000Y-98260000D01*
X96690839Y-98202148D01*
X96937401Y-98037401D01*
X99852689Y-95122113D01*
X99935910Y-95251441D01*
X100148110Y-95396431D01*
X100400000Y-95447440D01*
X101400000Y-95447440D01*
X101635317Y-95403162D01*
X101840000Y-95271452D01*
X101840000Y-96037537D01*
X101807808Y-96069673D01*
X101665162Y-96413201D01*
X101664838Y-96785167D01*
X101806883Y-97128943D01*
X102069673Y-97392192D01*
X102413201Y-97534838D01*
X102785167Y-97535162D01*
X103128943Y-97393117D01*
X103392192Y-97130327D01*
X103534838Y-96786799D01*
X103535162Y-96414833D01*
X103393117Y-96071057D01*
X103360000Y-96037882D01*
X103360000Y-95439340D01*
X103400000Y-95447440D01*
X104400000Y-95447440D01*
X104635317Y-95403162D01*
X104851441Y-95264090D01*
X104996431Y-95051890D01*
X105047440Y-94800000D01*
X105047440Y-93200000D01*
X105003162Y-92964683D01*
X104864090Y-92748559D01*
X104660000Y-92609110D01*
X104660000Y-92562463D01*
X104692192Y-92530327D01*
X104834838Y-92186799D01*
X104835162Y-91814833D01*
X104693117Y-91471057D01*
X104430327Y-91207808D01*
X104086799Y-91065162D01*
X103714833Y-91064838D01*
X103371057Y-91206883D01*
X103360000Y-91217921D01*
X103360000Y-90914802D01*
X104937401Y-89337401D01*
X105102148Y-89090840D01*
X105127360Y-88964090D01*
X105160000Y-88800000D01*
X105160000Y-87387279D01*
X105351441Y-87264090D01*
X105496431Y-87051890D01*
X105547440Y-86800000D01*
X105547440Y-85200000D01*
X105503162Y-84964683D01*
X105364090Y-84748559D01*
X105151890Y-84603569D01*
X104900000Y-84552560D01*
X103900000Y-84552560D01*
X103664683Y-84596838D01*
X103448559Y-84735910D01*
X103303569Y-84948110D01*
X103252560Y-85200000D01*
X103252560Y-86800000D01*
X103296838Y-87035317D01*
X103435910Y-87251441D01*
X103640000Y-87390890D01*
X103640000Y-88485198D01*
X102673646Y-89451552D01*
X102430327Y-89207808D01*
X102160000Y-89095558D01*
X102160000Y-87387279D01*
X102351441Y-87264090D01*
X102496431Y-87051890D01*
X102547440Y-86800000D01*
X102547440Y-85200000D01*
X102503162Y-84964683D01*
X102364090Y-84748559D01*
X102151890Y-84603569D01*
X101900000Y-84552560D01*
X100900000Y-84552560D01*
X100664683Y-84596838D01*
X100448559Y-84735910D01*
X100303569Y-84948110D01*
X100252560Y-85200000D01*
X100252560Y-86800000D01*
X100296838Y-87035317D01*
X100435910Y-87251441D01*
X100640000Y-87390890D01*
X100640000Y-87685198D01*
X100220198Y-88105000D01*
X98475334Y-88105000D01*
X98510000Y-88021310D01*
X98510000Y-87880750D01*
X98351250Y-87722000D01*
X97227000Y-87722000D01*
X97227000Y-87742000D01*
X96973000Y-87742000D01*
X96973000Y-87722000D01*
X95848750Y-87722000D01*
X95690000Y-87880750D01*
X95690000Y-88021310D01*
X95779806Y-88238122D01*
X95728569Y-88313110D01*
X95677560Y-88565000D01*
X95677560Y-89165000D01*
X95717074Y-89375000D01*
X94849802Y-89375000D01*
X93802401Y-88327599D01*
X93555839Y-88162852D01*
X93265000Y-88105000D01*
X93079914Y-88105000D01*
X93122440Y-87895000D01*
X93122440Y-87295000D01*
X93098674Y-87168690D01*
X95690000Y-87168690D01*
X95690000Y-87309250D01*
X95848750Y-87468000D01*
X96973000Y-87468000D01*
X96973000Y-86818750D01*
X97227000Y-86818750D01*
X97227000Y-87468000D01*
X98351250Y-87468000D01*
X98510000Y-87309250D01*
X98510000Y-87168690D01*
X98413327Y-86935301D01*
X98234698Y-86756673D01*
X98001309Y-86660000D01*
X97385750Y-86660000D01*
X97227000Y-86818750D01*
X96973000Y-86818750D01*
X96814250Y-86660000D01*
X96198691Y-86660000D01*
X95965302Y-86756673D01*
X95786673Y-86935301D01*
X95690000Y-87168690D01*
X93098674Y-87168690D01*
X93078162Y-87059683D01*
X92939090Y-86843559D01*
X92726890Y-86698569D01*
X92475000Y-86647560D01*
X92327242Y-86647560D01*
X93378725Y-85596077D01*
X93513489Y-85569271D01*
X93999670Y-85244415D01*
X94210000Y-84929634D01*
X94420330Y-85244415D01*
X94906511Y-85569271D01*
X95480000Y-85683345D01*
X96053489Y-85569271D01*
X96539670Y-85244415D01*
X96864526Y-84758234D01*
X96978600Y-84184745D01*
X96978600Y-83815255D01*
X96864526Y-83241766D01*
X96539670Y-82755585D01*
X96172126Y-82510000D01*
X117390000Y-82510000D01*
X117390000Y-131090000D01*
X68810000Y-131090000D01*
X68810000Y-109340025D01*
X68924301Y-109454327D01*
X69157690Y-109551000D01*
X70014250Y-109551000D01*
X70173000Y-109392250D01*
X70173000Y-108027000D01*
X70427000Y-108027000D01*
X70427000Y-109392250D01*
X70585750Y-109551000D01*
X71442310Y-109551000D01*
X71675699Y-109454327D01*
X71854327Y-109275698D01*
X71951000Y-109042309D01*
X71951000Y-108185750D01*
X71792250Y-108027000D01*
X70427000Y-108027000D01*
X70173000Y-108027000D01*
X70153000Y-108027000D01*
X70153000Y-107773000D01*
X70173000Y-107773000D01*
X70173000Y-107753000D01*
X70427000Y-107753000D01*
X70427000Y-107773000D01*
X71792250Y-107773000D01*
X71951000Y-107614250D01*
X71951000Y-106757691D01*
X71854327Y-106524302D01*
X71675699Y-106345673D01*
X71624628Y-106324519D01*
X71825325Y-106024155D01*
X71951000Y-105392345D01*
X71951000Y-105327655D01*
X71825325Y-104695845D01*
X71467433Y-104160222D01*
X70931810Y-103802330D01*
X70300000Y-103676655D01*
X69668190Y-103802330D01*
X69132567Y-104160222D01*
X68810000Y-104642977D01*
X68810000Y-91285750D01*
X80465000Y-91285750D01*
X80465000Y-91626309D01*
X80561673Y-91859698D01*
X80740301Y-92038327D01*
X80973690Y-92135000D01*
X81614250Y-92135000D01*
X81773000Y-91976250D01*
X81773000Y-91127000D01*
X82027000Y-91127000D01*
X82027000Y-91976250D01*
X82185750Y-92135000D01*
X82826310Y-92135000D01*
X83059699Y-92038327D01*
X83238327Y-91859698D01*
X83335000Y-91626309D01*
X83335000Y-91285750D01*
X83176250Y-91127000D01*
X82027000Y-91127000D01*
X81773000Y-91127000D01*
X80623750Y-91127000D01*
X80465000Y-91285750D01*
X68810000Y-91285750D01*
X68810000Y-90373691D01*
X80465000Y-90373691D01*
X80465000Y-90714250D01*
X80623750Y-90873000D01*
X81773000Y-90873000D01*
X81773000Y-90023750D01*
X82027000Y-90023750D01*
X82027000Y-90873000D01*
X83176250Y-90873000D01*
X83335000Y-90714250D01*
X83335000Y-90373691D01*
X83238327Y-90140302D01*
X83059699Y-89961673D01*
X82826310Y-89865000D01*
X82185750Y-89865000D01*
X82027000Y-90023750D01*
X81773000Y-90023750D01*
X81614250Y-89865000D01*
X80973690Y-89865000D01*
X80740301Y-89961673D01*
X80561673Y-90140302D01*
X80465000Y-90373691D01*
X68810000Y-90373691D01*
X68810000Y-87500000D01*
X72302560Y-87500000D01*
X72302560Y-89500000D01*
X72346838Y-89735317D01*
X72485910Y-89951441D01*
X72698110Y-90096431D01*
X72950000Y-90147440D01*
X74850000Y-90147440D01*
X75085317Y-90103162D01*
X75301441Y-89964090D01*
X75446431Y-89751890D01*
X75447055Y-89748808D01*
X75540997Y-89842914D01*
X76123341Y-90084724D01*
X76753893Y-90085275D01*
X77336657Y-89844481D01*
X77782914Y-89399003D01*
X78024724Y-88816659D01*
X78025275Y-88186107D01*
X77784481Y-87603343D01*
X77681319Y-87500000D01*
X80452560Y-87500000D01*
X80452560Y-88500000D01*
X80496838Y-88735317D01*
X80635910Y-88951441D01*
X80848110Y-89096431D01*
X81100000Y-89147440D01*
X82700000Y-89147440D01*
X82935317Y-89103162D01*
X83151441Y-88964090D01*
X83296431Y-88751890D01*
X83347440Y-88500000D01*
X83347440Y-87500000D01*
X83303162Y-87264683D01*
X83164090Y-87048559D01*
X82951890Y-86903569D01*
X82722585Y-86857134D01*
X82834838Y-86586799D01*
X82835162Y-86214833D01*
X82693117Y-85871057D01*
X82430327Y-85607808D01*
X82086799Y-85465162D01*
X81714833Y-85464838D01*
X81371057Y-85606883D01*
X81107808Y-85869673D01*
X80965162Y-86213201D01*
X80964838Y-86585167D01*
X81077102Y-86856868D01*
X80864683Y-86896838D01*
X80648559Y-87035910D01*
X80503569Y-87248110D01*
X80452560Y-87500000D01*
X77681319Y-87500000D01*
X77339003Y-87157086D01*
X76756659Y-86915276D01*
X76126107Y-86914725D01*
X75543343Y-87155519D01*
X75445663Y-87253029D01*
X75314090Y-87048559D01*
X75101890Y-86903569D01*
X74850000Y-86852560D01*
X72950000Y-86852560D01*
X72714683Y-86896838D01*
X72498559Y-87035910D01*
X72353569Y-87248110D01*
X72302560Y-87500000D01*
X68810000Y-87500000D01*
X68810000Y-82510000D01*
X89100360Y-82510000D01*
X89084959Y-82519910D01*
X89084959Y-82519910D01*
G37*
X89084959Y-82519910D02*
X88939969Y-82732110D01*
X88888960Y-82984000D01*
X88888960Y-83240000D01*
X88662463Y-83240000D01*
X88630327Y-83207808D01*
X88286799Y-83065162D01*
X87914833Y-83064838D01*
X87571057Y-83206883D01*
X87307808Y-83469673D01*
X87165162Y-83813201D01*
X87164838Y-84185167D01*
X87306883Y-84528943D01*
X87569673Y-84792192D01*
X87913201Y-84934838D01*
X88285167Y-84935162D01*
X88628943Y-84793117D01*
X88662118Y-84760000D01*
X88888960Y-84760000D01*
X88888960Y-85016000D01*
X88933238Y-85251317D01*
X89054652Y-85440000D01*
X88200000Y-85440000D01*
X87957414Y-85488254D01*
X87909160Y-85497852D01*
X87662599Y-85662599D01*
X86554471Y-86770727D01*
X86400000Y-86740000D01*
X86109161Y-86797852D01*
X86027284Y-86852560D01*
X85600000Y-86852560D01*
X85364683Y-86896838D01*
X85148559Y-87035910D01*
X85003569Y-87248110D01*
X84952560Y-87500000D01*
X84952560Y-88500000D01*
X84996838Y-88735317D01*
X85135910Y-88951441D01*
X85348110Y-89096431D01*
X85600000Y-89147440D01*
X87200000Y-89147440D01*
X87435317Y-89103162D01*
X87651441Y-88964090D01*
X87796431Y-88751890D01*
X87847440Y-88500000D01*
X87847440Y-87627362D01*
X88514802Y-86960000D01*
X89117673Y-86960000D01*
X89007808Y-87069673D01*
X88865162Y-87413201D01*
X88864838Y-87785167D01*
X89006883Y-88128943D01*
X89269673Y-88392192D01*
X89385083Y-88440115D01*
X87708157Y-90117041D01*
X87664090Y-90048559D01*
X87451890Y-89903569D01*
X87200000Y-89852560D01*
X85600000Y-89852560D01*
X85364683Y-89896838D01*
X85148559Y-90035910D01*
X85003569Y-90248110D01*
X84952560Y-90500000D01*
X84952560Y-91500000D01*
X84996838Y-91735317D01*
X85135910Y-91951441D01*
X85348110Y-92096431D01*
X85600000Y-92147440D01*
X87200000Y-92147440D01*
X87435317Y-92103162D01*
X87651441Y-91964090D01*
X87790890Y-91760000D01*
X87900000Y-91760000D01*
X88106218Y-91718980D01*
X83665040Y-96160158D01*
X83665040Y-95882400D01*
X83620762Y-95647083D01*
X83481690Y-95430959D01*
X83269490Y-95285969D01*
X83017600Y-95234960D01*
X80782400Y-95234960D01*
X80547083Y-95279238D01*
X80330959Y-95418310D01*
X80185969Y-95630510D01*
X80134960Y-95882400D01*
X80134960Y-98117600D01*
X80179238Y-98352917D01*
X80318310Y-98569041D01*
X80530510Y-98714031D01*
X80782400Y-98765040D01*
X81140000Y-98765040D01*
X81140000Y-100117498D01*
X81130327Y-100107808D01*
X80786799Y-99965162D01*
X80414833Y-99964838D01*
X80071057Y-100106883D01*
X79807808Y-100369673D01*
X79665162Y-100713201D01*
X79665121Y-100760077D01*
X77912599Y-102512599D01*
X77747852Y-102759161D01*
X77690000Y-103050000D01*
X77690000Y-105508697D01*
X77339003Y-105157086D01*
X76756659Y-104915276D01*
X76126107Y-104914725D01*
X75543343Y-105155519D01*
X75445663Y-105253029D01*
X75314090Y-105048559D01*
X75101890Y-104903569D01*
X74850000Y-104852560D01*
X72950000Y-104852560D01*
X72714683Y-104896838D01*
X72498559Y-105035910D01*
X72353569Y-105248110D01*
X72302560Y-105500000D01*
X72302560Y-107500000D01*
X72346838Y-107735317D01*
X72485910Y-107951441D01*
X72698110Y-108096431D01*
X72950000Y-108147440D01*
X74850000Y-108147440D01*
X75085317Y-108103162D01*
X75301441Y-107964090D01*
X75446431Y-107751890D01*
X75447055Y-107748808D01*
X75540997Y-107842914D01*
X76123341Y-108084724D01*
X76740000Y-108085263D01*
X76740000Y-113666526D01*
X76664090Y-113548559D01*
X76451890Y-113403569D01*
X76200000Y-113352560D01*
X76169920Y-113352560D01*
X76192192Y-113330327D01*
X76334838Y-112986799D01*
X76335162Y-112614833D01*
X76193117Y-112271057D01*
X75930327Y-112007808D01*
X75586799Y-111865162D01*
X75214833Y-111864838D01*
X74871057Y-112006883D01*
X74607808Y-112269673D01*
X74465162Y-112613201D01*
X74464838Y-112985167D01*
X74606883Y-113328943D01*
X74630459Y-113352560D01*
X74600000Y-113352560D01*
X74364683Y-113396838D01*
X74148559Y-113535910D01*
X74003569Y-113748110D01*
X73952560Y-114000000D01*
X73952560Y-115000000D01*
X73996838Y-115235317D01*
X74135910Y-115451441D01*
X74348110Y-115596431D01*
X74600000Y-115647440D01*
X76200000Y-115647440D01*
X76435317Y-115603162D01*
X76651441Y-115464090D01*
X76740000Y-115334480D01*
X76740000Y-116666526D01*
X76664090Y-116548559D01*
X76451890Y-116403569D01*
X76200000Y-116352560D01*
X74600000Y-116352560D01*
X74364683Y-116396838D01*
X74148559Y-116535910D01*
X74003569Y-116748110D01*
X73952560Y-117000000D01*
X73952560Y-117872638D01*
X73362599Y-118462599D01*
X73197852Y-118709161D01*
X73140000Y-119000000D01*
X73140000Y-123852560D01*
X72950000Y-123852560D01*
X72714683Y-123896838D01*
X72498559Y-124035910D01*
X72353569Y-124248110D01*
X72302560Y-124500000D01*
X72302560Y-126500000D01*
X72346838Y-126735317D01*
X72485910Y-126951441D01*
X72698110Y-127096431D01*
X72950000Y-127147440D01*
X74850000Y-127147440D01*
X75085317Y-127103162D01*
X75301441Y-126964090D01*
X75446431Y-126751890D01*
X75447055Y-126748808D01*
X75540997Y-126842914D01*
X76123341Y-127084724D01*
X76753893Y-127085275D01*
X77336657Y-126844481D01*
X77782914Y-126399003D01*
X78024724Y-125816659D01*
X78025275Y-125186107D01*
X77784481Y-124603343D01*
X77339003Y-124157086D01*
X76756659Y-123915276D01*
X76126107Y-123914725D01*
X75543343Y-124155519D01*
X75445663Y-124253029D01*
X75314090Y-124048559D01*
X75101890Y-123903569D01*
X74850000Y-123852560D01*
X74660000Y-123852560D01*
X74660000Y-119314802D01*
X75327362Y-118647440D01*
X76200000Y-118647440D01*
X76435317Y-118603162D01*
X76651441Y-118464090D01*
X76740000Y-118334480D01*
X76740000Y-122200000D01*
X76797852Y-122490839D01*
X76962599Y-122737401D01*
X77722599Y-123497401D01*
X77969160Y-123662148D01*
X78260000Y-123720000D01*
X80345086Y-123720000D01*
X80302560Y-123930000D01*
X80302560Y-124530000D01*
X80346838Y-124765317D01*
X80410678Y-124864528D01*
X80353569Y-124948110D01*
X80302560Y-125200000D01*
X80302560Y-125800000D01*
X80346838Y-126035317D01*
X80410678Y-126134528D01*
X80353569Y-126218110D01*
X80302560Y-126470000D01*
X80302560Y-127070000D01*
X80346838Y-127305317D01*
X80410678Y-127404528D01*
X80353569Y-127488110D01*
X80302560Y-127740000D01*
X80302560Y-128340000D01*
X80342074Y-128550000D01*
X80272445Y-128550000D01*
X80230327Y-128507808D01*
X79886799Y-128365162D01*
X79514833Y-128364838D01*
X79171057Y-128506883D01*
X78907808Y-128769673D01*
X78765162Y-129113201D01*
X78764838Y-129485167D01*
X78906883Y-129828943D01*
X79169673Y-130092192D01*
X79513201Y-130234838D01*
X79885167Y-130235162D01*
X80228943Y-130093117D01*
X80252100Y-130070000D01*
X80498437Y-130070000D01*
X80698110Y-130206431D01*
X80950000Y-130257440D01*
X82450000Y-130257440D01*
X82685317Y-130213162D01*
X82901441Y-130074090D01*
X83046431Y-129861890D01*
X83097440Y-129610000D01*
X83097440Y-129010000D01*
X83053162Y-128774683D01*
X82989322Y-128675472D01*
X83046431Y-128591890D01*
X83097440Y-128340000D01*
X83097440Y-127740000D01*
X83053162Y-127504683D01*
X82989322Y-127405472D01*
X83046431Y-127321890D01*
X83097440Y-127070000D01*
X83097440Y-126470000D01*
X83053162Y-126234683D01*
X82989322Y-126135472D01*
X83046431Y-126051890D01*
X83097440Y-125800000D01*
X83097440Y-125200000D01*
X83053162Y-124964683D01*
X82989322Y-124865472D01*
X83046431Y-124781890D01*
X83097440Y-124530000D01*
X83097440Y-123930000D01*
X83097092Y-123928149D01*
X83113201Y-123934838D01*
X83485167Y-123935162D01*
X83828943Y-123793117D01*
X83923712Y-123698514D01*
X84992599Y-124767401D01*
X85239161Y-124932148D01*
X85530000Y-124990000D01*
X85745086Y-124990000D01*
X85702560Y-125200000D01*
X85702560Y-125800000D01*
X85746838Y-126035317D01*
X85810678Y-126134528D01*
X85753569Y-126218110D01*
X85702560Y-126470000D01*
X85702560Y-127070000D01*
X85746838Y-127305317D01*
X85810678Y-127404528D01*
X85753569Y-127488110D01*
X85702560Y-127740000D01*
X85702560Y-128340000D01*
X85746838Y-128575317D01*
X85810678Y-128674528D01*
X85753569Y-128758110D01*
X85702560Y-129010000D01*
X85702560Y-129610000D01*
X85746838Y-129845317D01*
X85885910Y-130061441D01*
X86098110Y-130206431D01*
X86350000Y-130257440D01*
X87850000Y-130257440D01*
X88085317Y-130213162D01*
X88301441Y-130074090D01*
X88446431Y-129861890D01*
X88497440Y-129610000D01*
X88497440Y-129010000D01*
X88453162Y-128774683D01*
X88389322Y-128675472D01*
X88446431Y-128591890D01*
X88497440Y-128340000D01*
X88497440Y-127740000D01*
X88453162Y-127504683D01*
X88389322Y-127405472D01*
X88446431Y-127321890D01*
X88497440Y-127070000D01*
X88497440Y-126470000D01*
X88453162Y-126234683D01*
X88389322Y-126135472D01*
X88446431Y-126051890D01*
X88497440Y-125800000D01*
X88497440Y-125785750D01*
X90315000Y-125785750D01*
X90315000Y-126626309D01*
X90411673Y-126859698D01*
X90590301Y-127038327D01*
X90823690Y-127135000D01*
X91614250Y-127135000D01*
X91773000Y-126976250D01*
X91773000Y-125627000D01*
X90473750Y-125627000D01*
X90315000Y-125785750D01*
X88497440Y-125785750D01*
X88497440Y-125200000D01*
X88457926Y-124990000D01*
X89070000Y-124990000D01*
X89360839Y-124932148D01*
X89607401Y-124767401D01*
X90001111Y-124373691D01*
X90315000Y-124373691D01*
X90315000Y-125214250D01*
X90473750Y-125373000D01*
X91773000Y-125373000D01*
X91773000Y-124023750D01*
X91614250Y-123865000D01*
X90823690Y-123865000D01*
X90590301Y-123961673D01*
X90411673Y-124140302D01*
X90315000Y-124373691D01*
X90001111Y-124373691D01*
X92114802Y-122260000D01*
X93037537Y-122260000D01*
X93069673Y-122292192D01*
X93413201Y-122434838D01*
X93680000Y-122435070D01*
X93680000Y-124099053D01*
X93543343Y-124155519D01*
X93438133Y-124260545D01*
X93388327Y-124140302D01*
X93209699Y-123961673D01*
X92976310Y-123865000D01*
X92185750Y-123865000D01*
X92027000Y-124023750D01*
X92027000Y-125373000D01*
X92047000Y-125373000D01*
X92047000Y-125627000D01*
X92027000Y-125627000D01*
X92027000Y-126976250D01*
X92185750Y-127135000D01*
X92976310Y-127135000D01*
X93209699Y-127038327D01*
X93388327Y-126859698D01*
X93438012Y-126739749D01*
X93540997Y-126842914D01*
X94123341Y-127084724D01*
X94753893Y-127085275D01*
X95336657Y-126844481D01*
X95782914Y-126399003D01*
X96024724Y-125816659D01*
X96025275Y-125186107D01*
X95784481Y-124603343D01*
X95339003Y-124157086D01*
X95200000Y-124099367D01*
X95200000Y-123929356D01*
X95213201Y-123934838D01*
X95585167Y-123935162D01*
X95928943Y-123793117D01*
X96002188Y-123720000D01*
X96786910Y-123720000D01*
X96665162Y-124013201D01*
X96664838Y-124385167D01*
X96806883Y-124728943D01*
X97069673Y-124992192D01*
X97413201Y-125134838D01*
X97785167Y-125135162D01*
X97818477Y-125121399D01*
X97802560Y-125200000D01*
X97802560Y-125800000D01*
X97842074Y-126010000D01*
X96830000Y-126010000D01*
X96539161Y-126067852D01*
X96292599Y-126232599D01*
X96260320Y-126264878D01*
X96214833Y-126264838D01*
X95871057Y-126406883D01*
X95607808Y-126669673D01*
X95465162Y-127013201D01*
X95464838Y-127385167D01*
X95606883Y-127728943D01*
X95869673Y-127992192D01*
X96213201Y-128134838D01*
X96585167Y-128135162D01*
X96928943Y-127993117D01*
X97192192Y-127730327D01*
X97275375Y-127530000D01*
X97845086Y-127530000D01*
X97802560Y-127740000D01*
X97802560Y-128340000D01*
X97842074Y-128550000D01*
X97391111Y-128550000D01*
X97186799Y-128465162D01*
X96814833Y-128464838D01*
X96471057Y-128606883D01*
X96207808Y-128869673D01*
X96065162Y-129213201D01*
X96064838Y-129585167D01*
X96206883Y-129928943D01*
X96469673Y-130192192D01*
X96813201Y-130334838D01*
X97185167Y-130335162D01*
X97528943Y-130193117D01*
X97652275Y-130070000D01*
X97998437Y-130070000D01*
X98198110Y-130206431D01*
X98450000Y-130257440D01*
X99950000Y-130257440D01*
X100185317Y-130213162D01*
X100401441Y-130074090D01*
X100546431Y-129861890D01*
X100597440Y-129610000D01*
X100597440Y-129010000D01*
X100557926Y-128800000D01*
X100629302Y-128800000D01*
X100713201Y-128834838D01*
X101085167Y-128835162D01*
X101428943Y-128693117D01*
X101692192Y-128430327D01*
X101834838Y-128086799D01*
X101835162Y-127714833D01*
X101693117Y-127371057D01*
X101430327Y-127107808D01*
X101086799Y-126965162D01*
X100714833Y-126964838D01*
X100597440Y-127013344D01*
X100597440Y-126470000D01*
X100553162Y-126234683D01*
X100489322Y-126135472D01*
X100546431Y-126051890D01*
X100597440Y-125800000D01*
X100597440Y-125200000D01*
X100553162Y-124964683D01*
X100489322Y-124865472D01*
X100546431Y-124781890D01*
X100597440Y-124530000D01*
X100597440Y-123930000D01*
X100553162Y-123694683D01*
X100489322Y-123595472D01*
X100546431Y-123511890D01*
X100597440Y-123260000D01*
X100597440Y-122660000D01*
X103202560Y-122660000D01*
X103202560Y-123260000D01*
X103246838Y-123495317D01*
X103310678Y-123594528D01*
X103253569Y-123678110D01*
X103202560Y-123930000D01*
X103202560Y-124530000D01*
X103246838Y-124765317D01*
X103310678Y-124864528D01*
X103253569Y-124948110D01*
X103202560Y-125200000D01*
X103202560Y-125800000D01*
X103246838Y-126035317D01*
X103310678Y-126134528D01*
X103253569Y-126218110D01*
X103202560Y-126470000D01*
X103202560Y-127070000D01*
X103246838Y-127305317D01*
X103310678Y-127404528D01*
X103253569Y-127488110D01*
X103202560Y-127740000D01*
X103202560Y-128340000D01*
X103246838Y-128575317D01*
X103310678Y-128674528D01*
X103253569Y-128758110D01*
X103202560Y-129010000D01*
X103202560Y-129610000D01*
X103246838Y-129845317D01*
X103385910Y-130061441D01*
X103598110Y-130206431D01*
X103850000Y-130257440D01*
X105350000Y-130257440D01*
X105585317Y-130213162D01*
X105801441Y-130074090D01*
X105946431Y-129861890D01*
X105997440Y-129610000D01*
X105997440Y-129010000D01*
X105953162Y-128774683D01*
X105889322Y-128675472D01*
X105946431Y-128591890D01*
X105997440Y-128340000D01*
X105997440Y-127740000D01*
X105953162Y-127504683D01*
X105889322Y-127405472D01*
X105946431Y-127321890D01*
X105997440Y-127070000D01*
X105997440Y-126470000D01*
X105953162Y-126234683D01*
X105889322Y-126135472D01*
X105946431Y-126051890D01*
X105997440Y-125800000D01*
X105997440Y-125200000D01*
X105953162Y-124964683D01*
X105889322Y-124865472D01*
X105946431Y-124781890D01*
X105997440Y-124530000D01*
X105997440Y-124500000D01*
X107302560Y-124500000D01*
X107302560Y-126500000D01*
X107346838Y-126735317D01*
X107485910Y-126951441D01*
X107698110Y-127096431D01*
X107950000Y-127147440D01*
X109850000Y-127147440D01*
X110085317Y-127103162D01*
X110301441Y-126964090D01*
X110446431Y-126751890D01*
X110447055Y-126748808D01*
X110540997Y-126842914D01*
X111123341Y-127084724D01*
X111753893Y-127085275D01*
X112336657Y-126844481D01*
X112782914Y-126399003D01*
X113024724Y-125816659D01*
X113025275Y-125186107D01*
X112784481Y-124603343D01*
X112339003Y-124157086D01*
X111756659Y-123915276D01*
X111126107Y-123914725D01*
X110543343Y-124155519D01*
X110445663Y-124253029D01*
X110314090Y-124048559D01*
X110101890Y-123903569D01*
X109850000Y-123852560D01*
X109660000Y-123852560D01*
X109660000Y-119314802D01*
X110327362Y-118647440D01*
X111200000Y-118647440D01*
X111435317Y-118603162D01*
X111651441Y-118464090D01*
X111796431Y-118251890D01*
X111847440Y-118000000D01*
X111847440Y-117000000D01*
X111803162Y-116764683D01*
X111664090Y-116548559D01*
X111451890Y-116403569D01*
X111200000Y-116352560D01*
X109600000Y-116352560D01*
X109364683Y-116396838D01*
X109148559Y-116535910D01*
X109003569Y-116748110D01*
X108952560Y-117000000D01*
X108952560Y-117872638D01*
X108362599Y-118462599D01*
X108197852Y-118709161D01*
X108140000Y-119000000D01*
X108140000Y-123852560D01*
X107950000Y-123852560D01*
X107714683Y-123896838D01*
X107498559Y-124035910D01*
X107353569Y-124248110D01*
X107302560Y-124500000D01*
X105997440Y-124500000D01*
X105997440Y-123930000D01*
X105953162Y-123694683D01*
X105889322Y-123595472D01*
X105946431Y-123511890D01*
X105997440Y-123260000D01*
X105997440Y-122660000D01*
X105953162Y-122424683D01*
X105894822Y-122334020D01*
X105985000Y-122116310D01*
X105985000Y-121975750D01*
X105826250Y-121817000D01*
X104727000Y-121817000D01*
X104727000Y-121837000D01*
X104473000Y-121837000D01*
X104473000Y-121817000D01*
X103373750Y-121817000D01*
X103215000Y-121975750D01*
X103215000Y-122116310D01*
X103304806Y-122333122D01*
X103253569Y-122408110D01*
X103202560Y-122660000D01*
X100597440Y-122660000D01*
X100553162Y-122424683D01*
X100489322Y-122325472D01*
X100546431Y-122241890D01*
X100597440Y-121990000D01*
X100597440Y-121390000D01*
X100573674Y-121263690D01*
X103215000Y-121263690D01*
X103215000Y-121404250D01*
X103373750Y-121563000D01*
X104473000Y-121563000D01*
X104473000Y-120913750D01*
X104727000Y-120913750D01*
X104727000Y-121563000D01*
X105826250Y-121563000D01*
X105985000Y-121404250D01*
X105985000Y-121263690D01*
X105888327Y-121030301D01*
X105709698Y-120851673D01*
X105476309Y-120755000D01*
X104885750Y-120755000D01*
X104727000Y-120913750D01*
X104473000Y-120913750D01*
X104314250Y-120755000D01*
X103723691Y-120755000D01*
X103490302Y-120851673D01*
X103311673Y-121030301D01*
X103215000Y-121263690D01*
X100573674Y-121263690D01*
X100553162Y-121154683D01*
X100414090Y-120938559D01*
X100201890Y-120793569D01*
X99950000Y-120742560D01*
X98450000Y-120742560D01*
X98214683Y-120786838D01*
X97998559Y-120925910D01*
X97995764Y-120930000D01*
X96344802Y-120930000D01*
X97339680Y-119935122D01*
X97385167Y-119935162D01*
X97728943Y-119793117D01*
X97992192Y-119530327D01*
X98134838Y-119186799D01*
X98135162Y-118814833D01*
X97993117Y-118471057D01*
X97730327Y-118207808D01*
X97402938Y-118071864D01*
X98739680Y-116735122D01*
X98785167Y-116735162D01*
X99128943Y-116593117D01*
X99392192Y-116330327D01*
X99534838Y-115986799D01*
X99535162Y-115614833D01*
X99393117Y-115271057D01*
X99130327Y-115007808D01*
X98786799Y-114865162D01*
X98414833Y-114864838D01*
X98071057Y-115006883D01*
X97807808Y-115269673D01*
X97665162Y-115613201D01*
X97665121Y-115660077D01*
X93902599Y-119422599D01*
X93737852Y-119669161D01*
X93680000Y-119960000D01*
X93680000Y-120565069D01*
X93414833Y-120564838D01*
X93071057Y-120706883D01*
X93037882Y-120740000D01*
X91800000Y-120740000D01*
X91509161Y-120797852D01*
X91262599Y-120962599D01*
X89773646Y-122451552D01*
X89530327Y-122207808D01*
X89186799Y-122065162D01*
X88814833Y-122064838D01*
X88487715Y-122200000D01*
X88450334Y-122200000D01*
X88485000Y-122116310D01*
X88485000Y-121975750D01*
X88326250Y-121817000D01*
X87227000Y-121817000D01*
X87227000Y-121837000D01*
X86973000Y-121837000D01*
X86973000Y-121817000D01*
X85873750Y-121817000D01*
X85715000Y-121975750D01*
X85715000Y-122116310D01*
X85749666Y-122200000D01*
X85274802Y-122200000D01*
X84960000Y-121885198D01*
X84960000Y-121263690D01*
X85715000Y-121263690D01*
X85715000Y-121404250D01*
X85873750Y-121563000D01*
X86973000Y-121563000D01*
X86973000Y-120913750D01*
X87227000Y-120913750D01*
X87227000Y-121563000D01*
X88326250Y-121563000D01*
X88485000Y-121404250D01*
X88485000Y-121263690D01*
X88388327Y-121030301D01*
X88209698Y-120851673D01*
X87976309Y-120755000D01*
X87385750Y-120755000D01*
X87227000Y-120913750D01*
X86973000Y-120913750D01*
X86814250Y-120755000D01*
X86223691Y-120755000D01*
X85990302Y-120851673D01*
X85811673Y-121030301D01*
X85715000Y-121263690D01*
X84960000Y-121263690D01*
X84960000Y-112060000D01*
X90537537Y-112060000D01*
X90569673Y-112092192D01*
X90913201Y-112234838D01*
X91140000Y-112235036D01*
X91140000Y-112612721D01*
X90948559Y-112735910D01*
X90803569Y-112948110D01*
X90752560Y-113200000D01*
X90752560Y-114800000D01*
X90796838Y-115035317D01*
X90935910Y-115251441D01*
X91148110Y-115396431D01*
X91400000Y-115447440D01*
X92400000Y-115447440D01*
X92635317Y-115403162D01*
X92851441Y-115264090D01*
X92996431Y-115051890D01*
X93047440Y-114800000D01*
X93047440Y-113200000D01*
X93752560Y-113200000D01*
X93752560Y-114800000D01*
X93796838Y-115035317D01*
X93935910Y-115251441D01*
X94148110Y-115396431D01*
X94400000Y-115447440D01*
X95400000Y-115447440D01*
X95635317Y-115403162D01*
X95851441Y-115264090D01*
X95996431Y-115051890D01*
X96047440Y-114800000D01*
X96047440Y-114760000D01*
X96137537Y-114760000D01*
X96169673Y-114792192D01*
X96513201Y-114934838D01*
X96885167Y-114935162D01*
X97228943Y-114793117D01*
X97492192Y-114530327D01*
X97634838Y-114186799D01*
X97635162Y-113814833D01*
X97493117Y-113471057D01*
X97407377Y-113385167D01*
X100364838Y-113385167D01*
X100506883Y-113728943D01*
X100769673Y-113992192D01*
X101113201Y-114134838D01*
X101485167Y-114135162D01*
X101828943Y-113993117D01*
X102002947Y-113819417D01*
X102006883Y-113828943D01*
X102269673Y-114092192D01*
X102613201Y-114234838D01*
X102985167Y-114235162D01*
X103328943Y-114093117D01*
X103422222Y-114000000D01*
X108952560Y-114000000D01*
X108952560Y-115000000D01*
X108996838Y-115235317D01*
X109135910Y-115451441D01*
X109348110Y-115596431D01*
X109600000Y-115647440D01*
X111200000Y-115647440D01*
X111435317Y-115603162D01*
X111651441Y-115464090D01*
X111796431Y-115251890D01*
X111847440Y-115000000D01*
X111847440Y-114000000D01*
X111803162Y-113764683D01*
X111691536Y-113591211D01*
X111928943Y-113493117D01*
X112192192Y-113230327D01*
X112334838Y-112886799D01*
X112335162Y-112514833D01*
X112193117Y-112171057D01*
X111930327Y-111907808D01*
X111586799Y-111765162D01*
X111214833Y-111764838D01*
X110871057Y-111906883D01*
X110607808Y-112169673D01*
X110465162Y-112513201D01*
X110465121Y-112560077D01*
X109862599Y-113162599D01*
X109735671Y-113352560D01*
X109600000Y-113352560D01*
X109364683Y-113396838D01*
X109148559Y-113535910D01*
X109003569Y-113748110D01*
X108952560Y-114000000D01*
X103422222Y-114000000D01*
X103592192Y-113830327D01*
X103704442Y-113560000D01*
X108400000Y-113560000D01*
X108690839Y-113502148D01*
X108937401Y-113337401D01*
X114937401Y-107337401D01*
X115102148Y-107090840D01*
X115160000Y-106800000D01*
X115160000Y-96300000D01*
X115102148Y-96009161D01*
X114937401Y-95762599D01*
X109660000Y-90485198D01*
X109660000Y-90147440D01*
X109850000Y-90147440D01*
X110085317Y-90103162D01*
X110301441Y-89964090D01*
X110446431Y-89751890D01*
X110447055Y-89748808D01*
X110540997Y-89842914D01*
X111123341Y-90084724D01*
X111753893Y-90085275D01*
X112336657Y-89844481D01*
X112782914Y-89399003D01*
X113024724Y-88816659D01*
X113025275Y-88186107D01*
X112784481Y-87603343D01*
X112339003Y-87157086D01*
X111756659Y-86915276D01*
X111126107Y-86914725D01*
X110543343Y-87155519D01*
X110445663Y-87253029D01*
X110314090Y-87048559D01*
X110101890Y-86903569D01*
X109850000Y-86852560D01*
X107950000Y-86852560D01*
X107714683Y-86896838D01*
X107498559Y-87035910D01*
X107353569Y-87248110D01*
X107302560Y-87500000D01*
X107302560Y-89500000D01*
X107346838Y-89735317D01*
X107485910Y-89951441D01*
X107698110Y-90096431D01*
X107950000Y-90147440D01*
X108140000Y-90147440D01*
X108140000Y-90800000D01*
X108197852Y-91090839D01*
X108362599Y-91337401D01*
X111422895Y-94397697D01*
X111200000Y-94352560D01*
X109600000Y-94352560D01*
X109364683Y-94396838D01*
X109148559Y-94535910D01*
X109003569Y-94748110D01*
X108952560Y-95000000D01*
X108952560Y-96000000D01*
X108996838Y-96235317D01*
X109135910Y-96451441D01*
X109348110Y-96596431D01*
X109600000Y-96647440D01*
X111200000Y-96647440D01*
X111435317Y-96603162D01*
X111529792Y-96542369D01*
X111606883Y-96728943D01*
X111869673Y-96992192D01*
X112213201Y-97134838D01*
X112585167Y-97135162D01*
X112928943Y-96993117D01*
X113192192Y-96730327D01*
X113334838Y-96386799D01*
X113334905Y-96309707D01*
X113640000Y-96614802D01*
X113640000Y-106485198D01*
X112823190Y-107302008D01*
X113024724Y-106816659D01*
X113025275Y-106186107D01*
X112784481Y-105603343D01*
X112339003Y-105157086D01*
X111756659Y-104915276D01*
X111126107Y-104914725D01*
X110543343Y-105155519D01*
X110445663Y-105253029D01*
X110314090Y-105048559D01*
X110101890Y-104903569D01*
X109850000Y-104852560D01*
X109660000Y-104852560D01*
X109660000Y-100314802D01*
X110327362Y-99647440D01*
X111200000Y-99647440D01*
X111435317Y-99603162D01*
X111651441Y-99464090D01*
X111796431Y-99251890D01*
X111847440Y-99000000D01*
X111847440Y-98000000D01*
X111803162Y-97764683D01*
X111664090Y-97548559D01*
X111451890Y-97403569D01*
X111200000Y-97352560D01*
X109600000Y-97352560D01*
X109364683Y-97396838D01*
X109148559Y-97535910D01*
X109003569Y-97748110D01*
X108952560Y-98000000D01*
X108952560Y-98872638D01*
X108362599Y-99462599D01*
X108197852Y-99709161D01*
X108140000Y-100000000D01*
X108140000Y-104852560D01*
X107950000Y-104852560D01*
X107714683Y-104896838D01*
X107498559Y-105035910D01*
X107353569Y-105248110D01*
X107302560Y-105500000D01*
X107302560Y-107500000D01*
X107346838Y-107735317D01*
X107485910Y-107951441D01*
X107698110Y-108096431D01*
X107950000Y-108147440D01*
X109077758Y-108147440D01*
X107585198Y-109640000D01*
X106762463Y-109640000D01*
X106730327Y-109607808D01*
X106386799Y-109465162D01*
X106014833Y-109464838D01*
X105968263Y-109484080D01*
X105997440Y-109340000D01*
X105997440Y-108740000D01*
X105953162Y-108504683D01*
X105889322Y-108405472D01*
X105946431Y-108321890D01*
X105997440Y-108070000D01*
X105997440Y-107470000D01*
X105953162Y-107234683D01*
X105889322Y-107135472D01*
X105946431Y-107051890D01*
X105997440Y-106800000D01*
X105997440Y-106200000D01*
X105953162Y-105964683D01*
X105889322Y-105865472D01*
X105946431Y-105781890D01*
X105997440Y-105530000D01*
X105997440Y-104930000D01*
X105953162Y-104694683D01*
X105889322Y-104595472D01*
X105946431Y-104511890D01*
X105997440Y-104260000D01*
X105997440Y-103660000D01*
X105953162Y-103424683D01*
X105894822Y-103334020D01*
X105985000Y-103116310D01*
X105985000Y-102975750D01*
X105826250Y-102817000D01*
X104727000Y-102817000D01*
X104727000Y-102837000D01*
X104473000Y-102837000D01*
X104473000Y-102817000D01*
X104453000Y-102817000D01*
X104453000Y-102563000D01*
X104473000Y-102563000D01*
X104473000Y-101913750D01*
X104727000Y-101913750D01*
X104727000Y-102563000D01*
X105826250Y-102563000D01*
X105985000Y-102404250D01*
X105985000Y-102263690D01*
X105888327Y-102030301D01*
X105709698Y-101851673D01*
X105476309Y-101755000D01*
X104885750Y-101755000D01*
X104727000Y-101913750D01*
X104473000Y-101913750D01*
X104314250Y-101755000D01*
X103723691Y-101755000D01*
X103490302Y-101851673D01*
X103360000Y-101981974D01*
X103360000Y-101962463D01*
X103392192Y-101930327D01*
X103534838Y-101586799D01*
X103535162Y-101214833D01*
X103393117Y-100871057D01*
X103130327Y-100607808D01*
X102786799Y-100465162D01*
X102414833Y-100464838D01*
X102071057Y-100606883D01*
X101807808Y-100869673D01*
X101665162Y-101213201D01*
X101664838Y-101585167D01*
X101806883Y-101928943D01*
X101840000Y-101962118D01*
X101840000Y-111585198D01*
X101160320Y-112264878D01*
X101114833Y-112264838D01*
X100771057Y-112406883D01*
X100507808Y-112669673D01*
X100365162Y-113013201D01*
X100364838Y-113385167D01*
X97407377Y-113385167D01*
X97230327Y-113207808D01*
X96886799Y-113065162D01*
X96514833Y-113064838D01*
X96171057Y-113206883D01*
X96137882Y-113240000D01*
X96047440Y-113240000D01*
X96047440Y-113200000D01*
X96003162Y-112964683D01*
X95864090Y-112748559D01*
X95651890Y-112603569D01*
X95400000Y-112552560D01*
X94400000Y-112552560D01*
X94164683Y-112596838D01*
X93948559Y-112735910D01*
X93803569Y-112948110D01*
X93752560Y-113200000D01*
X93047440Y-113200000D01*
X93003162Y-112964683D01*
X92864090Y-112748559D01*
X92660000Y-112609110D01*
X92660000Y-112235053D01*
X92785167Y-112235162D01*
X93128943Y-112093117D01*
X93392192Y-111830327D01*
X93534838Y-111486799D01*
X93534879Y-111439923D01*
X97037401Y-107937401D01*
X97202148Y-107690839D01*
X97260000Y-107400000D01*
X97260000Y-106362463D01*
X97292192Y-106330327D01*
X97433509Y-105990000D01*
X97845086Y-105990000D01*
X97802560Y-106200000D01*
X97802560Y-106800000D01*
X97846838Y-107035317D01*
X97910678Y-107134528D01*
X97853569Y-107218110D01*
X97802560Y-107470000D01*
X97802560Y-108070000D01*
X97846838Y-108305317D01*
X97910678Y-108404528D01*
X97853569Y-108488110D01*
X97802560Y-108740000D01*
X97802560Y-109340000D01*
X97846838Y-109575317D01*
X97910678Y-109674528D01*
X97853569Y-109758110D01*
X97802560Y-110010000D01*
X97802560Y-110610000D01*
X97846838Y-110845317D01*
X97985910Y-111061441D01*
X98198110Y-111206431D01*
X98425111Y-111252400D01*
X98407808Y-111269673D01*
X98265162Y-111613201D01*
X98264838Y-111985167D01*
X98406883Y-112328943D01*
X98669673Y-112592192D01*
X99013201Y-112734838D01*
X99385167Y-112735162D01*
X99728943Y-112593117D01*
X99992192Y-112330327D01*
X100134838Y-111986799D01*
X100135162Y-111614833D01*
X99993117Y-111271057D01*
X99974855Y-111252763D01*
X100185317Y-111213162D01*
X100401441Y-111074090D01*
X100546431Y-110861890D01*
X100597440Y-110610000D01*
X100597440Y-110010000D01*
X100553162Y-109774683D01*
X100489322Y-109675472D01*
X100546431Y-109591890D01*
X100597440Y-109340000D01*
X100597440Y-108740000D01*
X100553162Y-108504683D01*
X100489322Y-108405472D01*
X100546431Y-108321890D01*
X100597440Y-108070000D01*
X100597440Y-107470000D01*
X100553162Y-107234683D01*
X100489322Y-107135472D01*
X100546431Y-107051890D01*
X100597440Y-106800000D01*
X100597440Y-106200000D01*
X100553162Y-105964683D01*
X100489322Y-105865472D01*
X100546431Y-105781890D01*
X100597440Y-105530000D01*
X100597440Y-104930000D01*
X100553162Y-104694683D01*
X100489322Y-104595472D01*
X100546431Y-104511890D01*
X100597440Y-104260000D01*
X100597440Y-103660000D01*
X100553162Y-103424683D01*
X100489322Y-103325472D01*
X100546431Y-103241890D01*
X100597440Y-102990000D01*
X100597440Y-102390000D01*
X100553162Y-102154683D01*
X100414090Y-101938559D01*
X100201890Y-101793569D01*
X99950000Y-101742560D01*
X98450000Y-101742560D01*
X98214683Y-101786838D01*
X97998559Y-101925910D01*
X97995764Y-101930000D01*
X97604802Y-101930000D01*
X95937401Y-100262599D01*
X95690839Y-100097852D01*
X95400000Y-100040000D01*
X94162463Y-100040000D01*
X94130327Y-100007808D01*
X93786799Y-99865162D01*
X93414833Y-99864838D01*
X93071057Y-100006883D01*
X92807808Y-100269673D01*
X92665162Y-100613201D01*
X92664838Y-100985167D01*
X92806883Y-101328943D01*
X93069673Y-101592192D01*
X93222044Y-101655462D01*
X93207808Y-101669673D01*
X93065162Y-102013201D01*
X93064838Y-102385167D01*
X93206883Y-102728943D01*
X93469673Y-102992192D01*
X93813201Y-103134838D01*
X94185167Y-103135162D01*
X94238375Y-103113177D01*
X96085001Y-104959803D01*
X95971057Y-105006883D01*
X95707808Y-105269673D01*
X95632482Y-105451078D01*
X95339003Y-105157086D01*
X94756659Y-104915276D01*
X94126107Y-104914725D01*
X93543343Y-105155519D01*
X93445663Y-105253029D01*
X93314090Y-105048559D01*
X93101890Y-104903569D01*
X92850000Y-104852560D01*
X90950000Y-104852560D01*
X90714683Y-104896838D01*
X90498559Y-105035910D01*
X90353569Y-105248110D01*
X90302560Y-105500000D01*
X90302560Y-107500000D01*
X90346838Y-107735317D01*
X90485910Y-107951441D01*
X90698110Y-108096431D01*
X90950000Y-108147440D01*
X91140000Y-108147440D01*
X91140000Y-110365034D01*
X90914833Y-110364838D01*
X90571057Y-110506883D01*
X90537882Y-110540000D01*
X88497440Y-110540000D01*
X88497440Y-110010000D01*
X88453162Y-109774683D01*
X88389322Y-109675472D01*
X88446431Y-109591890D01*
X88497440Y-109340000D01*
X88497440Y-108740000D01*
X88453162Y-108504683D01*
X88389322Y-108405472D01*
X88446431Y-108321890D01*
X88497440Y-108070000D01*
X88497440Y-107470000D01*
X88453162Y-107234683D01*
X88389322Y-107135472D01*
X88446431Y-107051890D01*
X88497440Y-106800000D01*
X88497440Y-106200000D01*
X88453162Y-105964683D01*
X88389322Y-105865472D01*
X88446431Y-105781890D01*
X88497440Y-105530000D01*
X88497440Y-104930000D01*
X88453162Y-104694683D01*
X88389322Y-104595472D01*
X88446431Y-104511890D01*
X88497440Y-104260000D01*
X88497440Y-103660000D01*
X88453162Y-103424683D01*
X88394822Y-103334020D01*
X88485000Y-103116310D01*
X88485000Y-102975750D01*
X88326250Y-102817000D01*
X87227000Y-102817000D01*
X87227000Y-102837000D01*
X86973000Y-102837000D01*
X86973000Y-102817000D01*
X85873750Y-102817000D01*
X85715000Y-102975750D01*
X85715000Y-103116310D01*
X85804806Y-103333122D01*
X85753569Y-103408110D01*
X85702560Y-103660000D01*
X85702560Y-104260000D01*
X85713425Y-104317742D01*
X85586799Y-104265162D01*
X85214833Y-104264838D01*
X84871057Y-104406883D01*
X84807830Y-104470000D01*
X83304802Y-104470000D01*
X85514802Y-102260000D01*
X85716528Y-102260000D01*
X85715000Y-102263690D01*
X85715000Y-102404250D01*
X85873750Y-102563000D01*
X86973000Y-102563000D01*
X86973000Y-102543000D01*
X87227000Y-102543000D01*
X87227000Y-102563000D01*
X88326250Y-102563000D01*
X88485000Y-102404250D01*
X88485000Y-102263690D01*
X88483472Y-102260000D01*
X89185198Y-102260000D01*
X89364878Y-102439680D01*
X89364838Y-102485167D01*
X89506883Y-102828943D01*
X89769673Y-103092192D01*
X90113201Y-103234838D01*
X90485167Y-103235162D01*
X90828943Y-103093117D01*
X91092192Y-102830327D01*
X91234838Y-102486799D01*
X91235162Y-102114833D01*
X91093117Y-101771057D01*
X90830327Y-101507808D01*
X90486799Y-101365162D01*
X90439923Y-101365121D01*
X90037401Y-100962599D01*
X89790839Y-100797852D01*
X89535047Y-100746971D01*
X89535162Y-100614833D01*
X89393117Y-100271057D01*
X89130327Y-100007808D01*
X88786799Y-99865162D01*
X88414833Y-99864838D01*
X88071057Y-100006883D01*
X87937707Y-100140000D01*
X83362463Y-100140000D01*
X83330327Y-100107808D01*
X82986799Y-99965162D01*
X82660000Y-99964877D01*
X82660000Y-98765040D01*
X83017600Y-98765040D01*
X83252917Y-98720762D01*
X83469041Y-98581690D01*
X83614031Y-98369490D01*
X83665040Y-98117600D01*
X83665040Y-97760000D01*
X83900000Y-97760000D01*
X84190839Y-97702148D01*
X84437401Y-97537401D01*
X87952560Y-94022242D01*
X87952560Y-95000000D01*
X87996838Y-95235317D01*
X88135910Y-95451441D01*
X88348110Y-95596431D01*
X88600000Y-95647440D01*
X90200000Y-95647440D01*
X90435317Y-95603162D01*
X90651441Y-95464090D01*
X90769210Y-95291729D01*
X90769673Y-95292192D01*
X91113201Y-95434838D01*
X91403767Y-95435091D01*
X91362599Y-95462599D01*
X90426725Y-96398473D01*
X90200000Y-96352560D01*
X88600000Y-96352560D01*
X88364683Y-96396838D01*
X88148559Y-96535910D01*
X88003569Y-96748110D01*
X87952560Y-97000000D01*
X87952560Y-98000000D01*
X87996838Y-98235317D01*
X88135910Y-98451441D01*
X88348110Y-98596431D01*
X88600000Y-98647440D01*
X90200000Y-98647440D01*
X90435317Y-98603162D01*
X90651441Y-98464090D01*
X90796431Y-98251890D01*
X90824604Y-98112770D01*
X90937401Y-98037401D01*
X92214802Y-96760000D01*
X93001161Y-96760000D01*
X92952560Y-97000000D01*
X92952560Y-98000000D01*
X92996838Y-98235317D01*
X93135910Y-98451441D01*
X93348110Y-98596431D01*
X93600000Y-98647440D01*
X95200000Y-98647440D01*
X95435317Y-98603162D01*
X95651441Y-98464090D01*
X95790890Y-98260000D01*
X96400000Y-98260000D01*
X96690839Y-98202148D01*
X96937401Y-98037401D01*
X99852689Y-95122113D01*
X99935910Y-95251441D01*
X100148110Y-95396431D01*
X100400000Y-95447440D01*
X101400000Y-95447440D01*
X101635317Y-95403162D01*
X101840000Y-95271452D01*
X101840000Y-96037537D01*
X101807808Y-96069673D01*
X101665162Y-96413201D01*
X101664838Y-96785167D01*
X101806883Y-97128943D01*
X102069673Y-97392192D01*
X102413201Y-97534838D01*
X102785167Y-97535162D01*
X103128943Y-97393117D01*
X103392192Y-97130327D01*
X103534838Y-96786799D01*
X103535162Y-96414833D01*
X103393117Y-96071057D01*
X103360000Y-96037882D01*
X103360000Y-95439340D01*
X103400000Y-95447440D01*
X104400000Y-95447440D01*
X104635317Y-95403162D01*
X104851441Y-95264090D01*
X104996431Y-95051890D01*
X105047440Y-94800000D01*
X105047440Y-93200000D01*
X105003162Y-92964683D01*
X104864090Y-92748559D01*
X104660000Y-92609110D01*
X104660000Y-92562463D01*
X104692192Y-92530327D01*
X104834838Y-92186799D01*
X104835162Y-91814833D01*
X104693117Y-91471057D01*
X104430327Y-91207808D01*
X104086799Y-91065162D01*
X103714833Y-91064838D01*
X103371057Y-91206883D01*
X103360000Y-91217921D01*
X103360000Y-90914802D01*
X104937401Y-89337401D01*
X105102148Y-89090840D01*
X105127360Y-88964090D01*
X105160000Y-88800000D01*
X105160000Y-87387279D01*
X105351441Y-87264090D01*
X105496431Y-87051890D01*
X105547440Y-86800000D01*
X105547440Y-85200000D01*
X105503162Y-84964683D01*
X105364090Y-84748559D01*
X105151890Y-84603569D01*
X104900000Y-84552560D01*
X103900000Y-84552560D01*
X103664683Y-84596838D01*
X103448559Y-84735910D01*
X103303569Y-84948110D01*
X103252560Y-85200000D01*
X103252560Y-86800000D01*
X103296838Y-87035317D01*
X103435910Y-87251441D01*
X103640000Y-87390890D01*
X103640000Y-88485198D01*
X102673646Y-89451552D01*
X102430327Y-89207808D01*
X102160000Y-89095558D01*
X102160000Y-87387279D01*
X102351441Y-87264090D01*
X102496431Y-87051890D01*
X102547440Y-86800000D01*
X102547440Y-85200000D01*
X102503162Y-84964683D01*
X102364090Y-84748559D01*
X102151890Y-84603569D01*
X101900000Y-84552560D01*
X100900000Y-84552560D01*
X100664683Y-84596838D01*
X100448559Y-84735910D01*
X100303569Y-84948110D01*
X100252560Y-85200000D01*
X100252560Y-86800000D01*
X100296838Y-87035317D01*
X100435910Y-87251441D01*
X100640000Y-87390890D01*
X100640000Y-87685198D01*
X100220198Y-88105000D01*
X98475334Y-88105000D01*
X98510000Y-88021310D01*
X98510000Y-87880750D01*
X98351250Y-87722000D01*
X97227000Y-87722000D01*
X97227000Y-87742000D01*
X96973000Y-87742000D01*
X96973000Y-87722000D01*
X95848750Y-87722000D01*
X95690000Y-87880750D01*
X95690000Y-88021310D01*
X95779806Y-88238122D01*
X95728569Y-88313110D01*
X95677560Y-88565000D01*
X95677560Y-89165000D01*
X95717074Y-89375000D01*
X94849802Y-89375000D01*
X93802401Y-88327599D01*
X93555839Y-88162852D01*
X93265000Y-88105000D01*
X93079914Y-88105000D01*
X93122440Y-87895000D01*
X93122440Y-87295000D01*
X93098674Y-87168690D01*
X95690000Y-87168690D01*
X95690000Y-87309250D01*
X95848750Y-87468000D01*
X96973000Y-87468000D01*
X96973000Y-86818750D01*
X97227000Y-86818750D01*
X97227000Y-87468000D01*
X98351250Y-87468000D01*
X98510000Y-87309250D01*
X98510000Y-87168690D01*
X98413327Y-86935301D01*
X98234698Y-86756673D01*
X98001309Y-86660000D01*
X97385750Y-86660000D01*
X97227000Y-86818750D01*
X96973000Y-86818750D01*
X96814250Y-86660000D01*
X96198691Y-86660000D01*
X95965302Y-86756673D01*
X95786673Y-86935301D01*
X95690000Y-87168690D01*
X93098674Y-87168690D01*
X93078162Y-87059683D01*
X92939090Y-86843559D01*
X92726890Y-86698569D01*
X92475000Y-86647560D01*
X92327242Y-86647560D01*
X93378725Y-85596077D01*
X93513489Y-85569271D01*
X93999670Y-85244415D01*
X94210000Y-84929634D01*
X94420330Y-85244415D01*
X94906511Y-85569271D01*
X95480000Y-85683345D01*
X96053489Y-85569271D01*
X96539670Y-85244415D01*
X96864526Y-84758234D01*
X96978600Y-84184745D01*
X96978600Y-83815255D01*
X96864526Y-83241766D01*
X96539670Y-82755585D01*
X96172126Y-82510000D01*
X117390000Y-82510000D01*
X117390000Y-131090000D01*
X68810000Y-131090000D01*
X68810000Y-109340025D01*
X68924301Y-109454327D01*
X69157690Y-109551000D01*
X70014250Y-109551000D01*
X70173000Y-109392250D01*
X70173000Y-108027000D01*
X70427000Y-108027000D01*
X70427000Y-109392250D01*
X70585750Y-109551000D01*
X71442310Y-109551000D01*
X71675699Y-109454327D01*
X71854327Y-109275698D01*
X71951000Y-109042309D01*
X71951000Y-108185750D01*
X71792250Y-108027000D01*
X70427000Y-108027000D01*
X70173000Y-108027000D01*
X70153000Y-108027000D01*
X70153000Y-107773000D01*
X70173000Y-107773000D01*
X70173000Y-107753000D01*
X70427000Y-107753000D01*
X70427000Y-107773000D01*
X71792250Y-107773000D01*
X71951000Y-107614250D01*
X71951000Y-106757691D01*
X71854327Y-106524302D01*
X71675699Y-106345673D01*
X71624628Y-106324519D01*
X71825325Y-106024155D01*
X71951000Y-105392345D01*
X71951000Y-105327655D01*
X71825325Y-104695845D01*
X71467433Y-104160222D01*
X70931810Y-103802330D01*
X70300000Y-103676655D01*
X69668190Y-103802330D01*
X69132567Y-104160222D01*
X68810000Y-104642977D01*
X68810000Y-91285750D01*
X80465000Y-91285750D01*
X80465000Y-91626309D01*
X80561673Y-91859698D01*
X80740301Y-92038327D01*
X80973690Y-92135000D01*
X81614250Y-92135000D01*
X81773000Y-91976250D01*
X81773000Y-91127000D01*
X82027000Y-91127000D01*
X82027000Y-91976250D01*
X82185750Y-92135000D01*
X82826310Y-92135000D01*
X83059699Y-92038327D01*
X83238327Y-91859698D01*
X83335000Y-91626309D01*
X83335000Y-91285750D01*
X83176250Y-91127000D01*
X82027000Y-91127000D01*
X81773000Y-91127000D01*
X80623750Y-91127000D01*
X80465000Y-91285750D01*
X68810000Y-91285750D01*
X68810000Y-90373691D01*
X80465000Y-90373691D01*
X80465000Y-90714250D01*
X80623750Y-90873000D01*
X81773000Y-90873000D01*
X81773000Y-90023750D01*
X82027000Y-90023750D01*
X82027000Y-90873000D01*
X83176250Y-90873000D01*
X83335000Y-90714250D01*
X83335000Y-90373691D01*
X83238327Y-90140302D01*
X83059699Y-89961673D01*
X82826310Y-89865000D01*
X82185750Y-89865000D01*
X82027000Y-90023750D01*
X81773000Y-90023750D01*
X81614250Y-89865000D01*
X80973690Y-89865000D01*
X80740301Y-89961673D01*
X80561673Y-90140302D01*
X80465000Y-90373691D01*
X68810000Y-90373691D01*
X68810000Y-87500000D01*
X72302560Y-87500000D01*
X72302560Y-89500000D01*
X72346838Y-89735317D01*
X72485910Y-89951441D01*
X72698110Y-90096431D01*
X72950000Y-90147440D01*
X74850000Y-90147440D01*
X75085317Y-90103162D01*
X75301441Y-89964090D01*
X75446431Y-89751890D01*
X75447055Y-89748808D01*
X75540997Y-89842914D01*
X76123341Y-90084724D01*
X76753893Y-90085275D01*
X77336657Y-89844481D01*
X77782914Y-89399003D01*
X78024724Y-88816659D01*
X78025275Y-88186107D01*
X77784481Y-87603343D01*
X77681319Y-87500000D01*
X80452560Y-87500000D01*
X80452560Y-88500000D01*
X80496838Y-88735317D01*
X80635910Y-88951441D01*
X80848110Y-89096431D01*
X81100000Y-89147440D01*
X82700000Y-89147440D01*
X82935317Y-89103162D01*
X83151441Y-88964090D01*
X83296431Y-88751890D01*
X83347440Y-88500000D01*
X83347440Y-87500000D01*
X83303162Y-87264683D01*
X83164090Y-87048559D01*
X82951890Y-86903569D01*
X82722585Y-86857134D01*
X82834838Y-86586799D01*
X82835162Y-86214833D01*
X82693117Y-85871057D01*
X82430327Y-85607808D01*
X82086799Y-85465162D01*
X81714833Y-85464838D01*
X81371057Y-85606883D01*
X81107808Y-85869673D01*
X80965162Y-86213201D01*
X80964838Y-86585167D01*
X81077102Y-86856868D01*
X80864683Y-86896838D01*
X80648559Y-87035910D01*
X80503569Y-87248110D01*
X80452560Y-87500000D01*
X77681319Y-87500000D01*
X77339003Y-87157086D01*
X76756659Y-86915276D01*
X76126107Y-86914725D01*
X75543343Y-87155519D01*
X75445663Y-87253029D01*
X75314090Y-87048559D01*
X75101890Y-86903569D01*
X74850000Y-86852560D01*
X72950000Y-86852560D01*
X72714683Y-86896838D01*
X72498559Y-87035910D01*
X72353569Y-87248110D01*
X72302560Y-87500000D01*
X68810000Y-87500000D01*
X68810000Y-82510000D01*
X89100360Y-82510000D01*
X89084959Y-82519910D01*
G36*
X93997599Y-90672401D02*
X94244160Y-90837148D01*
X94535000Y-90895000D01*
X95720086Y-90895000D01*
X95677560Y-91105000D01*
X95677560Y-91705000D01*
X95721838Y-91940317D01*
X95860910Y-92156441D01*
X96073110Y-92301431D01*
X96325000Y-92352440D01*
X96340000Y-92352440D01*
X96340000Y-94485198D01*
X95847440Y-94977758D01*
X95847440Y-94000000D01*
X95803162Y-93764683D01*
X95664090Y-93548559D01*
X95451890Y-93403569D01*
X95260888Y-93364890D01*
X95334838Y-93186799D01*
X95335162Y-92814833D01*
X95193117Y-92471057D01*
X94930327Y-92207808D01*
X94586799Y-92065162D01*
X94214833Y-92064838D01*
X93871057Y-92206883D01*
X93607808Y-92469673D01*
X93465162Y-92813201D01*
X93464838Y-93185167D01*
X93538764Y-93364082D01*
X93364683Y-93396838D01*
X93148559Y-93535910D01*
X93003569Y-93748110D01*
X92952560Y-94000000D01*
X92952560Y-95000000D01*
X92996838Y-95235317D01*
X92999851Y-95240000D01*
X91900000Y-95240000D01*
X91877712Y-95244433D01*
X92092192Y-95030327D01*
X92234838Y-94686799D01*
X92235162Y-94314833D01*
X92093117Y-93971057D01*
X91830327Y-93707808D01*
X91486799Y-93565162D01*
X91114833Y-93564838D01*
X90771057Y-93706883D01*
X90767959Y-93709976D01*
X90664090Y-93548559D01*
X90451890Y-93403569D01*
X90200000Y-93352560D01*
X88622242Y-93352560D01*
X90442800Y-91532002D01*
X90448748Y-91532002D01*
X90290000Y-91690750D01*
X90290000Y-91831310D01*
X90386673Y-92064699D01*
X90565302Y-92243327D01*
X90798691Y-92340000D01*
X91414250Y-92340000D01*
X91573000Y-92181250D01*
X91573000Y-91532000D01*
X91827000Y-91532000D01*
X91827000Y-92181250D01*
X91985750Y-92340000D01*
X92601309Y-92340000D01*
X92834698Y-92243327D01*
X93013327Y-92064699D01*
X93110000Y-91831310D01*
X93110000Y-91690750D01*
X92951250Y-91532000D01*
X91827000Y-91532000D01*
X91573000Y-91532000D01*
X91553000Y-91532000D01*
X91553000Y-91278000D01*
X91573000Y-91278000D01*
X91573000Y-91258000D01*
X91827000Y-91258000D01*
X91827000Y-91278000D01*
X92951250Y-91278000D01*
X93110000Y-91119250D01*
X93110000Y-90978690D01*
X93020194Y-90761878D01*
X93071431Y-90686890D01*
X93122440Y-90435000D01*
X93122440Y-89835000D01*
X93113689Y-89788491D01*
X93997599Y-90672401D01*
X93997599Y-90672401D01*
G37*
X93997599Y-90672401D02*
X94244160Y-90837148D01*
X94535000Y-90895000D01*
X95720086Y-90895000D01*
X95677560Y-91105000D01*
X95677560Y-91705000D01*
X95721838Y-91940317D01*
X95860910Y-92156441D01*
X96073110Y-92301431D01*
X96325000Y-92352440D01*
X96340000Y-92352440D01*
X96340000Y-94485198D01*
X95847440Y-94977758D01*
X95847440Y-94000000D01*
X95803162Y-93764683D01*
X95664090Y-93548559D01*
X95451890Y-93403569D01*
X95260888Y-93364890D01*
X95334838Y-93186799D01*
X95335162Y-92814833D01*
X95193117Y-92471057D01*
X94930327Y-92207808D01*
X94586799Y-92065162D01*
X94214833Y-92064838D01*
X93871057Y-92206883D01*
X93607808Y-92469673D01*
X93465162Y-92813201D01*
X93464838Y-93185167D01*
X93538764Y-93364082D01*
X93364683Y-93396838D01*
X93148559Y-93535910D01*
X93003569Y-93748110D01*
X92952560Y-94000000D01*
X92952560Y-95000000D01*
X92996838Y-95235317D01*
X92999851Y-95240000D01*
X91900000Y-95240000D01*
X91877712Y-95244433D01*
X92092192Y-95030327D01*
X92234838Y-94686799D01*
X92235162Y-94314833D01*
X92093117Y-93971057D01*
X91830327Y-93707808D01*
X91486799Y-93565162D01*
X91114833Y-93564838D01*
X90771057Y-93706883D01*
X90767959Y-93709976D01*
X90664090Y-93548559D01*
X90451890Y-93403569D01*
X90200000Y-93352560D01*
X88622242Y-93352560D01*
X90442800Y-91532002D01*
X90448748Y-91532002D01*
X90290000Y-91690750D01*
X90290000Y-91831310D01*
X90386673Y-92064699D01*
X90565302Y-92243327D01*
X90798691Y-92340000D01*
X91414250Y-92340000D01*
X91573000Y-92181250D01*
X91573000Y-91532000D01*
X91827000Y-91532000D01*
X91827000Y-92181250D01*
X91985750Y-92340000D01*
X92601309Y-92340000D01*
X92834698Y-92243327D01*
X93013327Y-92064699D01*
X93110000Y-91831310D01*
X93110000Y-91690750D01*
X92951250Y-91532000D01*
X91827000Y-91532000D01*
X91573000Y-91532000D01*
X91553000Y-91532000D01*
X91553000Y-91278000D01*
X91573000Y-91278000D01*
X91573000Y-91258000D01*
X91827000Y-91258000D01*
X91827000Y-91278000D01*
X92951250Y-91278000D01*
X93110000Y-91119250D01*
X93110000Y-90978690D01*
X93020194Y-90761878D01*
X93071431Y-90686890D01*
X93122440Y-90435000D01*
X93122440Y-89835000D01*
X93113689Y-89788491D01*
X93997599Y-90672401D01*
M02*
