M48
INCH,TZ
T1C0.016
T2C0.039
T3C0.040
%
G90
G05
T1
X29685Y-44409
X30866Y-42559
X31181Y-41535
X31181Y-43898
X31378Y-50906
X31732Y-39724
X32165Y-43858
X32244Y-34016
X32598Y-39724
X32795Y-48425
X32835Y-42283
X33307Y-41890
X33622Y-41417
X34685Y-33071
X34882Y-39685
X35039Y-48425
X35354Y-34488
X35551Y-40276
X35866Y-43819
X35945Y-37205
X36457Y-43819
X36850Y-39685
X36850Y-47835
X37008Y-35866
X37008Y-40236
X37165Y-36614
X37323Y-34921
X37520Y-47835
X37559Y-47480
X37559Y-48425
X37953Y-50079
X37992Y-41654
X38071Y-44882
X38189Y-50945
X38268Y-46850
X38425Y-40945
X38425Y-48898
X38819Y-45591
X39055Y-44016
X39724Y-50354
X39882Y-44567
X40118Y-35433
X40394Y-38031
X40394Y-39921
X40472Y-44606
X40906Y-36220
X41811Y-43465
X43858Y-44370
X44252Y-37874
T2
X29094Y-34843
X29094Y-41929
X29094Y-49409
X30094Y-34843
X30094Y-41929
X30094Y-49409
X36181Y-41929
X36181Y-49409
X37181Y-41929
X37181Y-49409
X42874Y-34843
X42874Y-41929
X42874Y-49409
X43874Y-34843
X43874Y-41929
X43874Y-49409
T3
X27677Y-41480
X27677Y-42480
X32244Y-38189
X35591Y-33071
X36591Y-33071
X37591Y-33071
T0
M30
